<svg width="56" height="56" viewBox="0 0 56 56" fill="none" xmlns="http://www.w3.org/2000/svg">
<g opacity="0.5" filter="url(#filter0_f_11115_3297)">
<mask id="mask0_11115_3297" style="mask-type:luminance" maskUnits="userSpaceOnUse" x="9" y="10" width="33" height="32">
<path d="M41.2984 10.5H9.7998V42H41.2984V10.5Z" fill="white"/>
</mask>
<g mask="url(#mask0_11115_3297)">
<path d="M25.5493 41.5277C33.9864 41.5277 40.8261 34.6877 40.8261 26.2502C40.8261 17.8126 33.9864 10.9727 25.5493 10.9727C17.1121 10.9727 10.2725 17.8126 10.2725 26.2502C10.2725 34.6877 17.1121 41.5277 25.5493 41.5277Z" fill="url(#paint0_linear_11115_3297)"/>
<path d="M32.2351 32.3377L27.0693 19.848C26.778 19.2022 26.3449 18.8872 25.774 18.8872H25.3172C24.7463 18.8872 24.3132 19.2022 24.0219 19.848L21.7736 25.2896H20.0727C19.5648 25.2935 19.1514 25.703 19.1475 26.2149V26.2267C19.1514 26.7346 19.5648 27.1481 20.0727 27.152H20.9862L18.8403 32.3377C18.801 32.4519 18.7773 32.57 18.7773 32.6921C18.7773 32.9835 18.8679 33.2118 19.0293 33.389C19.1908 33.5662 19.4231 33.6528 19.7144 33.6528C19.9074 33.6489 20.0924 33.5898 20.246 33.4756C20.4113 33.3615 20.5255 33.1961 20.6161 33.0071L22.9785 27.1481H24.6164C25.1243 27.1441 25.5377 26.7346 25.5417 26.2228V26.1991C25.5377 25.6912 25.1243 25.2778 24.6164 25.2738H23.7423L25.5456 20.7811L30.4594 33.0031C30.5499 33.1921 30.6641 33.3575 30.8295 33.4717C30.983 33.5859 31.172 33.645 31.361 33.6489C31.6524 33.6489 31.8807 33.5623 32.0461 33.3851C32.2115 33.2079 32.2981 32.9795 32.2981 32.6881C32.302 32.57 32.2824 32.448 32.2351 32.3377Z" fill="white"/>
</g>
</g>
<mask id="mask1_11115_3297" style="mask-type:luminance" maskUnits="userSpaceOnUse" x="12" y="12" width="33" height="33">
<path d="M44.0982 12.6001H12.5996V44.1001H44.0982V12.6001Z" fill="white"/>
</mask>
<g mask="url(#mask1_11115_3297)">
<path d="M28.3491 43.6278C36.7862 43.6278 43.6259 36.7878 43.6259 28.3503C43.6259 19.9127 36.7862 13.0728 28.3491 13.0728C19.9119 13.0728 13.0723 19.9127 13.0723 28.3503C13.0723 36.7878 19.9119 43.6278 28.3491 43.6278Z" fill="url(#paint1_linear_11115_3297)"/>
<path d="M35.0349 34.4378L29.8691 21.9481C29.5778 21.3023 29.1447 20.9873 28.5738 20.9873H28.117C27.5461 20.9873 27.113 21.3023 26.8217 21.9481L24.5734 27.3897H22.8725C22.3646 27.3936 21.9512 27.8031 21.9473 28.315V28.3268C21.9512 28.8347 22.3646 29.2482 22.8725 29.2521H23.786L21.6401 34.4378C21.6008 34.552 21.5771 34.6701 21.5771 34.7922C21.5771 35.0836 21.6677 35.3119 21.8291 35.4891C21.9906 35.6663 22.2229 35.7529 22.5142 35.7529C22.7072 35.749 22.8922 35.6899 23.0458 35.5757C23.2111 35.4616 23.3253 35.2962 23.4159 35.1072L25.7783 29.2482H27.4162C27.9241 29.2442 28.3375 28.8347 28.3415 28.3229V28.2992C28.3375 27.7913 27.9241 27.3779 27.4162 27.3739H26.5421L28.3454 22.8812L33.2592 35.1032C33.3497 35.2922 33.4639 35.4576 33.6293 35.5718C33.7828 35.686 33.9718 35.7451 34.1608 35.749C34.4522 35.749 34.6806 35.6624 34.8459 35.4852C35.0113 35.308 35.0979 35.0796 35.0979 34.7882C35.1018 34.6701 35.0822 34.5481 35.0349 34.4378Z" fill="white"/>
</g>
<defs>
<filter id="filter0_f_11115_3297" x="2.27246" y="2.97266" width="46.5537" height="46.5552" filterUnits="userSpaceOnUse" color-interpolation-filters="sRGB">
<feFlood flood-opacity="0" result="BackgroundImageFix"/>
<feBlend mode="normal" in="SourceGraphic" in2="BackgroundImageFix" result="shape"/>
<feGaussianBlur stdDeviation="4" result="effect1_foregroundBlur_11115_3297"/>
</filter>
<linearGradient id="paint0_linear_11115_3297" x1="36.9394" y1="16.6657" x2="14.2067" y2="35.7922" gradientUnits="userSpaceOnUse">
<stop stop-color="#E65BC5"/>
<stop offset="1" stop-color="#3DD5E2"/>
</linearGradient>
<linearGradient id="paint1_linear_11115_3297" x1="39.7392" y1="18.7658" x2="17.0065" y2="37.8922" gradientUnits="userSpaceOnUse">
<stop stop-color="#E65BC5"/>
<stop offset="1" stop-color="#3DD5E2"/>
</linearGradient>
</defs>
</svg>
