<svg width="70" height="70" viewBox="0 0 70 70" fill="none" xmlns="http://www.w3.org/2000/svg">
<g clip-path="url(#clip0_11115_58705)">
<path d="M52.4974 43.9051C52.4974 41.6254 48.7511 39.6446 43.2433 38.6383V38.6397C40.8502 39.2533 38.0241 39.607 34.9982 39.607C31.9723 39.607 29.1462 39.2533 26.7532 38.6383C21.2468 39.6446 17.499 41.6254 17.499 43.9051C17.499 47.2026 25.3343 49.875 34.9982 49.875C44.6622 49.875 52.4974 47.2041 52.4974 43.9051Z" fill="black"/>
<path d="M49.0355 33.2401C49.0355 31.3618 45.8127 29.7405 41.1346 28.9695C39.3366 29.4199 37.2396 29.6798 34.9982 29.6798C32.7569 29.6798 30.6599 29.4214 28.8618 28.9695C24.1837 29.7405 20.9609 31.3632 20.9609 33.2401C20.9609 35.8605 27.2461 37.9857 34.9982 37.9857C42.7504 37.9857 49.0355 35.8605 49.0355 33.2401Z" fill="black"/>
<path d="M45.575 24.5935C45.575 22.6083 40.8677 21 35.0624 21C29.257 21 24.5497 22.6083 24.5497 24.5935C24.5497 26.5772 29.257 28.1855 35.0624 28.1855C40.8677 28.1855 45.575 26.5772 45.575 24.5935Z" fill="black"/>
<g opacity="0.7" filter="url(#filter0_f_11115_58705)">
<path d="M60.3723 49.3065C60.3723 46.7505 56.2513 44.5295 50.1927 43.4013V43.4029C47.5604 44.0909 44.4516 44.4874 41.1231 44.4874C37.7947 44.4874 34.6859 44.0909 32.0536 43.4013C25.9965 44.5295 21.874 46.7505 21.874 49.3065C21.874 53.0037 30.4928 56 41.1231 56C51.7535 56 60.3723 53.0053 60.3723 49.3065Z" fill="black" fill-opacity="0.22"/>
<path d="M56.5641 37.3488C56.5641 35.2428 53.0191 33.4249 47.8732 32.5605C45.8953 33.0655 43.5886 33.3569 41.1231 33.3569C38.6577 33.3569 36.351 33.0672 34.3731 32.5605C29.2272 33.4249 25.6821 35.2444 25.6821 37.3488C25.6821 40.2868 32.5958 42.6696 41.1231 42.6696C49.6505 42.6696 56.5641 40.2868 56.5641 37.3488Z" fill="black" fill-opacity="0.22"/>
<path d="M52.7576 27.6541C52.7576 25.4283 47.5796 23.625 41.1937 23.625C34.8078 23.625 29.6298 25.4283 29.6298 27.6541C29.6298 29.8782 34.8078 31.6815 41.1937 31.6815C47.5796 31.6815 52.7576 29.8782 52.7576 27.6541Z" fill="black" fill-opacity="0.22"/>
</g>
</g>
<defs>
<filter id="filter0_f_11115_58705" x="10.874" y="12.625" width="60.498" height="54.375" filterUnits="userSpaceOnUse" color-interpolation-filters="sRGB">
<feFlood flood-opacity="0" result="BackgroundImageFix"/>
<feBlend mode="normal" in="SourceGraphic" in2="BackgroundImageFix" result="shape"/>
<feGaussianBlur stdDeviation="5.5" result="effect1_foregroundBlur_11115_58705"/>
</filter>
<clipPath id="clip0_11115_58705">
<rect width="70" height="70" rx="35" fill="white"/>
</clipPath>
</defs>
</svg>
