<svg width="56" height="56" viewBox="0 0 56 56" fill="none" xmlns="http://www.w3.org/2000/svg">
<path fill-rule="evenodd" clip-rule="evenodd" d="M17.3197 38.7045C16.5628 38.2352 16.0996 37.4018 16.0996 36.5043V31.4934C16.0996 30.8985 16.578 30.4164 17.1653 30.4189C17.3526 30.4189 17.5374 30.4702 17.6994 30.5651L28.8597 37.1582C29.5128 37.5429 29.9152 38.2506 29.9152 39.0174V44.2077C29.9178 44.9206 29.3482 45.5002 28.6445 45.5002C28.4091 45.5002 28.1763 45.4335 27.9763 45.3104L17.3197 38.7045ZM33.9551 29.1932C34.6082 29.5778 35.0081 30.2882 35.0107 31.0524V41.5869C35.0107 41.8972 34.8461 42.1844 34.5778 42.3357L32.1351 43.7282C32.1048 43.7461 32.0719 43.759 32.0364 43.7692V37.9198C32.0364 37.1633 31.6441 36.4607 31.0011 36.0709L21.2001 30.1317V23.5284C21.2001 22.9335 21.6785 22.4513 22.2658 22.4539C22.4531 22.4539 22.6379 22.5052 22.7999 22.6001L33.9551 29.1932ZM38.8405 21.4128C39.4961 21.7974 39.8985 22.5078 39.8985 23.2745V38.6609C39.896 38.9764 39.7239 39.2661 39.4505 39.4174L37.1344 40.6842V29.9727C37.1344 29.2162 36.742 28.5162 36.1042 28.1264L26.0854 22.0385V15.7762C26.0854 15.5864 26.1361 15.3992 26.2272 15.2351C26.5233 14.7222 27.1739 14.5479 27.6801 14.8453L38.8405 21.4128Z" fill="#00D395"/>
<g opacity="0.2" filter="url(#filter0_f_11115_3329)">
<path fill-rule="evenodd" clip-rule="evenodd" d="M21.5189 34.5043C20.762 34.035 20.2988 33.2016 20.2988 32.3041V27.2932C20.2988 26.6983 20.7772 26.2162 21.3645 26.2188C21.5518 26.2188 21.7366 26.27 21.8986 26.3649L33.0589 32.958C33.712 33.3427 34.1145 34.0504 34.1145 34.8172V40.0075C34.117 40.7204 33.5474 41.3 32.8438 41.3C32.6083 41.3 32.3755 41.2333 32.1755 41.1102L21.5189 34.5043ZM38.1543 24.993C38.8074 25.3776 39.2073 26.088 39.2099 26.8522V37.3867C39.2099 37.697 39.0453 37.9842 38.777 38.1355L36.3344 39.528C36.304 39.5459 36.2711 39.5588 36.2356 39.569V33.7196C36.2356 32.9631 35.8433 32.2605 35.2004 31.8707L25.3993 25.9315V19.3282C25.3993 18.7333 25.8777 18.2512 26.465 18.2537C26.6523 18.2537 26.8371 18.305 26.9991 18.3999L38.1543 24.993ZM43.0397 17.2126C43.6953 17.5972 44.0977 18.3076 44.0977 19.0743V34.4607C44.0952 34.7762 43.9231 35.0659 43.6497 35.2172L41.3336 36.4841V25.7725C41.3336 25.016 40.9413 24.316 40.3034 23.9262L30.2847 17.8383V11.576C30.2847 11.3862 30.3353 11.199 30.4264 11.0349C30.7226 10.522 31.3731 10.3477 31.8793 10.6451L43.0397 17.2126Z" fill="#00D395"/>
</g>
<defs>
<filter id="filter0_f_11115_3329" x="10.2988" y="0.5" width="43.7988" height="50.7998" filterUnits="userSpaceOnUse" color-interpolation-filters="sRGB">
<feFlood flood-opacity="0" result="BackgroundImageFix"/>
<feBlend mode="normal" in="SourceGraphic" in2="BackgroundImageFix" result="shape"/>
<feGaussianBlur stdDeviation="5" result="effect1_foregroundBlur_11115_3329"/>
</filter>
</defs>
</svg>
