<svg width="56" height="56" viewBox="0 0 56 56" fill="none" xmlns="http://www.w3.org/2000/svg">
<g clip-path="url(#clip0_11115_31757)">
<g opacity="0.5" filter="url(#filter0_f_11115_31757)">
<path d="M12.833 21.5416L13.8441 26.3951L13.2018 26.8709L14.1534 27.5965L13.4278 28.1675L14.3794 29.0359L13.7847 29.4641L15.1527 31.07L13.0837 37.5175L15.0111 44.0956L21.7559 42.2399L23.0643 43.3112L25.7171 45.155H30.2731L32.9377 43.3112L34.2461 42.2399L40.9909 44.0956L42.9299 37.5174L40.8356 31.07L42.2147 29.4642L41.62 29.0359L42.5716 28.1675L41.8341 27.5965L42.7857 26.8709L42.1553 26.3951L43.1664 21.5417L41.656 17.0343L32.0093 20.6383L23.9931 20.6392L14.3332 17.0332L12.833 21.5416Z" fill="#F6851B"/>
</g>
<path d="M41.6564 12.834L29.8203 21.6248L32.0091 16.4384L41.6564 12.834Z" fill="#E2761B"/>
<path d="M14.333 12.8333L26.074 21.7074L23.9923 16.4376L14.333 12.8333Z" fill="#E4761B"/>
<path d="M37.3984 33.2104L34.2461 38.0401L40.9909 39.8958L42.9299 33.3175L37.3984 33.2104Z" fill="#E4761B"/>
<path d="M13.084 33.3175L15.0111 39.8958L21.7559 38.0401L18.6035 33.2104L13.084 33.3175Z" fill="#E4761B"/>
<path d="M21.3756 25.0505L19.4961 27.8936L26.1933 28.191L25.9554 20.9941L21.3756 25.0505Z" fill="#E4761B"/>
<path d="M34.6142 25.0503L29.975 20.9106L29.8203 28.1908L36.5056 27.8934L34.6142 25.0503Z" fill="#E4761B"/>
<path d="M21.7559 38.0397L25.7766 36.0769L22.3031 33.3647L21.7559 38.0397Z" fill="#E4761B"/>
<path d="M30.2129 36.0769L34.2455 38.0397L33.6864 33.3647L30.2129 36.0769Z" fill="#E4761B"/>
<path d="M34.2465 38.0407L30.2139 36.0779L30.535 38.7068L30.4994 39.8131L34.2465 38.0407Z" fill="#D7C1B3"/>
<path d="M21.7559 38.0409L25.503 39.8133L25.4792 38.7071L25.7766 36.0781L21.7559 38.0409Z" fill="#D7C1B3"/>
<path d="M30.4991 39.813L30.5348 38.7067L30.2374 38.445H25.7528L25.4792 38.7067L25.503 39.813L21.7559 38.0405L23.0644 39.1111L25.7171 40.9549H30.2731L32.9377 39.1111L34.2463 38.0405L30.4991 39.813Z" fill="#C0AD9E"/>
<path d="M30.4268 31.6289L31.4141 29.5591L33.7932 30.6416L30.4268 31.6289Z" fill="#233447"/>
<path d="M25.5626 31.6289L22.208 30.6416L24.5752 29.5591L25.5626 31.6289Z" fill="#233447"/>
<path d="M21.7549 38.0408L22.3259 33.2112L18.6025 33.3182L21.7549 38.0408Z" fill="#CD6116"/>
<path d="M33.6738 33.2112L34.2448 38.0408L37.3972 33.3182L33.6738 33.2112Z" fill="#CD6116"/>
<path d="M36.5056 27.8938L29.8203 28.1912L30.4389 31.629L31.4262 29.5592L33.8053 30.6417L36.5056 27.8938Z" fill="#CD6116"/>
<path d="M22.2063 30.6417L24.5855 29.5592L25.5609 31.629L26.1914 28.1912L19.4941 27.8938L22.2063 30.6417Z" fill="#CD6116"/>
<path d="M19.4951 27.8943L22.3025 33.3663L22.2073 30.6422L19.4951 27.8943Z" fill="#E4751F"/>
<path d="M33.8074 30.6417L33.6885 33.3658L36.5077 27.8938L33.8074 30.6417Z" fill="#E4751F"/>
<path d="M26.1939 28.1909L25.5635 31.6288L26.3486 35.6852L26.527 30.344L26.1939 28.1909Z" fill="#E4751F"/>
<path d="M29.8212 28.1909L29.5 30.3321L29.6428 35.6852L30.4398 31.6288L29.8212 28.1909Z" fill="#E4751F"/>
<path d="M30.4396 31.6285L29.6426 35.6849L30.2136 36.0774L33.6871 33.3652L33.806 30.6411L30.4396 31.6285Z" fill="#F6851B"/>
<path d="M22.208 30.6411L22.3032 33.3652L25.7767 36.0774L26.3477 35.6849L25.5626 31.6285L22.208 30.6411Z" fill="#F6851B"/>
<path d="M30.213 36.0783L29.642 35.6858H26.3469L25.7759 36.0783L25.4785 38.7073L25.7521 38.4456H30.2367L30.5341 38.7073L30.213 36.0783Z" fill="#161616"/>
<path d="M42.1551 22.1951L43.1662 17.3417L41.6555 12.8333L30.2119 21.3267L34.6133 25.05L40.8347 26.8701L42.2146 25.2642L41.6198 24.8359L42.5714 23.9675L41.8339 23.3966L42.7856 22.6709L42.1551 22.1951Z" fill="#763D16"/>
<path d="M12.833 17.3417L13.8441 22.1951L13.2018 22.6709L14.1534 23.3966L13.4278 23.9675L14.3794 24.8359L13.7847 25.2642L15.1527 26.8701L21.3741 25.05L25.7754 21.3267L14.3319 12.8333L12.833 17.3417Z" fill="#763D16"/>
<path d="M40.8358 26.8701L34.6144 25.05L36.5058 27.8931L33.6865 33.3651L37.398 33.3175H42.9294L40.8358 26.8701Z" fill="#F6851B"/>
<path d="M21.3752 25.05L15.1538 26.8701L13.084 33.3175H18.6035L22.3031 33.3651L19.4957 27.8931L21.3752 25.05Z" fill="#F6851B"/>
<path d="M29.8201 28.1921L30.2126 21.3283L32.0207 16.4392H23.9912L25.7756 21.3283L26.1919 28.1921L26.3346 30.3571L26.3465 35.6863H29.6416L29.6654 30.3571L29.8201 28.1921Z" fill="#F6851B"/>
</g>
<defs>
<filter id="filter0_f_11115_31757" x="-2.16699" y="2.0332" width="60.333" height="58.1218" filterUnits="userSpaceOnUse" color-interpolation-filters="sRGB">
<feFlood flood-opacity="0" result="BackgroundImageFix"/>
<feBlend mode="normal" in="SourceGraphic" in2="BackgroundImageFix" result="shape"/>
<feGaussianBlur stdDeviation="7.5" result="effect1_foregroundBlur_11115_31757"/>
</filter>
<clipPath id="clip0_11115_31757">
<rect width="56" height="56" fill="white"/>
</clipPath>
</defs>
</svg>
