<svg width="863" height="554" viewBox="0 0 863 554" fill="none" xmlns="http://www.w3.org/2000/svg">
<g opacity="0.8" filter="url(#filter0_f_11562_340467)">
<path opacity="0.2" d="M126.132 441.591L21.6295 381.563C15.5708 377.87 15.4016 365.239 21.4603 361.547L126.132 297.797C140.133 289.264 157.642 289.264 171.652 297.797L276.323 361.555C282.382 365.248 282.213 375.497 276.154 379.19L171.652 441.6C157.65 450.133 140.142 450.133 126.132 441.6V441.591Z" fill="url(#paint0_radial_11562_340467)"/>
<path d="M126.132 410.353L21.6294 349.793C15.5707 346.068 15.4015 333.325 21.4602 329.6L126.132 265.287C140.133 256.678 157.642 256.678 171.652 265.287L276.323 329.609C282.382 333.334 282.213 343.674 276.154 347.399L171.652 410.362C157.65 418.97 140.142 418.97 126.132 410.362V410.353Z" fill="url(#paint1_radial_11562_340467)"/>
<path d="M126.132 377.87L21.6294 318.107C15.5707 314.431 15.4015 301.856 21.4602 298.18L126.132 234.713C140.133 226.217 157.642 226.217 171.652 234.713L276.323 298.189C282.382 301.865 282.213 312.069 276.154 315.745L171.652 377.879C157.65 386.374 140.142 386.374 126.132 377.879V377.87Z" fill="url(#paint2_radial_11562_340467)"/>
<path d="M126.132 377.87L21.6294 318.107C15.5707 314.431 15.4015 301.856 21.4602 298.18L126.132 234.713C140.133 226.217 157.642 226.217 171.652 234.713L276.323 298.189C282.382 301.865 282.213 312.069 276.154 315.745L171.652 377.879C157.65 386.374 140.142 386.374 126.132 377.879V377.87Z" fill="url(#paint3_linear_11562_340467)"/>
<path d="M126.132 347.381L21.6295 287.618C15.5708 283.942 15.4016 271.367 21.4603 267.691L126.132 204.224C140.133 195.728 157.642 195.728 171.652 204.224L276.323 267.699C282.382 271.376 282.213 281.579 276.154 285.256L171.652 347.39C157.65 355.885 140.142 355.885 126.132 347.39V347.381Z" fill="url(#paint4_radial_11562_340467)"/>
<path d="M126.132 347.381L21.6295 287.618C15.5708 283.942 15.4016 271.367 21.4603 267.691L126.132 204.224C140.133 195.728 157.642 195.728 171.652 204.224L276.323 267.699C282.382 271.376 282.213 281.579 276.154 285.256L171.652 347.39C157.65 355.885 140.142 355.885 126.132 347.39V347.381Z" fill="url(#paint5_linear_11562_340467)" fill-opacity="0.3"/>
<path d="M126.132 316.836L21.6295 256.541C15.5708 252.832 15.4016 240.146 21.4603 236.437L126.132 172.406C140.133 163.835 157.642 163.835 171.652 172.406L276.323 236.446C282.382 240.155 282.213 250.449 276.154 254.158L171.652 316.844C157.65 325.415 140.142 325.415 126.132 316.844V316.836Z" fill="url(#paint6_radial_11562_340467)"/>
<path d="M126.132 316.836L21.6295 256.541C15.5708 252.832 15.4016 240.146 21.4603 236.437L126.132 172.406C140.133 163.835 157.642 163.835 171.652 172.406L276.323 236.446C282.382 240.155 282.213 250.449 276.154 254.158L171.652 316.844C157.65 325.415 140.142 325.415 126.132 316.844V316.836Z" fill="url(#paint7_linear_11562_340467)" fill-opacity="0.6"/>
<path d="M126.132 284.989L21.6294 224.96C15.5707 221.268 15.4015 208.637 21.4602 204.945L126.132 141.195C140.133 132.662 157.642 132.662 171.652 141.195L276.323 204.953C282.382 208.646 282.213 218.895 276.154 222.588L171.652 284.998C157.65 293.531 140.142 293.531 126.132 284.998V284.989Z" fill="url(#paint8_radial_11562_340467)"/>
<path d="M126.132 253.864L21.6294 194.367C15.5707 190.707 15.4015 178.188 21.4602 174.528L126.132 111.343C140.133 102.885 157.642 102.885 171.652 111.343L276.323 174.537C282.382 178.197 282.213 188.355 276.154 192.015L171.652 253.873C157.65 262.33 140.142 262.33 126.132 253.873V253.864Z" fill="url(#paint9_radial_11562_340467)"/>
<path d="M126.132 253.864L21.6294 194.367C15.5707 190.707 15.4015 178.188 21.4602 174.528L126.132 111.343C140.133 102.885 157.642 102.885 171.652 111.343L276.323 174.537C282.382 178.197 282.213 188.355 276.154 192.015L171.652 253.873C157.65 262.33 140.142 262.33 126.132 253.873V253.864Z" fill="url(#paint10_radial_11562_340467)"/>
</g>
<g opacity="0.5" filter="url(#filter1_f_11562_340467)">
<path opacity="0.2" d="M653.801 390.592L549.299 330.563C543.241 326.87 543.072 314.24 549.13 310.547L653.801 246.798C667.803 238.265 685.312 238.265 699.322 246.798L803.993 310.556C810.052 314.248 809.883 324.497 803.824 328.19L699.322 390.6C685.32 399.133 667.812 399.133 653.801 390.6V390.592Z" fill="url(#paint11_radial_11562_340467)"/>
<path d="M653.801 359.353L549.299 298.793C543.241 295.068 543.071 282.326 549.13 278.6L653.801 214.287C667.803 205.678 685.312 205.678 699.322 214.287L803.993 278.609C810.052 282.334 809.883 292.674 803.824 296.399L699.322 359.362C685.32 367.97 667.812 367.97 653.801 359.362V359.353Z" fill="url(#paint12_radial_11562_340467)"/>
<path d="M653.801 326.871L549.299 267.107C543.241 263.431 543.071 250.857 549.13 247.18L653.801 183.713C667.803 175.218 685.312 175.218 699.322 183.713L803.993 247.189C810.052 250.865 809.883 261.069 803.824 264.745L699.322 326.879C685.32 335.374 667.812 335.374 653.801 326.879V326.871Z" fill="url(#paint13_radial_11562_340467)"/>
<path d="M653.801 326.871L549.299 267.107C543.241 263.431 543.071 250.857 549.13 247.18L653.801 183.713C667.803 175.218 685.312 175.218 699.322 183.713L803.993 247.189C810.052 250.865 809.883 261.069 803.824 264.745L699.322 326.879C685.32 335.374 667.812 335.374 653.801 326.879V326.871Z" fill="url(#paint14_linear_11562_340467)"/>
<path d="M653.801 296.381L549.299 236.618C543.241 232.942 543.072 220.367 549.13 216.691L653.801 153.224C667.803 144.728 685.312 144.728 699.322 153.224L803.993 216.7C810.052 220.376 809.883 230.58 803.824 234.256L699.322 296.39C685.32 304.885 667.812 304.885 653.801 296.39V296.381Z" fill="url(#paint15_radial_11562_340467)"/>
<path d="M653.801 296.381L549.299 236.618C543.241 232.942 543.072 220.367 549.13 216.691L653.801 153.224C667.803 144.728 685.312 144.728 699.322 153.224L803.993 216.7C810.052 220.376 809.883 230.58 803.824 234.256L699.322 296.39C685.32 304.885 667.812 304.885 653.801 296.39V296.381Z" fill="url(#paint16_linear_11562_340467)" fill-opacity="0.3"/>
<path d="M653.801 265.836L549.299 205.542C543.241 201.833 543.072 189.146 549.13 185.437L653.801 121.406C667.803 112.835 685.312 112.835 699.322 121.406L803.993 185.446C810.052 189.155 809.883 199.449 803.824 203.158L699.322 265.845C685.32 274.415 667.812 274.415 653.801 265.845V265.836Z" fill="url(#paint17_radial_11562_340467)"/>
<path d="M653.801 265.836L549.299 205.542C543.241 201.833 543.072 189.146 549.13 185.437L653.801 121.406C667.803 112.835 685.312 112.835 699.322 121.406L803.993 185.446C810.052 189.155 809.883 199.449 803.824 203.158L699.322 265.845C685.32 274.415 667.812 274.415 653.801 265.845V265.836Z" fill="url(#paint18_linear_11562_340467)" fill-opacity="0.6"/>
<path d="M653.801 233.99L549.299 173.961C543.241 170.268 543.071 157.638 549.13 153.945L653.801 90.1957C667.803 81.6626 685.312 81.6626 699.322 90.1957L803.993 153.954C810.052 157.646 809.883 167.895 803.824 171.588L699.322 233.998C685.32 242.531 667.812 242.531 653.801 233.998V233.99Z" fill="url(#paint19_radial_11562_340467)"/>
<path d="M653.801 202.865L549.299 143.367C543.241 139.707 543.071 127.188 549.13 123.528L653.801 60.3432C667.803 51.8856 685.312 51.8856 699.322 60.3432L803.993 123.537C810.052 127.197 809.883 137.355 803.824 141.015L699.322 202.873C685.32 211.331 667.812 211.331 653.801 202.873V202.865Z" fill="url(#paint20_radial_11562_340467)"/>
<path d="M653.801 202.865L549.299 143.367C543.241 139.707 543.071 127.188 549.13 123.528L653.801 60.3432C667.803 51.8856 685.312 51.8856 699.322 60.3432L803.993 123.537C810.052 127.197 809.883 137.355 803.824 141.015L699.322 202.873C685.32 211.331 667.812 211.331 653.801 202.873V202.865Z" fill="url(#paint21_radial_11562_340467)"/>
</g>
<path opacity="0.2" d="M377.462 543.835L213.274 449.521C203.755 443.719 203.489 423.875 213.008 418.073L377.462 317.914C399.461 304.507 426.969 304.507 448.981 317.914L613.435 418.087C622.954 423.888 622.688 439.991 613.169 445.793L448.981 543.849C426.982 557.255 399.474 557.255 377.462 543.849V543.835Z" fill="url(#paint22_radial_11562_340467)"/>
<path d="M377.462 494.755L213.273 399.606C203.754 393.753 203.489 373.733 213.008 367.88L377.462 266.834C399.461 253.309 426.969 253.309 448.981 266.834L613.435 367.894C622.954 373.747 622.688 389.992 613.169 395.845L448.981 494.768C426.982 508.294 399.474 508.294 377.462 494.768V494.755Z" fill="url(#paint23_radial_11562_340467)"/>
<path d="M377.462 443.72L213.273 349.823C203.754 344.047 203.489 324.29 213.008 318.515L377.462 218.798C399.461 205.451 426.969 205.451 448.981 218.798L613.435 318.528C622.954 324.304 622.688 340.336 613.169 346.112L448.981 443.733C426.982 457.081 399.474 457.081 377.462 443.733V443.72Z" fill="url(#paint24_radial_11562_340467)"/>
<path d="M377.462 443.72L213.273 349.823C203.754 344.047 203.489 324.29 213.008 318.515L377.462 218.798C399.461 205.451 426.969 205.451 448.981 218.798L613.435 318.528C622.954 324.304 622.688 340.336 613.169 346.112L448.981 443.733C426.982 457.081 399.474 457.081 377.462 443.733V443.72Z" fill="url(#paint25_linear_11562_340467)"/>
<path d="M377.462 395.817L213.274 301.92C203.755 296.144 203.489 276.388 213.008 270.612L377.462 170.895C399.461 157.548 426.969 157.548 448.981 170.895L613.435 270.625C622.954 276.401 622.688 292.433 613.169 298.209L448.981 395.83C426.982 409.178 399.474 409.178 377.462 395.83V395.817Z" fill="url(#paint26_radial_11562_340467)"/>
<path d="M377.462 395.817L213.274 301.92C203.755 296.144 203.489 276.388 213.008 270.612L377.462 170.895C399.461 157.548 426.969 157.548 448.981 170.895L613.435 270.625C622.954 276.401 622.688 292.433 613.169 298.209L448.981 395.83C426.982 409.178 399.474 409.178 377.462 395.83V395.817Z" fill="url(#paint27_linear_11562_340467)" fill-opacity="0.3"/>
<path d="M377.462 347.826L213.274 253.094C203.755 247.267 203.489 227.335 213.008 221.508L377.462 120.905C399.461 107.439 426.969 107.439 448.981 120.905L613.435 221.521C622.954 227.348 622.688 243.523 613.169 249.35L448.981 347.839C426.982 361.305 399.474 361.305 377.462 347.839V347.826Z" fill="url(#paint28_radial_11562_340467)"/>
<path d="M377.462 347.826L213.274 253.094C203.755 247.267 203.489 227.335 213.008 221.508L377.462 120.905C399.461 107.439 426.969 107.439 448.981 120.905L613.435 221.521C622.954 227.348 622.688 243.523 613.169 249.35L448.981 347.839C426.982 361.305 399.474 361.305 377.462 347.839V347.826Z" fill="url(#paint29_linear_11562_340467)" fill-opacity="0.6"/>
<path d="M377.462 297.79L213.273 203.476C203.754 197.674 203.489 177.83 213.008 172.028L377.462 71.8687C399.461 58.4621 426.969 58.4621 448.981 71.8687L613.435 172.042C622.954 177.843 622.688 193.947 613.169 199.748L448.981 297.804C426.982 311.21 399.474 311.21 377.462 297.804V297.79Z" fill="url(#paint30_radial_11562_340467)"/>
<path d="M377.462 248.888L213.273 155.409C203.754 149.658 203.489 129.99 213.008 124.239L377.462 24.966C399.461 11.678 426.969 11.678 448.981 24.966L613.435 124.253C622.954 130.003 622.688 145.963 613.169 151.714L448.981 248.901C426.982 262.189 399.474 262.189 377.462 248.901V248.888Z" fill="url(#paint31_radial_11562_340467)"/>
<path d="M377.462 248.888L213.273 155.409C203.754 149.658 203.489 129.99 213.008 124.239L377.462 24.966C399.461 11.678 426.969 11.678 448.981 24.966L613.435 124.253C622.954 130.003 622.688 145.963 613.169 151.714L448.981 248.901C426.982 262.189 399.474 262.189 377.462 248.901V248.888Z" fill="url(#paint32_radial_11562_340467)"/>
<g filter="url(#filter2_f_11562_340467)">
<path d="M460.609 136.3L476.525 94.4746L406.525 101.556L417.594 128.022L460.626 136.284L460.609 136.3ZM465.407 100.796L454.371 129.817L424.504 124.077L416.825 105.711L465.407 100.796Z" fill="url(#paint33_radial_11562_340467)"/>
<path d="M457.531 144.287L458.038 142.977L408.113 133.39L395.276 102.688L393.082 102.914C368.078 105.452 350.132 118.273 349.919 133.746C349.706 151.95 373.94 167.487 404.036 168.473C429.629 169.298 451.865 159.242 457.514 144.303L457.531 144.287Z" fill="url(#paint34_radial_11562_340467)"/>
</g>
<path d="M460.609 128.679L476.525 86.854L406.525 93.9354L417.594 120.402L460.626 128.663L460.609 128.679ZM465.407 93.1755L454.371 122.196L424.504 116.457L416.825 98.0904L465.407 93.1755Z" fill="url(#paint35_radial_11562_340467)"/>
<path d="M457.531 136.666L458.038 135.357L408.113 125.769L395.276 95.0671L393.082 95.2935C368.078 97.8318 350.132 110.653 349.919 126.125C349.706 144.33 373.94 159.867 404.036 160.853C429.629 161.677 451.865 151.621 457.514 136.682L457.531 136.666Z" fill="url(#paint36_radial_11562_340467)"/>
<defs>
<filter id="filter0_f_11562_340467" x="0" y="87.9998" width="297.783" height="377" filterUnits="userSpaceOnUse" color-interpolation-filters="sRGB">
<feFlood flood-opacity="0" result="BackgroundImageFix"/>
<feBlend mode="normal" in="SourceGraphic" in2="BackgroundImageFix" result="shape"/>
<feGaussianBlur stdDeviation="8.5" result="effect1_foregroundBlur_11562_340467"/>
</filter>
<filter id="filter1_f_11562_340467" x="490.67" y="0" width="371.783" height="451" filterUnits="userSpaceOnUse" color-interpolation-filters="sRGB">
<feFlood flood-opacity="0" result="BackgroundImageFix"/>
<feBlend mode="normal" in="SourceGraphic" in2="BackgroundImageFix" result="shape"/>
<feGaussianBlur stdDeviation="27" result="effect1_foregroundBlur_11562_340467"/>
</filter>
<filter id="filter2_f_11562_340467" x="295.918" y="40.4746" width="234.607" height="182.046" filterUnits="userSpaceOnUse" color-interpolation-filters="sRGB">
<feFlood flood-opacity="0" result="BackgroundImageFix"/>
<feBlend mode="normal" in="SourceGraphic" in2="BackgroundImageFix" result="shape"/>
<feGaussianBlur stdDeviation="27" result="effect1_foregroundBlur_11562_340467"/>
</filter>
<radialGradient id="paint0_radial_11562_340467" cx="0" cy="0" r="1" gradientUnits="userSpaceOnUse" gradientTransform="translate(99.8502 343.894) rotate(28.2389) scale(265.505 342.437)">
<stop stop-color="#7CDEFD" stop-opacity="0"/>
<stop offset="0.35558" stop-color="#B6E3FC"/>
<stop offset="1" stop-color="#70B5FD"/>
</radialGradient>
<radialGradient id="paint1_radial_11562_340467" cx="0" cy="0" r="1" gradientUnits="userSpaceOnUse" gradientTransform="translate(56.888 301.353) rotate(26.3561) scale(308.986 400.45)">
<stop stop-color="#D7E4FF" stop-opacity="0"/>
<stop offset="0.35558" stop-color="#C6E0FF"/>
<stop offset="1" stop-color="#BBCDFB"/>
</radialGradient>
<radialGradient id="paint2_radial_11562_340467" cx="0" cy="0" r="1" gradientUnits="userSpaceOnUse" gradientTransform="translate(99.8502 280.606) rotate(32.2994) scale(194.271 175.52)">
<stop stop-color="#B0D5FF"/>
<stop offset="0.203982" stop-color="#81ACFF" stop-opacity="0"/>
<stop offset="1" stop-color="#4971D8"/>
</radialGradient>
<linearGradient id="paint3_linear_11562_340467" x1="96.0314" y1="355.454" x2="292.703" y2="288.942" gradientUnits="userSpaceOnUse">
<stop stop-color="#C1DEFF" stop-opacity="0"/>
<stop offset="1" stop-color="#98B5FF"/>
</linearGradient>
<radialGradient id="paint4_radial_11562_340467" cx="0" cy="0" r="1" gradientUnits="userSpaceOnUse" gradientTransform="translate(82.6653 291.488) rotate(15.4532) scale(234.094 141.765)">
<stop stop-color="#ADD1FF" stop-opacity="0.1"/>
<stop offset="0.365158" stop-color="#7FA3FF"/>
<stop offset="1" stop-color="#627FFB"/>
</radialGradient>
<linearGradient id="paint5_linear_11562_340467" x1="50.205" y1="229.749" x2="280.928" y2="388.869" gradientUnits="userSpaceOnUse">
<stop offset="0.203776" stop-color="#6A4BE6" stop-opacity="0.837211"/>
<stop offset="0.450009" stop-color="#6A4BE6" stop-opacity="0"/>
<stop offset="0.818567" stop-color="#6A4BE6" stop-opacity="0"/>
<stop offset="1" stop-color="#6A4BE6"/>
</linearGradient>
<radialGradient id="paint6_radial_11562_340467" cx="0" cy="0" r="1" gradientUnits="userSpaceOnUse" gradientTransform="translate(141.54 288.942) rotate(-75.595) scale(95.942 209.546)">
<stop offset="0.283113" stop-color="#7492FE" stop-opacity="0.4"/>
<stop offset="0.541102" stop-color="#777CFF"/>
<stop offset="1" stop-color="#4055EB"/>
</radialGradient>
<linearGradient id="paint7_linear_11562_340467" x1="17" y1="251.181" x2="326.436" y2="236.114" gradientUnits="userSpaceOnUse">
<stop offset="0.100017" stop-color="#7445F8"/>
<stop offset="0.340017" stop-color="#5345F8" stop-opacity="0"/>
<stop offset="0.570017" stop-color="#5345F8" stop-opacity="0.9"/>
<stop offset="0.810017" stop-color="#7445F8"/>
</linearGradient>
<radialGradient id="paint8_radial_11562_340467" cx="0" cy="0" r="1" gradientUnits="userSpaceOnUse" gradientTransform="translate(112.262 173.103) rotate(32.2613) scale(261.93 225.513)">
<stop offset="0.178458" stop-color="#8779FA"/>
<stop offset="0.515686" stop-color="#5D46F2"/>
<stop offset="0.971612" stop-color="#485AE9"/>
<stop offset="1" stop-color="#7989FC"/>
</radialGradient>
<radialGradient id="paint9_radial_11562_340467" cx="0" cy="0" r="1" gradientUnits="userSpaceOnUse" gradientTransform="translate(114.807 85.269) rotate(56.6438) scale(181.738 182.139)">
<stop offset="0.0001" stop-color="#ECD4FF"/>
<stop offset="0.490016" stop-color="#9476ED"/>
<stop offset="1" stop-color="#563DEC"/>
</radialGradient>
<radialGradient id="paint10_radial_11562_340467" cx="0" cy="0" r="1" gradientUnits="userSpaceOnUse" gradientTransform="translate(133.584 89.4061) rotate(70.4203) scale(115.855 196.891)">
<stop stop-color="#E3BBF9"/>
<stop offset="1" stop-color="#E3BBF9" stop-opacity="0"/>
</radialGradient>
<radialGradient id="paint11_radial_11562_340467" cx="0" cy="0" r="1" gradientUnits="userSpaceOnUse" gradientTransform="translate(627.52 292.895) rotate(28.2389) scale(265.505 342.437)">
<stop stop-color="#7CDEFD" stop-opacity="0"/>
<stop offset="0.35558" stop-color="#B6E3FC"/>
<stop offset="1" stop-color="#70B5FD"/>
</radialGradient>
<radialGradient id="paint12_radial_11562_340467" cx="0" cy="0" r="1" gradientUnits="userSpaceOnUse" gradientTransform="translate(584.558 250.353) rotate(26.3561) scale(308.986 400.45)">
<stop stop-color="#D7E4FF" stop-opacity="0"/>
<stop offset="0.35558" stop-color="#C6E0FF"/>
<stop offset="1" stop-color="#BBCDFB"/>
</radialGradient>
<radialGradient id="paint13_radial_11562_340467" cx="0" cy="0" r="1" gradientUnits="userSpaceOnUse" gradientTransform="translate(627.52 229.606) rotate(32.2994) scale(194.271 175.52)">
<stop stop-color="#B0D5FF"/>
<stop offset="0.203982" stop-color="#81ACFF" stop-opacity="0"/>
<stop offset="1" stop-color="#4971D8"/>
</radialGradient>
<linearGradient id="paint14_linear_11562_340467" x1="623.701" y1="304.454" x2="820.373" y2="237.942" gradientUnits="userSpaceOnUse">
<stop stop-color="#C1DEFF" stop-opacity="0"/>
<stop offset="1" stop-color="#98B5FF"/>
</linearGradient>
<radialGradient id="paint15_radial_11562_340467" cx="0" cy="0" r="1" gradientUnits="userSpaceOnUse" gradientTransform="translate(610.335 240.488) rotate(15.4532) scale(234.094 141.765)">
<stop stop-color="#ADD1FF" stop-opacity="0.1"/>
<stop offset="0.365158" stop-color="#7FA3FF"/>
<stop offset="1" stop-color="#627FFB"/>
</radialGradient>
<linearGradient id="paint16_linear_11562_340467" x1="577.875" y1="178.75" x2="808.598" y2="337.869" gradientUnits="userSpaceOnUse">
<stop offset="0.203776" stop-color="#6A4BE6" stop-opacity="0.837211"/>
<stop offset="0.450009" stop-color="#6A4BE6" stop-opacity="0"/>
<stop offset="0.818567" stop-color="#6A4BE6" stop-opacity="0"/>
<stop offset="1" stop-color="#6A4BE6"/>
</linearGradient>
<radialGradient id="paint17_radial_11562_340467" cx="0" cy="0" r="1" gradientUnits="userSpaceOnUse" gradientTransform="translate(669.209 237.942) rotate(-75.595) scale(95.942 209.546)">
<stop offset="0.283113" stop-color="#7492FE" stop-opacity="0.4"/>
<stop offset="0.541102" stop-color="#777CFF"/>
<stop offset="1" stop-color="#4055EB"/>
</radialGradient>
<linearGradient id="paint18_linear_11562_340467" x1="544.67" y1="200.181" x2="854.106" y2="185.114" gradientUnits="userSpaceOnUse">
<stop offset="0.100017" stop-color="#7445F8"/>
<stop offset="0.340017" stop-color="#5345F8" stop-opacity="0"/>
<stop offset="0.570017" stop-color="#5345F8" stop-opacity="0.9"/>
<stop offset="0.810017" stop-color="#7445F8"/>
</linearGradient>
<radialGradient id="paint19_radial_11562_340467" cx="0" cy="0" r="1" gradientUnits="userSpaceOnUse" gradientTransform="translate(639.931 122.103) rotate(32.2613) scale(261.93 225.513)">
<stop offset="0.178458" stop-color="#8779FA"/>
<stop offset="0.515686" stop-color="#5D46F2"/>
<stop offset="0.971612" stop-color="#485AE9"/>
<stop offset="1" stop-color="#7989FC"/>
</radialGradient>
<radialGradient id="paint20_radial_11562_340467" cx="0" cy="0" r="1" gradientUnits="userSpaceOnUse" gradientTransform="translate(642.477 34.2692) rotate(56.6438) scale(181.738 182.139)">
<stop offset="0.0001" stop-color="#ECD4FF"/>
<stop offset="0.490016" stop-color="#9476ED"/>
<stop offset="1" stop-color="#563DEC"/>
</radialGradient>
<radialGradient id="paint21_radial_11562_340467" cx="0" cy="0" r="1" gradientUnits="userSpaceOnUse" gradientTransform="translate(661.253 38.4063) rotate(70.4203) scale(115.855 196.891)">
<stop stop-color="#E3BBF9"/>
<stop offset="1" stop-color="#E3BBF9" stop-opacity="0"/>
</radialGradient>
<radialGradient id="paint22_radial_11562_340467" cx="0" cy="0" r="1" gradientUnits="userSpaceOnUse" gradientTransform="translate(336.17 390.339) rotate(28.2389) scale(417.148 538.02)">
<stop stop-color="#7CDEFD" stop-opacity="0"/>
<stop offset="0.35558" stop-color="#B6E3FC"/>
<stop offset="1" stop-color="#70B5FD"/>
</radialGradient>
<radialGradient id="paint23_radial_11562_340467" cx="0" cy="0" r="1" gradientUnits="userSpaceOnUse" gradientTransform="translate(268.67 323.5) rotate(26.3561) scale(485.463 629.166)">
<stop stop-color="#D7E4FF" stop-opacity="0"/>
<stop offset="0.35558" stop-color="#C6E0FF"/>
<stop offset="1" stop-color="#BBCDFB"/>
</radialGradient>
<radialGradient id="paint24_radial_11562_340467" cx="0" cy="0" r="1" gradientUnits="userSpaceOnUse" gradientTransform="translate(336.17 290.903) rotate(32.2994) scale(305.229 275.768)">
<stop stop-color="#B0D5FF"/>
<stop offset="0.203982" stop-color="#81ACFF" stop-opacity="0"/>
<stop offset="1" stop-color="#4971D8"/>
</radialGradient>
<linearGradient id="paint25_linear_11562_340467" x1="330.17" y1="408.5" x2="639.17" y2="304" gradientUnits="userSpaceOnUse">
<stop stop-color="#C1DEFF" stop-opacity="0"/>
<stop offset="1" stop-color="#98B5FF"/>
</linearGradient>
<radialGradient id="paint26_radial_11562_340467" cx="0" cy="0" r="1" gradientUnits="userSpaceOnUse" gradientTransform="translate(309.17 308) rotate(15.4532) scale(367.797 222.734)">
<stop stop-color="#ADD1FF" stop-opacity="0.1"/>
<stop offset="0.365158" stop-color="#7FA3FF"/>
<stop offset="1" stop-color="#627FFB"/>
</radialGradient>
<linearGradient id="paint27_linear_11562_340467" x1="258.17" y1="211" x2="620.67" y2="461" gradientUnits="userSpaceOnUse">
<stop offset="0.203776" stop-color="#6A4BE6" stop-opacity="0.837211"/>
<stop offset="0.450009" stop-color="#6A4BE6" stop-opacity="0"/>
<stop offset="0.818567" stop-color="#6A4BE6" stop-opacity="0"/>
<stop offset="1" stop-color="#6A4BE6"/>
</linearGradient>
<radialGradient id="paint28_radial_11562_340467" cx="0" cy="0" r="1" gradientUnits="userSpaceOnUse" gradientTransform="translate(401.67 304) rotate(-75.595) scale(150.739 329.227)">
<stop offset="0.283113" stop-color="#7492FE" stop-opacity="0.4"/>
<stop offset="0.541102" stop-color="#777CFF"/>
<stop offset="1" stop-color="#4055EB"/>
</radialGradient>
<linearGradient id="paint29_linear_11562_340467" x1="206" y1="244.672" x2="692.17" y2="221" gradientUnits="userSpaceOnUse">
<stop offset="0.100017" stop-color="#7445F8"/>
<stop offset="0.340017" stop-color="#5345F8" stop-opacity="0"/>
<stop offset="0.570017" stop-color="#5345F8" stop-opacity="0.9"/>
<stop offset="0.810017" stop-color="#7445F8"/>
</linearGradient>
<radialGradient id="paint30_radial_11562_340467" cx="0" cy="0" r="1" gradientUnits="userSpaceOnUse" gradientTransform="translate(355.67 122) rotate(32.2613) scale(411.531 354.314)">
<stop offset="0.178458" stop-color="#8779FA"/>
<stop offset="0.515686" stop-color="#5D46F2"/>
<stop offset="0.971612" stop-color="#485AE9"/>
<stop offset="1" stop-color="#7989FC"/>
</radialGradient>
<radialGradient id="paint31_radial_11562_340467" cx="0" cy="0" r="1" gradientUnits="userSpaceOnUse" gradientTransform="translate(359.67 -16) rotate(56.6438) scale(285.537 286.167)">
<stop offset="0.0001" stop-color="#ECD4FF"/>
<stop offset="0.490016" stop-color="#9476ED"/>
<stop offset="1" stop-color="#563DEC"/>
</radialGradient>
<radialGradient id="paint32_radial_11562_340467" cx="0" cy="0" r="1" gradientUnits="userSpaceOnUse" gradientTransform="translate(389.17 -9.49998) rotate(70.4203) scale(182.025 309.345)">
<stop stop-color="#E3BBF9"/>
<stop offset="1" stop-color="#E3BBF9" stop-opacity="0"/>
</radialGradient>
<radialGradient id="paint33_radial_11562_340467" cx="0" cy="0" r="1" gradientUnits="userSpaceOnUse" gradientTransform="translate(441.525 115.387) rotate(90) scale(20.9127 34.9998)">
<stop stop-color="white"/>
<stop offset="1" stop-color="white" stop-opacity="0.6"/>
</radialGradient>
<radialGradient id="paint34_radial_11562_340467" cx="0" cy="0" r="1" gradientUnits="userSpaceOnUse" gradientTransform="translate(403.978 135.604) rotate(90) scale(32.9165 54.0601)">
<stop stop-color="white"/>
<stop offset="1" stop-color="white" stop-opacity="0.6"/>
</radialGradient>
<radialGradient id="paint35_radial_11562_340467" cx="0" cy="0" r="1" gradientUnits="userSpaceOnUse" gradientTransform="translate(441.525 107.767) rotate(90) scale(20.9127 34.9998)">
<stop stop-color="white"/>
<stop offset="1" stop-color="white" stop-opacity="0.6"/>
</radialGradient>
<radialGradient id="paint36_radial_11562_340467" cx="0" cy="0" r="1" gradientUnits="userSpaceOnUse" gradientTransform="translate(403.978 127.984) rotate(90) scale(32.9165 54.0601)">
<stop stop-color="white"/>
<stop offset="1" stop-color="white" stop-opacity="0.6"/>
</radialGradient>
</defs>
</svg>
