<svg viewBox="0 0 590 129" fill="none" xmlns="http://www.w3.org/2000/svg">
<path fill-rule="evenodd" clip-rule="evenodd" d="M19.154 24.2957L20.5736 25.7045L3.40949 43.0001L20.5736 60.2957L19.154 61.7045L0.591797 43.0001L19.154 24.2957Z" fill="black"/>
<path fill-rule="evenodd" clip-rule="evenodd" d="M571.354 100.704L569.934 99.2955L587.098 81.9999L569.934 64.7043L571.354 63.2955L589.916 81.9999L571.354 100.704Z" fill="black"/>
<path fill-rule="evenodd" clip-rule="evenodd" d="M230.252 2.00007L103.225 129L101.822 127.575L228.849 0.57496L230.252 2.00007Z" fill="black"/>
<path d="M133.287 60.0751V27.675H143.201C143.529 27.675 144.102 27.6825 144.92 27.6975C145.739 27.7125 146.521 27.7725 147.265 27.8775C149.751 28.2075 151.828 29.1226 153.495 30.6226C155.177 32.1076 156.442 33.9975 157.291 36.2925C158.139 38.5875 158.563 41.115 158.563 43.875C158.563 46.635 158.139 49.1625 157.291 51.4576C156.442 53.7526 155.177 55.6501 153.495 57.1501C151.828 58.6351 149.751 59.5426 147.265 59.8726C146.521 59.9626 145.732 60.0226 144.898 60.0526C144.079 60.0676 143.514 60.0751 143.201 60.0751H133.287ZM137.373 56.25H143.201C143.767 56.25 144.399 56.2351 145.099 56.2051C145.799 56.1601 146.409 56.0926 146.93 56.0026C148.687 55.6726 150.108 54.9301 151.195 53.7751C152.282 52.6201 153.078 51.1801 153.584 49.4551C154.09 47.7301 154.343 45.8701 154.343 43.875C154.343 41.835 154.083 39.9526 153.562 38.2276C153.056 36.5026 152.259 35.07 151.173 33.93C150.086 32.7901 148.672 32.0625 146.93 31.7475C146.409 31.6425 145.791 31.575 145.077 31.545C144.362 31.515 143.737 31.5 143.201 31.5H137.373V56.25Z" fill="black"/>
<path d="M123.953 60.0751V27.675H127.928V60.0751H123.953Z" fill="black"/>
<path d="M102.18 60.0751V27.675H106.154V56.2725H121.07V60.0751H102.18Z" fill="black"/>
<path d="M79.3198 60.0751V46.5975L68.4902 27.675H73.1123L81.3294 42.0075L89.5241 27.675H94.1462L83.339 46.5975V60.0751H79.3198Z" fill="black"/>
<path d="M46.6582 60.0751V27.675H59.1848C61.105 27.675 62.7425 28.0725 64.0971 28.8675C65.4666 29.6625 66.5087 30.7125 67.2232 32.0175C67.9526 33.3075 68.3173 34.7025 68.3173 36.2025C68.3173 37.9575 67.8707 39.495 66.9776 40.815C66.0844 42.135 64.8786 43.0426 63.3603 43.5376L63.3156 42.4351C65.3848 42.9901 66.9924 44.01 68.1387 45.495C69.2849 46.98 69.858 48.75 69.858 50.805C69.858 52.695 69.471 54.33 68.6969 55.71C67.9377 57.09 66.8361 58.1626 65.3922 58.9276C63.9631 59.6926 62.2661 60.0751 60.3012 60.0751H46.6582ZM50.6774 56.25H59.542C60.7329 56.25 61.7972 56.0325 62.7351 55.5975C63.6729 55.1475 64.4097 54.5175 64.9456 53.7076C65.4964 52.8976 65.7718 51.9226 65.7718 50.7826C65.7718 49.6876 65.5262 48.705 65.0349 47.835C64.5586 46.965 63.8813 46.275 63.003 45.765C62.1396 45.24 61.1348 44.9776 59.9886 44.9776H50.6774V56.25ZM50.6774 41.1975H59.1401C60.0928 41.1975 60.9487 40.995 61.7079 40.59C62.482 40.17 63.0923 39.585 63.5389 38.835C64.0004 38.085 64.2311 37.2075 64.2311 36.2025C64.2311 34.8075 63.7622 33.6675 62.8244 32.7825C61.8866 31.8975 60.6585 31.455 59.1401 31.455H50.6774V41.1975Z" fill="black"/>
<path fill-rule="evenodd" clip-rule="evenodd" d="M190.316 40.2411C190.042 38.3677 189.546 36.6465 188.827 35.0775C187.666 32.5425 185.969 30.5625 183.736 29.1375C181.503 27.7125 178.779 27 175.564 27C172.363 27 169.646 27.7125 167.414 29.1375C165.181 30.5625 163.476 32.5425 162.3 35.0775C161.139 37.6125 160.559 40.545 160.559 43.875C160.559 47.205 161.139 50.1375 162.3 52.6725C163.476 55.2075 165.181 57.1875 167.414 58.6125C168.393 59.2376 169.466 59.7256 170.631 60.0765L173.867 56.816C172.206 56.6044 170.769 56.0857 169.557 55.26C167.964 54.15 166.766 52.62 165.962 50.67C165.158 48.72 164.764 46.455 164.779 43.875C164.794 41.28 165.203 39 166.007 37.035C166.811 35.07 168.002 33.54 169.58 32.445C171.172 31.35 173.167 30.81 175.564 30.825C177.96 30.84 179.955 31.395 181.548 32.49C183.156 33.585 184.354 35.1075 185.143 37.0575C185.947 39.0075 186.349 41.28 186.349 43.875C186.349 43.9979 186.348 44.1201 186.346 44.2415L190.316 40.2411Z" fill="black"/>
<path d="M543.508 99.0001V66.6001H547.482V95.1976H562.398V99.0001H543.508Z" fill="black"/>
<path d="M524.911 99.675C521.711 99.675 518.994 98.9625 516.761 97.5375C514.528 96.1125 512.824 94.1325 511.648 91.5975C510.487 89.0625 509.906 86.13 509.906 82.8C509.906 79.47 510.487 76.5375 511.648 74.0025C512.824 71.4675 514.528 69.4875 516.761 68.0625C518.994 66.6375 521.711 65.925 524.911 65.925C528.127 65.925 530.851 66.6375 533.084 68.0625C535.317 69.4875 537.014 71.4675 538.175 74.0025C539.336 76.5375 539.916 79.47 539.916 82.8C539.916 86.13 539.336 89.0625 538.175 91.5975C537.014 94.1325 535.317 96.1125 533.084 97.5375C530.851 98.9625 528.127 99.675 524.911 99.675ZM524.911 95.85C527.308 95.865 529.303 95.325 530.895 94.23C532.503 93.12 533.701 91.5826 534.49 89.6175C535.294 87.6525 535.696 85.38 535.696 82.8C535.696 80.205 535.294 77.9325 534.49 75.9825C533.701 74.0325 532.503 72.51 530.895 71.415C529.303 70.32 527.308 69.765 524.911 69.75C522.515 69.735 520.52 70.275 518.927 71.37C517.349 72.465 516.158 73.995 515.355 75.96C514.551 77.925 514.141 80.205 514.126 82.8C514.112 85.38 514.506 87.6451 515.31 89.5951C516.114 91.5451 517.312 93.0751 518.905 94.1851C520.513 95.2801 522.515 95.835 524.911 95.85Z" fill="black"/>
<path d="M493.98 99.675C490.779 99.675 488.062 98.9625 485.83 97.5375C483.597 96.1125 481.892 94.1325 480.716 91.5975C479.555 89.0625 478.975 86.13 478.975 82.8C478.975 79.47 479.555 76.5375 480.716 74.0025C481.892 71.4675 483.597 69.4875 485.83 68.0625C488.062 66.6375 490.779 65.925 493.98 65.925C497.701 65.925 500.76 66.8775 503.157 68.7825C505.568 70.6875 507.228 73.2525 508.136 76.4775L504.095 77.5575C503.44 75.1425 502.271 73.2375 500.589 71.8425C498.907 70.4475 496.704 69.75 493.98 69.75C491.583 69.75 489.588 70.2975 487.996 71.3925C486.403 72.4875 485.204 74.0175 484.401 75.9825C483.597 77.9325 483.187 80.205 483.172 82.8C483.158 85.38 483.552 87.6525 484.356 89.6175C485.16 91.5676 486.365 93.0975 487.973 94.2076C489.581 95.3026 491.583 95.85 493.98 95.85C496.704 95.85 498.907 95.1525 500.589 93.7575C502.271 92.3475 503.44 90.4425 504.095 88.0425L508.136 89.1226C507.228 92.3326 505.568 94.8976 503.157 96.8176C500.76 98.7225 497.701 99.675 493.98 99.675Z" fill="black"/>
<path d="M462.611 99.675C459.41 99.675 456.693 98.9625 454.46 97.5375C452.228 96.1125 450.523 94.1325 449.347 91.5975C448.186 89.0625 447.605 86.13 447.605 82.8C447.605 79.47 448.186 76.5375 449.347 74.0025C450.523 71.4675 452.228 69.4875 454.46 68.0625C456.693 66.6375 459.41 65.925 462.611 65.925C465.826 65.925 468.55 66.6375 470.783 68.0625C473.016 69.4875 474.713 71.4675 475.874 74.0025C477.035 76.5375 477.616 79.47 477.616 82.8C477.616 86.13 477.035 89.0625 475.874 91.5975C474.713 94.1325 473.016 96.1125 470.783 97.5375C468.55 98.9625 465.826 99.675 462.611 99.675ZM462.611 95.85C465.007 95.865 467.002 95.325 468.595 94.23C470.202 93.12 471.401 91.5826 472.19 89.6175C472.993 87.6525 473.395 85.38 473.395 82.8C473.395 80.205 472.993 77.9325 472.19 75.9825C471.401 74.0325 470.202 72.51 468.595 71.415C467.002 70.32 465.007 69.765 462.611 69.75C460.214 69.735 458.219 70.275 456.626 71.37C455.048 72.465 453.858 73.995 453.054 75.96C452.25 77.925 451.841 80.205 451.826 82.8C451.811 85.38 452.205 87.6451 453.009 89.5951C453.813 91.5451 455.011 93.0751 456.604 94.1851C458.212 95.2801 460.214 95.835 462.611 95.85Z" fill="black"/>
<path d="M432.239 99.0001V70.4026H421.275V66.6001H447.177V70.4026H436.213V99.0001H432.239Z" fill="black"/>
<path d="M406.677 99.675C403.476 99.675 400.76 98.9625 398.527 97.5375C396.294 96.1125 394.59 94.1325 393.414 91.5975C392.252 89.0625 391.672 86.13 391.672 82.8C391.672 79.47 392.252 76.5375 393.414 74.0025C394.59 71.4675 396.294 69.4875 398.527 68.0625C400.76 66.6375 403.476 65.925 406.677 65.925C409.892 65.925 412.616 66.6375 414.849 68.0625C417.082 69.4875 418.779 71.4675 419.94 74.0025C421.101 76.5375 421.682 79.47 421.682 82.8C421.682 86.13 421.101 89.0625 419.94 91.5975C418.779 94.1325 417.082 96.1125 414.849 97.5375C412.616 98.9625 409.892 99.675 406.677 99.675ZM406.677 95.85C409.074 95.865 411.068 95.325 412.661 94.23C414.269 93.12 415.467 91.5826 416.256 89.6175C417.06 87.6525 417.462 85.38 417.462 82.8C417.462 80.205 417.06 77.9325 416.256 75.9825C415.467 74.0325 414.269 72.51 412.661 71.415C411.068 70.32 409.074 69.765 406.677 69.75C404.28 69.735 402.286 70.275 400.693 71.37C399.115 72.465 397.924 73.995 397.12 75.96C396.316 77.925 395.907 80.205 395.892 82.8C395.877 85.38 396.272 87.6451 397.075 89.5951C397.879 91.5451 399.078 93.0751 400.67 94.1851C402.278 95.2801 404.28 95.835 406.677 95.85Z" fill="black"/>
<path d="M366.188 99.0001V66.6001H378.893C379.205 66.6001 379.577 66.6151 380.009 66.6451C380.441 66.6601 380.858 66.7051 381.26 66.7801C383.001 67.0501 384.46 67.6501 385.636 68.5801C386.827 69.5101 387.72 70.6876 388.316 72.1126C388.911 73.5226 389.209 75.0901 389.209 76.8151C389.209 79.3201 388.561 81.4951 387.266 83.3401C385.971 85.1701 384.073 86.3176 381.572 86.7826L380.054 87.0301H370.162V99.0001H366.188ZM385.323 99.0001L378.982 85.8151L382.912 84.6001L389.879 99.0001H385.323ZM370.162 83.2276H378.759C379.042 83.2276 379.362 83.2126 379.719 83.1826C380.091 83.1526 380.441 83.1001 380.768 83.0251C381.795 82.7851 382.629 82.3501 383.269 81.7201C383.924 81.0751 384.401 80.3251 384.698 79.4701C384.996 78.6001 385.145 77.7151 385.145 76.8151C385.145 75.9151 384.996 75.0376 384.698 74.1826C384.401 73.3126 383.924 72.5551 383.269 71.9101C382.629 71.2651 381.795 70.8301 380.768 70.6051C380.441 70.5151 380.091 70.4626 379.719 70.4476C379.362 70.4176 379.042 70.4026 378.759 70.4026H370.162V83.2276Z" fill="black"/>
<path d="M340.053 99.0001V66.6001H352.758C353.071 66.6001 353.443 66.6151 353.874 66.6451C354.306 66.6601 354.723 66.7051 355.125 66.7801C356.866 67.0501 358.325 67.6501 359.501 68.5801C360.692 69.5101 361.585 70.6876 362.181 72.1126C362.776 73.5226 363.074 75.0901 363.074 76.8151C363.074 78.5251 362.769 80.0926 362.158 81.5176C361.563 82.9276 360.67 84.1051 359.479 85.0501C358.303 85.9801 356.852 86.5801 355.125 86.8501C354.723 86.9101 354.306 86.9551 353.874 86.9851C353.443 87.0151 353.071 87.0301 352.758 87.0301H344.027V99.0001H340.053ZM344.027 83.2276H352.624C352.907 83.2276 353.227 83.2126 353.584 83.1826C353.956 83.1526 354.306 83.1001 354.634 83.0251C355.661 82.7851 356.494 82.3501 357.134 81.7201C357.789 81.0751 358.266 80.3251 358.563 79.4701C358.861 78.6001 359.01 77.7151 359.01 76.8151C359.01 75.9151 358.861 75.0376 358.563 74.1826C358.266 73.3126 357.789 72.5551 357.134 71.9101C356.494 71.2651 355.661 70.8301 354.634 70.6051C354.306 70.5151 353.956 70.4626 353.584 70.4476C353.227 70.4176 352.907 70.4026 352.624 70.4026H344.027V83.2276Z" fill="black"/>
<path d="M307.329 99.675C305.126 99.675 303.117 99.285 301.301 98.505C299.485 97.725 297.922 96.6075 296.612 95.1525C295.302 93.6825 294.289 91.9125 293.575 89.8425C292.875 87.7575 292.525 85.41 292.525 82.8C292.525 79.35 293.136 76.365 294.356 73.845C295.577 71.325 297.296 69.3825 299.514 68.0175C301.732 66.6375 304.337 65.9475 307.329 65.9475C310.932 65.9475 313.835 66.795 316.038 68.49C318.241 70.17 319.759 72.4725 320.593 75.3975L316.574 76.23C315.904 74.265 314.802 72.6975 313.269 71.5275C311.736 70.3575 309.823 69.7725 307.53 69.7725C305.134 69.7575 303.139 70.2975 301.546 71.3925C299.968 72.4725 298.777 73.995 297.974 75.96C297.17 77.925 296.76 80.205 296.746 82.8C296.731 85.38 297.125 87.645 297.929 89.595C298.733 91.545 299.931 93.075 301.524 94.185C303.132 95.28 305.134 95.835 307.53 95.85C309.6 95.865 311.341 95.4675 312.755 94.6575C314.17 93.8475 315.264 92.6775 316.038 91.1475C316.812 89.6175 317.281 87.78 317.445 85.635H310.612V82.3275H321.642C321.687 82.6275 321.709 82.9875 321.709 83.4075C321.724 83.8125 321.732 84.09 321.732 84.24C321.732 87.195 321.181 89.8425 320.079 92.1825C318.993 94.5075 317.378 96.3375 315.234 97.6725C313.105 99.0075 310.47 99.675 307.329 99.675Z" fill="black"/>
<path d="M264.6 99.0001V66.6001H268.619L285.388 91.9126V66.6001H289.407V99.0001H285.388L268.619 73.6651V99.0001H264.6Z" fill="black"/>
<path d="M255.266 99.0001V66.6001H259.24V99.0001H255.266Z" fill="black"/>
<path d="M228.857 99.0001V66.6001H232.832V81.8101L246.899 66.6001H251.901L237.298 82.3276L253.04 99.0001H247.904L232.832 83.1601V99.0001H228.857Z" fill="black"/>
<path d="M199.139 99.0001L209.901 66.6001H215.439L226.201 99.0001H222.071L212 68.9401H213.251L203.27 99.0001H199.139ZM204.319 91.4176V87.6601H221.021V91.4176H204.319Z" fill="black"/>
<path d="M185.09 99.0001V70.4026H174.127V66.6001H200.029V70.4026H189.065V99.0001H185.09Z" fill="black"/>
<path fill-rule="evenodd" clip-rule="evenodd" d="M151.644 80.2109C151.71 80.2803 151.778 80.3483 151.847 80.415C152.502 81.03 153.246 81.5475 154.08 81.9675C154.914 82.3725 155.777 82.71 156.67 82.98L164.865 85.4325C165.445 85.5975 166.004 85.8075 166.54 86.0625C167.075 86.3175 167.552 86.6325 167.969 87.0075C168.4 87.3675 168.735 87.81 168.973 88.335C169.226 88.845 169.353 89.46 169.353 90.18C169.353 91.35 169.011 92.3625 168.326 93.2175C167.641 94.0725 166.711 94.7325 165.535 95.1975C164.374 95.6475 163.071 95.8725 161.627 95.8725C159.394 95.8725 157.452 95.3025 155.799 94.1625C154.162 93.0075 153.083 91.41 152.562 89.37L148.453 90.0225C148.81 92.0025 149.577 93.72 150.753 95.175C151.944 96.615 153.447 97.725 155.263 98.505C157.094 99.285 159.149 99.675 161.426 99.675C163.093 99.675 164.657 99.4575 166.115 99.0225C167.574 98.6025 168.854 97.9875 169.956 97.1775C171.057 96.3525 171.913 95.3325 172.524 94.1175C173.149 92.9025 173.462 91.515 173.462 89.955C173.462 88.395 173.179 87.105 172.613 86.085C172.047 85.05 171.333 84.225 170.469 83.61C169.606 82.98 168.713 82.4925 167.79 82.1475C166.882 81.8025 166.078 81.5325 165.378 81.3375L159.26 79.56C158.471 79.335 157.66 79.05 156.826 78.705C156.008 78.345 155.316 77.865 154.75 77.265C154.72 77.233 154.692 77.2005 154.664 77.1675L151.644 80.2109ZM161.962 69.8138C162.931 69.9232 163.839 70.1719 164.686 70.56C165.832 71.07 166.785 71.805 167.544 72.765C168.318 73.71 168.817 74.8425 169.04 76.1625L173.261 75.42C172.874 73.455 172.114 71.7675 170.983 70.3575C169.867 68.9475 168.452 67.8675 166.741 67.1175C166.248 66.8954 165.736 66.705 165.205 66.5461L161.962 69.8138Z" fill="black"/>
</svg>
