<svg width="80" height="80" viewBox="0 0 80 80" fill="none" xmlns="http://www.w3.org/2000/svg">
<g clip-path="url(#clip0_4444_1834)">
<g opacity="0.5" filter="url(#filter0_f_4444_1834)">
<path d="M43.5 61C57.5833 61 69 49.5833 69 35.5C69 21.4167 57.5833 10 43.5 10C29.4167 10 18 21.4167 18 35.5C18 49.5833 29.4167 61 43.5 61Z" fill="url(#paint0_radial_4444_1834)"/>
<path d="M46.8261 56.8823C58.5913 56.8823 68.1289 47.327 68.1289 35.5399C68.1289 23.7528 58.5913 14.1975 46.8261 14.1975C35.0609 14.1975 25.5233 23.7528 25.5233 35.5399C25.5233 47.327 35.0609 56.8823 46.8261 56.8823Z" fill="url(#paint1_radial_4444_1834)"/>
<path d="M43.0644 51.4179C51.8774 51.4179 59.0218 44.2913 59.0218 35.5002C59.0218 26.7091 51.8774 19.5825 43.0644 19.5825C34.2515 19.5825 27.1071 26.7091 27.1071 35.5002C27.1071 44.2913 34.2515 51.4179 43.0644 51.4179Z" fill="url(#paint2_radial_4444_1834)"/>
<path d="M37.2834 43.8944C41.8976 43.8944 45.6382 40.1539 45.6382 35.5396C45.6382 30.9254 41.8976 27.1848 37.2834 27.1848C32.6692 27.1848 28.9286 30.9254 28.9286 35.5396C28.9286 40.1539 32.6692 43.8944 37.2834 43.8944Z" fill="url(#paint3_radial_4444_1834)"/>
</g>
<path d="M40 65C53.8071 65 65 53.8071 65 40C65 26.1929 53.8071 15 40 15C26.1929 15 15 26.1929 15 40C15 53.8071 26.1929 65 40 65Z" fill="url(#paint4_radial_4444_1834)"/>
<path d="M43.2609 60.9631C54.7954 60.9631 64.146 51.5951 64.146 40.0392C64.146 28.4832 54.7954 19.1152 43.2609 19.1152C31.7263 19.1152 22.3757 28.4832 22.3757 40.0392C22.3757 51.5951 31.7263 60.9631 43.2609 60.9631Z" fill="url(#paint5_radial_4444_1834)"/>
<path d="M39.573 55.6057C48.2132 55.6057 55.2175 48.6188 55.2175 40.0001C55.2175 31.3814 48.2132 24.3945 39.573 24.3945C30.9328 24.3945 23.9286 31.3814 23.9286 40.0001C23.9286 48.6188 30.9328 55.6057 39.573 55.6057Z" fill="url(#paint6_radial_4444_1834)"/>
<path d="M33.9053 48.2299C38.4291 48.2299 42.0963 44.5627 42.0963 40.0389C42.0963 35.5151 38.4291 31.8479 33.9053 31.8479C29.3815 31.8479 25.7143 35.5151 25.7143 40.0389C25.7143 44.5627 29.3815 48.2299 33.9053 48.2299Z" fill="url(#paint7_radial_4444_1834)"/>
</g>
<defs>
<filter id="filter0_f_4444_1834" x="4" y="-4" width="79" height="79" filterUnits="userSpaceOnUse" color-interpolation-filters="sRGB">
<feFlood flood-opacity="0" result="BackgroundImageFix"/>
<feBlend mode="normal" in="SourceGraphic" in2="BackgroundImageFix" result="shape"/>
<feGaussianBlur stdDeviation="7" result="effect1_foregroundBlur_4444_1834"/>
</filter>
<radialGradient id="paint0_radial_4444_1834" cx="0" cy="0" r="1" gradientUnits="userSpaceOnUse" gradientTransform="translate(43.5 35.5) rotate(90) scale(25.5)">
<stop stop-color="#0E122B"/>
<stop offset="0.252894" stop-color="#131D52"/>
<stop offset="0.608015" stop-color="#2750AA"/>
<stop offset="0.927083" stop-color="#A3EAFF"/>
<stop offset="1" stop-color="white"/>
</radialGradient>
<radialGradient id="paint1_radial_4444_1834" cx="0" cy="0" r="1" gradientUnits="userSpaceOnUse" gradientTransform="translate(46.8261 35.5399) rotate(90) scale(21.3424 21.3028)">
<stop stop-color="#F85F97"/>
<stop offset="0.546875" stop-color="#330E18"/>
<stop offset="1" stop-color="#F00A38"/>
</radialGradient>
<radialGradient id="paint2_radial_4444_1834" cx="0" cy="0" r="1" gradientUnits="userSpaceOnUse" gradientTransform="translate(43.0644 35.5002) rotate(90) scale(15.9177 15.9573)">
<stop stop-color="#23164B"/>
<stop offset="0.489583" stop-color="#15105D"/>
<stop offset="0.939782" stop-color="#2D68C6"/>
<stop offset="1" stop-color="white"/>
</radialGradient>
<radialGradient id="paint3_radial_4444_1834" cx="0" cy="0" r="1" gradientUnits="userSpaceOnUse" gradientTransform="translate(37.2834 35.5396) rotate(90) scale(8.35482)">
<stop stop-color="#BB2354"/>
<stop offset="0.557292" stop-color="#CE2C65"/>
<stop offset="1" stop-color="#FF94CE"/>
</radialGradient>
<radialGradient id="paint4_radial_4444_1834" cx="0" cy="0" r="1" gradientUnits="userSpaceOnUse" gradientTransform="translate(40 40) rotate(90) scale(25)">
<stop stop-color="#0E122B"/>
<stop offset="0.252894" stop-color="#131D52"/>
<stop offset="0.608015" stop-color="#2750AA"/>
<stop offset="0.927083" stop-color="#A3EAFF"/>
<stop offset="1" stop-color="white"/>
</radialGradient>
<radialGradient id="paint5_radial_4444_1834" cx="0" cy="0" r="1" gradientUnits="userSpaceOnUse" gradientTransform="translate(43.2609 40.0392) rotate(90) scale(20.9239 20.8851)">
<stop stop-color="#F85F97"/>
<stop offset="0.546875" stop-color="#330E18"/>
<stop offset="1" stop-color="#F00A38"/>
</radialGradient>
<radialGradient id="paint6_radial_4444_1834" cx="0" cy="0" r="1" gradientUnits="userSpaceOnUse" gradientTransform="translate(39.573 40.0001) rotate(90) scale(15.6056 15.6444)">
<stop stop-color="#23164B"/>
<stop offset="0.489583" stop-color="#15105D"/>
<stop offset="0.939782" stop-color="#2D68C6"/>
<stop offset="1" stop-color="white"/>
</radialGradient>
<radialGradient id="paint7_radial_4444_1834" cx="0" cy="0" r="1" gradientUnits="userSpaceOnUse" gradientTransform="translate(33.9053 40.0389) rotate(90) scale(8.191)">
<stop stop-color="#BB2354"/>
<stop offset="0.557292" stop-color="#CE2C65"/>
<stop offset="1" stop-color="#FF94CE"/>
</radialGradient>
<clipPath id="clip0_4444_1834">
<rect width="80" height="80" fill="white"/>
</clipPath>
</defs>
</svg>
