<svg width="44" height="44" viewBox="0 0 44 44" fill="none" xmlns="http://www.w3.org/2000/svg">
<g clip-path="url(#clip0_12345_51720)">
<g filter="url(#filter0_f_12345_51720)">
<path fill-rule="evenodd" clip-rule="evenodd" d="M23.782 11.55H19.5184C19.4015 11.55 19.3071 11.6452 19.3071 11.7631V13.1834C19.3071 13.3012 19.4015 13.3964 19.5184 13.3964H23.782C23.8989 13.3964 23.9934 13.3012 23.9934 13.1834V11.7631C23.9934 11.6452 23.8983 11.55 23.782 11.55ZM11.6648 16.7745L8.49526 11.7481C8.41777 11.6253 8.28321 11.5507 8.13879 11.5507H6.81223C6.69529 11.5507 6.60088 11.6459 6.60088 11.7638V22.1935C6.60088 22.3115 6.69529 22.4066 6.81223 22.4066H8.22121C8.33816 22.4066 8.43256 22.3115 8.43256 22.1935V15.3343C8.43256 15.2633 8.52485 15.2363 8.56219 15.296L11.545 20.0269C11.6281 20.1583 11.819 20.1583 11.9015 20.0269L14.8836 15.296C14.9216 15.2363 15.0132 15.2633 15.0132 15.3343V22.1928C15.0132 22.3108 15.1076 22.4059 15.2245 22.4059H16.6335C16.7505 22.4059 16.8449 22.3108 16.8449 22.1928V11.7638C16.8449 11.6459 16.7505 11.5507 16.6335 11.5507H15.3077C15.1633 11.5507 15.0287 11.6253 14.9512 11.7481L11.7831 16.7745C11.7556 16.8185 11.6922 16.8185 11.6648 16.7745ZM25.4368 17.9015H21.2092C21.1698 17.9015 21.1387 17.9335 21.1387 17.9726V20.4893C21.1387 20.5283 21.1705 20.5603 21.2092 20.5603H27.0917C27.2087 20.5603 27.303 20.6555 27.303 20.7734V22.1936C27.303 22.3115 27.2087 22.4067 27.0917 22.4067H19.5184C19.4015 22.4067 19.3071 22.3115 19.3071 22.1936V16.2682C19.3071 16.1503 19.4015 16.0552 19.5184 16.0552H25.4368C25.5538 16.0552 25.6482 16.1503 25.6482 16.2682V17.6885C25.6482 17.8064 25.5538 17.9015 25.4368 17.9015ZM34.6256 11.827L31.7647 19.5377C31.7421 19.5995 31.6555 19.5995 31.633 19.5377L28.7727 11.827C28.7107 11.6608 28.5529 11.55 28.3768 11.55H26.7593C26.6121 11.55 26.5099 11.6985 26.5613 11.8377L30.4311 22.2682C30.4621 22.3512 30.541 22.4067 30.6291 22.4067H32.77C32.858 22.4067 32.937 22.3512 32.968 22.2682L36.837 11.8377C36.8884 11.6985 36.7863 11.55 36.6391 11.55H35.0222C34.8454 11.55 34.6876 11.6601 34.6256 11.827ZM8.07411 26.1334C7.64296 26.1334 7.2893 26.2754 7.01385 26.5595C6.73839 26.8428 6.60031 27.2042 6.59961 27.641C6.59961 28.0791 6.73769 28.4399 7.01314 28.7239C7.2879 29.008 7.64155 29.15 8.0734 29.15C8.58839 29.15 8.98219 28.9526 9.25483 28.5571L8.78776 28.1949C8.71026 28.3007 8.60881 28.3888 8.48271 28.4598C8.35731 28.5308 8.22064 28.5663 8.07411 28.5663C7.80711 28.5663 7.59153 28.4803 7.42668 28.3064C7.26183 28.1324 7.1794 27.9115 7.1794 27.6424C7.1794 27.374 7.26183 27.1531 7.42668 26.9791C7.59153 26.8051 7.80711 26.7185 8.07411 26.7185C8.22698 26.7185 8.36576 26.7519 8.48976 26.8179C8.61375 26.884 8.71379 26.9706 8.78846 27.0757L9.25554 26.727C8.98361 26.3315 8.58909 26.1334 8.07411 26.1334ZM11.238 29.1137L12.4243 26.1695H12.8653L14.0468 29.1137H13.431L13.2422 28.6287H12.0425L11.8537 29.1137H11.238ZM13.0358 28.0947L12.6448 27.0941L12.2538 28.0947H13.0358ZM16.1589 26.1695V29.1137H16.7387V28.1081H17.5207C17.7573 28.1081 17.9652 28.0215 18.1434 27.8475C18.3209 27.6736 18.4104 27.4371 18.4104 27.1381C18.4104 26.8391 18.3216 26.6034 18.1434 26.4294C17.9652 26.2561 17.7573 26.1695 17.5207 26.1695H16.1589ZM17.4171 27.5372H16.7387H16.738V26.7362H17.4255C17.5361 26.7362 17.6313 26.7731 17.7109 26.8469C17.7898 26.9208 17.8299 27.0181 17.8299 27.1388C17.8299 27.2567 17.7898 27.3525 17.7088 27.4264C17.6284 27.5003 17.5305 27.5372 17.4171 27.5372ZM20.6125 29.1137V26.1695H21.1923V29.1137H20.6125ZM25.7265 26.1695H23.394H23.3933V26.7042H24.2696V29.1137H24.8543V26.7042H25.7265V26.1695ZM27.4209 29.1137L28.6072 26.1695H29.0482L30.2297 29.1137H29.6139L29.4251 28.6287H28.2253L28.0365 29.1137H27.4209ZM29.2187 28.0947L28.8277 27.0941L28.4367 28.0947H29.2187ZM32.3409 26.1695V29.1137H34.3093V28.579H32.9207V26.1695H32.3409Z" fill="#71D9FF"/>
</g>
<path fill-rule="evenodd" clip-rule="evenodd" d="M23.782 13.2H19.5184C19.4015 13.2 19.3071 13.2951 19.3071 13.413V14.8333C19.3071 14.9512 19.4015 15.0463 19.5184 15.0463H23.782C23.8989 15.0463 23.9934 14.9512 23.9934 14.8333V13.413C23.9934 13.2951 23.8983 13.2 23.782 13.2ZM11.6648 18.4244L8.49526 13.398C8.41777 13.2752 8.28321 13.2006 8.13879 13.2006H6.81223C6.69529 13.2006 6.60088 13.2958 6.60088 13.4137V23.8435C6.60088 23.9614 6.69529 24.0565 6.81223 24.0565H8.22121C8.33816 24.0565 8.43256 23.9614 8.43256 23.8435V16.9842C8.43256 16.9132 8.52485 16.8862 8.56219 16.9459L11.545 21.6768C11.6281 21.8082 11.819 21.8082 11.9015 21.6768L14.8836 16.9459C14.9216 16.8862 15.0132 16.9132 15.0132 16.9842V23.8427C15.0132 23.9607 15.1076 24.0558 15.2245 24.0558H16.6335C16.7505 24.0558 16.8449 23.9607 16.8449 23.8427V13.4137C16.8449 13.2958 16.7505 13.2006 16.6335 13.2006H15.3077C15.1633 13.2006 15.0287 13.2752 14.9512 13.398L11.7831 18.4244C11.7556 18.4684 11.6922 18.4684 11.6648 18.4244ZM25.4368 19.5515H21.2092C21.1698 19.5515 21.1387 19.5834 21.1387 19.6225V22.1392C21.1387 22.1783 21.1705 22.2102 21.2092 22.2102H27.0917C27.2087 22.2102 27.303 22.3054 27.303 22.4233V23.8435C27.303 23.9614 27.2087 24.0566 27.0917 24.0566H19.5184C19.4015 24.0566 19.3071 23.9614 19.3071 23.8435V17.9181C19.3071 17.8003 19.4015 17.7051 19.5184 17.7051H25.4368C25.5538 17.7051 25.6482 17.8003 25.6482 17.9181V19.3384C25.6482 19.4563 25.5538 19.5515 25.4368 19.5515ZM34.6256 13.4769L31.7647 21.1876C31.7421 21.2494 31.6555 21.2494 31.633 21.1876L28.7727 13.4769C28.7107 13.3107 28.5529 13.2 28.3768 13.2H26.7593C26.6121 13.2 26.5099 13.3484 26.5613 13.4876L30.4311 23.9181C30.4621 24.0011 30.541 24.0566 30.6291 24.0566H32.77C32.858 24.0566 32.937 24.0011 32.968 23.9181L36.837 13.4876C36.8884 13.3484 36.7863 13.2 36.6391 13.2H35.0222C34.8454 13.2 34.6876 13.31 34.6256 13.4769ZM8.07411 27.7833C7.64296 27.7833 7.2893 27.9253 7.01385 28.2094C6.73839 28.4927 6.60031 28.8541 6.59961 29.2909C6.59961 29.729 6.73769 30.0898 7.01314 30.3738C7.2879 30.6579 7.64155 30.7999 8.0734 30.7999C8.58839 30.7999 8.98219 30.6025 9.25483 30.207L8.78776 29.8448C8.71026 29.9506 8.60881 30.0387 8.48271 30.1097C8.35731 30.1807 8.22064 30.2162 8.07411 30.2162C7.80711 30.2162 7.59153 30.1302 7.42668 29.9563C7.26183 29.7823 7.1794 29.5614 7.1794 29.2923C7.1794 29.0239 7.26183 28.803 7.42668 28.629C7.59153 28.455 7.80711 28.3684 8.07411 28.3684C8.22698 28.3684 8.36576 28.4018 8.48976 28.4678C8.61375 28.5339 8.71379 28.6205 8.78846 28.7256L9.25554 28.3769C8.98361 27.9814 8.58909 27.7833 8.07411 27.7833ZM11.238 30.7636L12.4243 27.8194H12.8653L14.0468 30.7636H13.431L13.2422 30.2786H12.0425L11.8537 30.7636H11.238ZM13.0358 29.7446L12.6448 28.744L12.2538 29.7446H13.0358ZM16.1589 27.8194V30.7636H16.7387V29.758H17.5207C17.7573 29.758 17.9652 29.6714 18.1434 29.4974C18.3209 29.3235 18.4104 29.087 18.4104 28.788C18.4104 28.489 18.3216 28.2533 18.1434 28.0793C17.9652 27.906 17.7573 27.8194 17.5207 27.8194H16.1589ZM17.4171 29.1871H16.7387H16.738V28.3861H17.4255C17.5361 28.3861 17.6313 28.423 17.7109 28.4968C17.7898 28.5707 17.8299 28.668 17.8299 28.7887C17.8299 28.9066 17.7898 29.0024 17.7088 29.0763C17.6284 29.1502 17.5305 29.1871 17.4171 29.1871ZM20.6125 30.7636V27.8194H21.1923V30.7636H20.6125ZM25.7265 27.8194H23.394H23.3933V28.3541H24.2696V30.7636H24.8543V28.3541H25.7265V27.8194ZM27.4209 30.7636L28.6072 27.8194H29.0482L30.2297 30.7636H29.6139L29.4251 30.2786H28.2253L28.0365 30.7636H27.4209ZM29.2187 29.7446L28.8277 28.744L28.4367 29.7446H29.2187ZM32.3409 27.8194V30.7636H34.3093V30.2289H32.9207V27.8194H32.3409Z" fill="white"/>
</g>
<defs>
<filter id="filter0_f_12345_51720" x="-7.40039" y="-2.44995" width="58.25" height="45.6" filterUnits="userSpaceOnUse" color-interpolation-filters="sRGB">
<feFlood flood-opacity="0" result="BackgroundImageFix"/>
<feBlend mode="normal" in="SourceGraphic" in2="BackgroundImageFix" result="shape"/>
<feGaussianBlur stdDeviation="7" result="effect1_foregroundBlur_12345_51720"/>
</filter>
<clipPath id="clip0_12345_51720">
<rect width="44" height="44" fill="white"/>
</clipPath>
</defs>
</svg>
