<svg width="150" height="150" viewBox="0 0 150 150" fill="none" xmlns="http://www.w3.org/2000/svg">
<g filter="url(#filter0_f_11440_73203)">
<path fill-rule="evenodd" clip-rule="evenodd" d="M81.0763 39.375H66.5415C66.1427 39.375 65.8209 39.6994 65.8209 40.1013V44.9431C65.8209 45.345 66.1427 45.6694 66.5415 45.6694H81.0763C81.4749 45.6694 81.7969 45.345 81.7969 44.9431V40.1013C81.7969 39.6994 81.4727 39.375 81.0763 39.375ZM39.7676 57.1856L28.9625 40.0503C28.6983 39.6315 28.2395 39.3773 27.7472 39.3773H23.2249C22.8262 39.3773 22.5043 39.7017 22.5043 40.1036V75.6597C22.5043 76.0617 22.8262 76.386 23.2249 76.386H28.0282C28.4269 76.386 28.7487 76.0617 28.7487 75.6597V52.276C28.7487 52.0339 29.0633 51.9419 29.1906 52.1452L39.3593 68.2735C39.6427 68.7214 40.2935 68.7214 40.5745 68.2735L50.7409 52.1452C50.8704 51.9419 51.1826 52.0339 51.1826 52.276V75.6572C51.1826 76.0592 51.5046 76.3836 51.9032 76.3836H56.7066C57.1052 76.3836 57.4271 76.0592 57.4271 75.6572V40.1036C57.4271 39.7017 57.1052 39.3773 56.7066 39.3773H52.1867C51.6943 39.3773 51.2355 39.6315 50.9713 40.0503L40.171 57.1856C40.0774 57.3357 39.8612 57.3357 39.7676 57.1856ZM86.7178 61.0278H72.3054C72.171 61.0278 72.0652 61.1368 72.0652 61.2699V69.8497C72.0652 69.9828 72.1734 70.0918 72.3054 70.0918H92.3593C92.7581 70.0918 93.0799 70.4162 93.0799 70.8182V75.66C93.0799 76.0618 92.7581 76.3862 92.3593 76.3862H66.5415C66.1427 76.3862 65.8209 76.0618 65.8209 75.66V55.4597C65.8209 55.0578 66.1427 54.7334 66.5415 54.7334H86.7178C87.1166 54.7334 87.4384 55.0578 87.4384 55.4597V60.3017C87.4384 60.7035 87.1166 61.0278 86.7178 61.0278ZM118.043 40.3192L108.29 66.6056C108.213 66.8162 107.918 66.8162 107.841 66.6056L98.0902 40.3192C97.8787 39.7527 97.3408 39.375 96.7404 39.375H91.2262C90.7243 39.375 90.3759 39.881 90.5512 40.3555L103.744 75.9141C103.849 76.1972 104.118 76.3862 104.419 76.3862H111.717C112.017 76.3862 112.286 76.1972 112.392 75.9141L125.582 40.3555C125.757 39.881 125.409 39.375 124.907 39.375H119.395C118.792 39.375 118.255 39.7502 118.043 40.3192ZM27.5267 89.0909C26.0569 89.0909 24.8512 89.575 23.9122 90.5434C22.9731 91.5093 22.5024 92.7415 22.5 94.2304C22.5 95.7241 22.9707 96.9539 23.9098 97.9223C24.8464 98.8908 26.0521 99.3749 27.5243 99.3749C29.2799 99.3749 30.6224 98.702 31.5519 97.3534L29.9596 96.1188C29.6954 96.4795 29.3496 96.7797 28.9197 97.0218C28.4922 97.2638 28.0262 97.3849 27.5267 97.3849C26.6165 97.3849 25.8816 97.0919 25.3196 96.4988C24.7576 95.9058 24.4766 95.1528 24.4766 94.2353C24.4766 93.3201 24.7576 92.5673 25.3196 91.9741C25.8816 91.381 26.6165 91.0857 27.5267 91.0857C28.0479 91.0857 28.521 91.1995 28.9437 91.4245C29.3664 91.6497 29.7074 91.945 29.962 92.3033L31.5543 91.1148C30.6273 89.7663 29.2823 89.0909 27.5267 89.0909ZM38.3125 99.2511L42.357 89.214H43.8604L47.8881 99.2511H45.789L45.1453 97.5977H41.0552L40.4116 99.2511H38.3125ZM44.4416 95.7771L43.1087 92.3661L41.7757 95.7771H44.4416ZM55.0884 89.214V99.2511H57.065V95.823H59.7309C60.5377 95.823 61.2463 95.5277 61.854 94.9346C62.459 94.3416 62.7641 93.5353 62.7641 92.5161C62.7641 91.4968 62.4615 90.6932 61.854 90.1C61.2463 89.5093 60.5377 89.214 59.7309 89.214H55.0884ZM59.3779 93.8768H57.065H57.0626V91.1458H59.4065C59.7836 91.1458 60.108 91.2718 60.3793 91.5235C60.6484 91.7753 60.7852 92.107 60.7852 92.5185C60.7852 92.9203 60.6484 93.2471 60.3722 93.499C60.0982 93.7508 59.7645 93.8768 59.3779 93.8768ZM70.2712 99.2511V89.214H72.2479V99.2511H70.2712ZM87.7054 89.214H79.7535H79.7511V91.0369H82.7387V99.2511H84.732V91.0369H87.7054V89.214ZM93.4815 99.2511L97.5259 89.214H99.0293L103.057 99.2511H100.958L100.314 97.5977H96.2241L95.5804 99.2511H93.4815ZM99.6105 95.7771L98.2776 92.3661L96.9446 95.7771H99.6105ZM110.255 89.214V99.2511H116.965V97.4282H112.231V89.214H110.255Z" fill="#71D9FF"/>
</g>
<path fill-rule="evenodd" clip-rule="evenodd" d="M81.0763 45H66.5415C66.1427 45 65.8209 45.3244 65.8209 45.7263V50.5681C65.8209 50.97 66.1427 51.2944 66.5415 51.2944H81.0763C81.4749 51.2944 81.7969 50.97 81.7969 50.5681V45.7263C81.7969 45.3244 81.4727 45 81.0763 45ZM39.7676 62.8106L28.9625 45.6753C28.6983 45.2565 28.2395 45.0023 27.7472 45.0023H23.2249C22.8262 45.0023 22.5043 45.3267 22.5043 45.7286V81.2847C22.5043 81.6867 22.8262 82.011 23.2249 82.011H28.0282C28.4269 82.011 28.7487 81.6867 28.7487 81.2847V57.901C28.7487 57.6589 29.0633 57.5669 29.1906 57.7702L39.3593 73.8985C39.6427 74.3464 40.2935 74.3464 40.5745 73.8985L50.7409 57.7702C50.8704 57.5669 51.1826 57.6589 51.1826 57.901V81.2822C51.1826 81.6842 51.5046 82.0086 51.9032 82.0086H56.7066C57.1052 82.0086 57.4271 81.6842 57.4271 81.2822V45.7286C57.4271 45.3267 57.1052 45.0023 56.7066 45.0023H52.1867C51.6943 45.0023 51.2355 45.2565 50.9713 45.6753L40.171 62.8106C40.0774 62.9607 39.8612 62.9607 39.7676 62.8106ZM86.7178 66.6528H72.3054C72.171 66.6528 72.0652 66.7618 72.0652 66.8949V75.4747C72.0652 75.6078 72.1734 75.7168 72.3054 75.7168H92.3593C92.7581 75.7168 93.0799 76.0412 93.0799 76.4432V81.285C93.0799 81.6868 92.7581 82.0112 92.3593 82.0112H66.5415C66.1427 82.0112 65.8209 81.6868 65.8209 81.285V61.0847C65.8209 60.6828 66.1427 60.3584 66.5415 60.3584H86.7178C87.1166 60.3584 87.4384 60.6828 87.4384 61.0847V65.9267C87.4384 66.3285 87.1166 66.6528 86.7178 66.6528ZM118.043 45.9442L108.29 72.2306C108.213 72.4412 107.918 72.4412 107.841 72.2306L98.0902 45.9442C97.8787 45.3777 97.3408 45 96.7404 45H91.2262C90.7243 45 90.3759 45.506 90.5512 45.9805L103.744 81.5391C103.849 81.8222 104.118 82.0112 104.419 82.0112H111.717C112.017 82.0112 112.286 81.8222 112.392 81.5391L125.582 45.9805C125.757 45.506 125.409 45 124.907 45H119.395C118.792 45 118.255 45.3752 118.043 45.9442ZM27.5267 94.7159C26.0569 94.7159 24.8512 95.2 23.9122 96.1684C22.9731 97.1343 22.5024 98.3665 22.5 99.8554C22.5 101.349 22.9707 102.579 23.9098 103.547C24.8464 104.516 26.0521 105 27.5243 105C29.2799 105 30.6224 104.327 31.5519 102.978L29.9596 101.744C29.6954 102.105 29.3496 102.405 28.9197 102.647C28.4922 102.889 28.0262 103.01 27.5267 103.01C26.6165 103.01 25.8816 102.717 25.3196 102.124C24.7576 101.531 24.4766 100.778 24.4766 99.8603C24.4766 98.9451 24.7576 98.1923 25.3196 97.5991C25.8816 97.006 26.6165 96.7107 27.5267 96.7107C28.0479 96.7107 28.521 96.8245 28.9437 97.0495C29.3664 97.2747 29.7074 97.57 29.962 97.9283L31.5543 96.7398C30.6273 95.3913 29.2823 94.7159 27.5267 94.7159ZM38.3125 104.876L42.357 94.839H43.8604L47.8881 104.876H45.789L45.1453 103.223H41.0552L40.4116 104.876H38.3125ZM44.4416 101.402L43.1087 97.9911L41.7757 101.402H44.4416ZM55.0884 94.839V104.876H57.065V101.448H59.7309C60.5377 101.448 61.2463 101.153 61.854 100.56C62.459 99.9666 62.7641 99.1603 62.7641 98.1411C62.7641 97.1218 62.4615 96.3182 61.854 95.725C61.2463 95.1343 60.5377 94.839 59.7309 94.839H55.0884ZM59.3779 99.5018H57.065H57.0626V96.7708H59.4065C59.7836 96.7708 60.108 96.8968 60.3793 97.1485C60.6484 97.4003 60.7852 97.732 60.7852 98.1435C60.7852 98.5453 60.6484 98.8721 60.3722 99.124C60.0982 99.3758 59.7645 99.5018 59.3779 99.5018ZM70.2712 104.876V94.839H72.2479V104.876H70.2712ZM87.7054 94.839H79.7535H79.7511V96.6619H82.7387V104.876H84.732V96.6619H87.7054V94.839ZM93.4815 104.876L97.5259 94.839H99.0293L103.057 104.876H100.958L100.314 103.223H96.2241L95.5804 104.876H93.4815ZM99.6105 101.402L98.2776 97.9911L96.9446 101.402H99.6105ZM110.255 94.839V104.876H116.965V103.053H112.231V94.839H110.255Z" fill="#162125"/>
<defs>
<filter id="filter0_f_11440_73203" x="8.5" y="25.375" width="131.129" height="87.9999" filterUnits="userSpaceOnUse" color-interpolation-filters="sRGB">
<feFlood flood-opacity="0" result="BackgroundImageFix"/>
<feBlend mode="normal" in="SourceGraphic" in2="BackgroundImageFix" result="shape"/>
<feGaussianBlur stdDeviation="7" result="effect1_foregroundBlur_11440_73203"/>
</filter>
</defs>
</svg>
