<svg width="44" height="44" viewBox="0 0 44 44" fill="none" xmlns="http://www.w3.org/2000/svg">
<g clip-path="url(#clip0_11613_72758)">
<path fill-rule="evenodd" clip-rule="evenodd" d="M6.20898 18.6167C6.20898 18.5516 6.26185 18.4988 6.32712 18.4988H15.542C15.6073 18.4988 15.6602 18.5516 15.6602 18.6167V22.1554C15.6602 22.2206 15.6073 22.2733 15.542 22.2733H6.32712C6.26185 22.2733 6.20898 22.2206 6.20898 22.1554V18.6167ZM14.4788 21.0348C14.4788 21.0674 14.4523 21.0938 14.4197 21.0938H7.44945C7.41685 21.0938 7.39038 21.0674 7.39038 21.0348V19.7373C7.39038 19.7048 7.41685 19.6783 7.44945 19.6783H14.4197C14.4523 19.6783 14.4788 19.7048 14.4788 19.7373V21.0348ZM7.27224 23.6889C7.33752 23.6889 7.39038 23.7416 7.39038 23.8068V24.7505C7.39038 24.8156 7.33752 24.8684 7.27224 24.8684H6.32712C6.26185 24.8684 6.20898 24.8156 6.20898 24.7505V23.8068C6.20898 23.7416 6.26185 23.6889 6.32712 23.6889H7.27224ZM29.1281 23.8068C29.1281 23.7416 29.0752 23.6889 29.01 23.6889H28.0649C27.9996 23.6889 27.9467 23.7416 27.9467 23.8068V24.7505C27.9467 24.8156 27.9996 24.8684 28.0649 24.8684H29.01C29.0752 24.8684 29.1281 24.8156 29.1281 24.7505V23.8068ZM17.196 23.6889C17.1307 23.6889 17.0778 23.7416 17.0778 23.8068V24.7505C17.0778 24.8156 17.1307 24.8684 17.196 24.8684H26.4109C26.4762 24.8684 26.529 24.8156 26.529 24.7505V23.8068C26.529 23.7416 26.4762 23.6889 26.4109 23.6889H17.196ZM27.9467 18.6167C27.9467 18.5516 27.9996 18.4988 28.0649 18.4988H37.2798C37.345 18.4988 37.3979 18.5516 37.3979 18.6167V22.1554C37.3979 22.2206 37.345 22.2733 37.2798 22.2733H28.0649C27.9996 22.2733 27.9467 22.2206 27.9467 22.1554V18.6167ZM36.1574 19.6783C36.19 19.6783 36.2165 19.7048 36.2165 19.7373V21.0348C36.2165 21.0674 36.19 21.0938 36.1574 21.0938H29.1872C29.1546 21.0938 29.1281 21.0674 29.1281 21.0348V19.7373C29.1281 19.7048 29.1546 19.6783 29.1872 19.6783H36.1574ZM17.0778 18.6167C17.0778 18.5516 17.1307 18.4988 17.196 18.4988H26.4109C26.4762 18.4988 26.529 18.5516 26.529 18.6167V22.1554C26.529 22.2206 26.4762 22.2733 26.4109 22.2733H17.196C17.1307 22.2733 17.0778 22.2206 17.0778 22.1554V21.2117C17.0778 21.1466 17.1307 21.0938 17.196 21.0938H25.2886C25.3212 21.0938 25.3476 21.0674 25.3476 21.0348V19.7373C25.3476 19.7048 25.3212 19.6783 25.2886 19.6783H17.196C17.1307 19.6783 17.0778 19.6255 17.0778 19.5604V18.6167Z" fill="white"/>
<g filter="url(#filter0_f_11613_72758)">
<path fill-rule="evenodd" clip-rule="evenodd" d="M6.20898 17.5374C6.20898 17.4722 6.26185 17.4194 6.32712 17.4194H15.542C15.6073 17.4194 15.6602 17.4722 15.6602 17.5374V21.076C15.6602 21.1412 15.6073 21.194 15.542 21.194H6.32712C6.26185 21.194 6.20898 21.1412 6.20898 21.076V17.5374ZM14.4788 19.9555C14.4788 19.988 14.4523 20.0144 14.4197 20.0144H7.44945C7.41685 20.0144 7.39038 19.988 7.39038 19.9555V18.658C7.39038 18.6254 7.41685 18.599 7.44945 18.599H14.4197C14.4523 18.599 14.4788 18.6254 14.4788 18.658V19.9555ZM7.27224 22.6095C7.33752 22.6095 7.39038 22.6623 7.39038 22.7275V23.6711C7.39038 23.7363 7.33752 23.7891 7.27224 23.7891H6.32712C6.26185 23.7891 6.20898 23.7363 6.20898 23.6711V22.7275C6.20898 22.6623 6.26185 22.6095 6.32712 22.6095H7.27224ZM29.1281 22.7275C29.1281 22.6623 29.0752 22.6095 29.01 22.6095H28.0649C27.9996 22.6095 27.9467 22.6623 27.9467 22.7275V23.6711C27.9467 23.7363 27.9996 23.7891 28.0649 23.7891H29.01C29.0752 23.7891 29.1281 23.7363 29.1281 23.6711V22.7275ZM17.196 22.6095C17.1307 22.6095 17.0778 22.6623 17.0778 22.7275V23.6711C17.0778 23.7363 17.1307 23.7891 17.196 23.7891H26.4109C26.4762 23.7891 26.529 23.7363 26.529 23.6711V22.7275C26.529 22.6623 26.4762 22.6095 26.4109 22.6095H17.196ZM27.9467 17.5374C27.9467 17.4722 27.9996 17.4194 28.0649 17.4194H37.2798C37.345 17.4194 37.3979 17.4722 37.3979 17.5374V21.076C37.3979 21.1412 37.345 21.194 37.2798 21.194H28.0649C27.9996 21.194 27.9467 21.1412 27.9467 21.076V17.5374ZM36.1574 18.599C36.19 18.599 36.2165 18.6254 36.2165 18.658V19.9555C36.2165 19.988 36.19 20.0144 36.1574 20.0144H29.1872C29.1546 20.0144 29.1281 19.988 29.1281 19.9555V18.658C29.1281 18.6254 29.1546 18.599 29.1872 18.599H36.1574ZM17.0778 17.5374C17.0778 17.4722 17.1307 17.4194 17.196 17.4194H26.4109C26.4762 17.4194 26.529 17.4722 26.529 17.5374V21.076C26.529 21.1412 26.4762 21.194 26.4109 21.194H17.196C17.1307 21.194 17.0778 21.1412 17.0778 21.076V20.1324C17.0778 20.0672 17.1307 20.0144 17.196 20.0144H25.2886C25.3212 20.0144 25.3476 19.988 25.3476 19.9555V18.658C25.3476 18.6254 25.3212 18.599 25.2886 18.599H17.196C17.1307 18.599 17.0778 18.5462 17.0778 18.481V17.5374Z" fill="white" fill-opacity="0.5"/>
</g>
</g>
<defs>
<filter id="filter0_f_11613_72758" x="-3.79102" y="7.41943" width="51.1895" height="26.3696" filterUnits="userSpaceOnUse" color-interpolation-filters="sRGB">
<feFlood flood-opacity="0" result="BackgroundImageFix"/>
<feBlend mode="normal" in="SourceGraphic" in2="BackgroundImageFix" result="shape"/>
<feGaussianBlur stdDeviation="5" result="effect1_foregroundBlur_11613_72758"/>
</filter>
<clipPath id="clip0_11613_72758">
<rect width="44" height="44" fill="white"/>
</clipPath>
</defs>
</svg>
