<svg width="150" height="150" viewBox="0 0 150 150" fill="none" xmlns="http://www.w3.org/2000/svg">
<path fill-rule="evenodd" clip-rule="evenodd" d="M21.168 63.466C21.168 63.2438 21.3482 63.0638 21.5707 63.0638H52.9852C53.2077 63.0638 53.3879 63.2438 53.3879 63.466V75.5295C53.3879 75.7517 53.2077 75.9317 52.9852 75.9317H21.5707C21.3482 75.9317 21.168 75.7517 21.168 75.5295V63.466ZM49.3604 71.7094C49.3604 71.8204 49.2702 71.9105 49.1591 71.9105H25.3968C25.2857 71.9105 25.1955 71.8204 25.1955 71.7094V67.2861C25.1955 67.1751 25.2857 67.085 25.3968 67.085H49.1591C49.2702 67.085 49.3604 67.1751 49.3604 67.2861V71.7094ZM24.7927 80.7573C25.0152 80.7573 25.1955 80.9373 25.1955 81.1594V84.3764C25.1955 84.5986 25.0152 84.7785 24.7927 84.7785H21.5707C21.3482 84.7785 21.168 84.5986 21.168 84.3764V81.1594C21.168 80.9373 21.3482 80.7573 21.5707 80.7573H24.7927ZM99.3014 81.1594C99.3014 80.9373 99.1211 80.7573 98.8986 80.7573H95.6766C95.4541 80.7573 95.2738 80.9373 95.2738 81.1594V84.3764C95.2738 84.5986 95.4541 84.7785 95.6766 84.7785H98.8986C99.1211 84.7785 99.3014 84.5986 99.3014 84.3764V81.1594ZM58.6237 80.7573C58.4011 80.7573 58.2209 80.9373 58.2209 81.1594V84.3764C58.2209 84.5986 58.4011 84.7785 58.6237 84.7785H90.0381C90.2607 84.7785 90.4409 84.5986 90.4409 84.3764V81.1594C90.4409 80.9373 90.2607 80.7573 90.0381 80.7573H58.6237ZM95.2738 63.466C95.2738 63.2438 95.4541 63.0638 95.6766 63.0638H127.091C127.314 63.0638 127.494 63.2438 127.494 63.466V75.5295C127.494 75.7517 127.314 75.9317 127.091 75.9317H95.6766C95.4541 75.9317 95.2738 75.7517 95.2738 75.5295V63.466ZM123.265 67.085C123.376 67.085 123.466 67.1751 123.466 67.2861V71.7094C123.466 71.8204 123.376 71.9105 123.265 71.9105H99.5027C99.3916 71.9105 99.3014 71.8204 99.3014 71.7094V67.2861C99.3014 67.1751 99.3916 67.085 99.5027 67.085H123.265ZM58.2209 63.466C58.2209 63.2438 58.4011 63.0638 58.6237 63.0638H90.0381C90.2607 63.0638 90.4409 63.2438 90.4409 63.466V75.5295C90.4409 75.7517 90.2607 75.9317 90.0381 75.9317H58.6237C58.4011 75.9317 58.2209 75.7517 58.2209 75.5295V72.3126C58.2209 72.0904 58.4011 71.9105 58.6237 71.9105H86.212C86.3232 71.9105 86.4134 71.8204 86.4134 71.7094V67.2861C86.4134 67.1751 86.3232 67.085 86.212 67.085H58.6237C58.4011 67.085 58.2209 66.9051 58.2209 66.6829V63.466Z" fill="#121314"/>
<g filter="url(#filter0_f_11487_88020)">
<path fill-rule="evenodd" clip-rule="evenodd" d="M21.168 59.7866C21.168 59.5645 21.3482 59.3845 21.5707 59.3845H52.9852C53.2077 59.3845 53.3879 59.5645 53.3879 59.7866V71.8502C53.3879 72.0724 53.2077 72.2523 52.9852 72.2523H21.5707C21.3482 72.2523 21.168 72.0724 21.168 71.8502V59.7866ZM49.3604 68.0301C49.3604 68.1411 49.2702 68.2312 49.1591 68.2312H25.3968C25.2857 68.2312 25.1955 68.1411 25.1955 68.0301V63.6068C25.1955 63.4958 25.2857 63.4057 25.3968 63.4057H49.1591C49.2702 63.4057 49.3604 63.4958 49.3604 63.6068V68.0301ZM24.7927 77.078C25.0152 77.078 25.1955 77.2579 25.1955 77.4801V80.6971C25.1955 80.9192 25.0152 81.0992 24.7927 81.0992H21.5707C21.3482 81.0992 21.168 80.9192 21.168 80.6971V77.4801C21.168 77.2579 21.3482 77.078 21.5707 77.078H24.7927ZM99.3014 77.4801C99.3014 77.2579 99.1211 77.078 98.8986 77.078H95.6766C95.4541 77.078 95.2738 77.2579 95.2738 77.4801V80.6971C95.2738 80.9192 95.4541 81.0992 95.6766 81.0992H98.8986C99.1211 81.0992 99.3014 80.9192 99.3014 80.6971V77.4801ZM58.6237 77.078C58.4011 77.078 58.2209 77.2579 58.2209 77.4801V80.6971C58.2209 80.9192 58.4011 81.0992 58.6237 81.0992H90.0381C90.2607 81.0992 90.4409 80.9192 90.4409 80.6971V77.4801C90.4409 77.2579 90.2607 77.078 90.0381 77.078H58.6237ZM95.2738 59.7866C95.2738 59.5645 95.4541 59.3845 95.6766 59.3845H127.091C127.314 59.3845 127.494 59.5645 127.494 59.7866V71.8502C127.494 72.0724 127.314 72.2523 127.091 72.2523H95.6766C95.4541 72.2523 95.2738 72.0724 95.2738 71.8502V59.7866ZM123.265 63.4057C123.376 63.4057 123.466 63.4958 123.466 63.6068V68.0301C123.466 68.1411 123.376 68.2312 123.265 68.2312H99.5027C99.3916 68.2312 99.3014 68.1411 99.3014 68.0301V63.6068C99.3014 63.4958 99.3916 63.4057 99.5027 63.4057H123.265ZM58.2209 59.7866C58.2209 59.5645 58.4011 59.3845 58.6237 59.3845H90.0381C90.2607 59.3845 90.4409 59.5645 90.4409 59.7866V71.8502C90.4409 72.0724 90.2607 72.2523 90.0381 72.2523H58.6237C58.4011 72.2523 58.2209 72.0724 58.2209 71.8502V68.6333C58.2209 68.4111 58.4011 68.2312 58.6237 68.2312H86.212C86.3232 68.2312 86.4134 68.1411 86.4134 68.0301V63.6068C86.4134 63.4958 86.3232 63.4057 86.212 63.4057H58.6237C58.4011 63.4057 58.2209 63.2258 58.2209 63.0036V59.7866Z" fill="#121314" fill-opacity="0.5"/>
</g>
<defs>
<filter id="filter0_f_11487_88020" x="11.168" y="49.3845" width="126.326" height="41.7147" filterUnits="userSpaceOnUse" color-interpolation-filters="sRGB">
<feFlood flood-opacity="0" result="BackgroundImageFix"/>
<feBlend mode="normal" in="SourceGraphic" in2="BackgroundImageFix" result="shape"/>
<feGaussianBlur stdDeviation="5" result="effect1_foregroundBlur_11487_88020"/>
</filter>
</defs>
</svg>
