<svg width="150" height="150" viewBox="0 0 150 150" fill="none" xmlns="http://www.w3.org/2000/svg">
<mask id="mask0_11440_73123" style="mask-type:luminance" maskUnits="userSpaceOnUse" x="25" y="33" width="101" height="83">
<path d="M123.704 35.4782L105.24 53.9434C103.161 56.0224 100.623 57.5331 97.8617 58.3791C96.1878 58.8929 94.4323 59.1586 92.6496 59.1586H58.2622C56.4796 59.1586 54.7243 58.8929 53.0504 58.3791C50.2888 57.5331 47.7505 56.0224 45.6719 53.9434C39.5142 47.7853 33.3624 41.6333 27.2078 35.4753C26.6337 34.9014 26.0565 34.3242 25.4824 33.75C25.6125 35.0101 25.7996 36.3638 26.0686 37.7929C26.5761 40.5274 27.3709 43.543 28.6036 46.7097C29.099 47.9878 29.6369 49.2117 30.2048 50.381C31.6463 53.3481 33.2898 55.977 35.0001 58.2916C38.2209 62.6516 42.5899 65.915 47.5239 67.8185C50.769 69.0696 54.2558 69.7343 57.8211 69.7343H93.0908C96.656 69.7343 100.143 69.0696 103.388 67.8185C108.322 65.915 112.691 62.6516 115.912 58.2916C117.619 55.9798 119.266 53.3481 120.704 50.384C121.275 49.2146 121.813 47.9878 122.308 46.7097C123.541 43.543 124.336 40.5274 124.843 37.7929C125.112 36.3638 125.3 35.0101 125.43 33.75C124.852 34.3272 124.278 34.9014 123.704 35.4782ZM29.3166 72.9656L41.466 85.1185H60.6977L51.0833 94.7333L58.5615 102.212L75.654 85.1185H109.062L121.218 72.9656C117.087 68.8382 110.392 68.8352 106.261 72.9656L104.687 74.543H45.8472L44.2701 72.9656C42.2064 70.9019 39.4991 69.8685 36.7948 69.8685C34.0876 69.8685 31.3804 70.9019 29.3166 72.9656ZM78.3185 89.9259L62.133 105.783L69.1063 112.757C72.5082 116.159 78.024 116.159 81.4259 112.757L104.256 89.9259H78.3185Z" fill="white"/>
</mask>
<g mask="url(#mask0_11440_73123)">
<path d="M125.618 33.771H25.293V115.289H125.618V33.771Z" fill="url(#paint0_linear_11440_73123)"/>
</g>
<g opacity="0.8" filter="url(#filter0_f_11440_73123)">
<mask id="mask1_11440_73123" style="mask-type:luminance" maskUnits="userSpaceOnUse" x="25" y="26" width="101" height="82">
<path d="M123.704 27.9782L105.24 46.4434C103.161 48.5224 100.623 50.0331 97.8617 50.8791C96.1878 51.3929 94.4323 51.6586 92.6496 51.6586H58.2622C56.4796 51.6586 54.7243 51.3929 53.0504 50.8791C50.2888 50.0331 47.7505 48.5224 45.6719 46.4434C39.5142 40.2853 33.3624 34.1333 27.2078 27.9753C26.6337 27.4014 26.0565 26.8242 25.4824 26.25C25.6125 27.5101 25.7996 28.8638 26.0686 30.2929C26.5761 33.0274 27.3709 36.043 28.6036 39.2097C29.099 40.4878 29.6369 41.7117 30.2048 42.881C31.6463 45.8481 33.2898 48.477 35.0001 50.7916C38.2209 55.1516 42.5899 58.415 47.5239 60.3185C50.769 61.5696 54.2558 62.2343 57.8211 62.2343H93.0908C96.656 62.2343 100.143 61.5696 103.388 60.3185C108.322 58.415 112.691 55.1516 115.912 50.7916C117.619 48.4798 119.266 45.8481 120.704 42.884C121.275 41.7146 121.813 40.4878 122.308 39.2097C123.541 36.043 124.336 33.0274 124.843 30.2929C125.112 28.8638 125.3 27.5101 125.43 26.25C124.852 26.8272 124.278 27.4014 123.704 27.9782ZM29.3166 65.4656L41.466 77.6185H60.6977L51.0833 87.2333L58.5615 94.7118L75.654 77.6185H109.062L121.218 65.4656C117.087 61.3382 110.392 61.3352 106.261 65.4656L104.687 67.043H45.8472L44.2701 65.4656C42.2064 63.4019 39.4991 62.3685 36.7948 62.3685C34.0876 62.3685 31.3804 63.4019 29.3166 65.4656ZM78.3185 82.4259L62.133 98.2835L69.1063 105.257C72.5082 108.659 78.024 108.659 81.4259 105.257L104.256 82.4259H78.3185Z" fill="white"/>
</mask>
<g mask="url(#mask1_11440_73123)">
<path d="M125.618 26.271H25.293V107.789H125.618V26.271Z" fill="url(#paint1_linear_11440_73123)"/>
</g>
</g>
<defs>
<filter id="filter0_f_11440_73123" x="11.4824" y="12.271" width="127.947" height="109.518" filterUnits="userSpaceOnUse" color-interpolation-filters="sRGB">
<feFlood flood-opacity="0" result="BackgroundImageFix"/>
<feBlend mode="normal" in="SourceGraphic" in2="BackgroundImageFix" result="shape"/>
<feGaussianBlur stdDeviation="7" result="effect1_foregroundBlur_11440_73123"/>
</filter>
<linearGradient id="paint0_linear_11440_73123" x1="25.293" y1="73.2947" x2="125.618" y2="73.2947" gradientUnits="userSpaceOnUse">
<stop offset="0.260417" stop-color="#4919F9"/>
<stop offset="0.713542" stop-color="#ED8620"/>
</linearGradient>
<linearGradient id="paint1_linear_11440_73123" x1="25.293" y1="65.7947" x2="125.618" y2="65.7947" gradientUnits="userSpaceOnUse">
<stop offset="0.260417" stop-color="#4919F9"/>
<stop offset="0.713542" stop-color="#ED8620"/>
</linearGradient>
</defs>
</svg>
