<svg width="110" height="110" viewBox="0 0 110 110" fill="none" xmlns="http://www.w3.org/2000/svg">
<g filter="url(#filter0_b_10840_559708)">
<ellipse cx="54.5819" cy="55" rx="54.5819" ry="55" fill="url(#paint0_radial_10840_559708)"/>
<path d="M108.664 55C108.664 85.1031 84.4469 109.5 54.5819 109.5C24.7169 109.5 0.5 85.1031 0.5 55C0.5 24.8969 24.7169 0.5 54.5819 0.5C84.4469 0.5 108.664 24.8969 108.664 55Z" stroke="black" stroke-opacity="0.1"/>
</g>
<path fill-rule="evenodd" clip-rule="evenodd" d="M54.1524 31C49.37 31 45.4931 34.9066 45.4931 39.7256V40.5488H48.7608V39.7256C48.7608 36.7251 51.1747 34.2927 54.1524 34.2927C57.1301 34.2927 59.5441 36.7251 59.5441 39.7256V47.1342H44.5128C40.9035 47.1342 37.9775 50.0825 37.9775 53.7195V64.9146C37.9775 68.5516 40.9035 71.5 44.5128 71.5H64.1188C67.7281 71.5 70.6541 68.5516 70.6541 64.9146V53.7195C70.6541 50.0825 67.7281 47.1342 64.1188 47.1342H62.8117V39.7256C62.8117 34.9066 58.9348 31 54.1524 31ZM52.3552 53.7195C52.3552 52.6284 53.233 51.7439 54.3158 51.7439C55.3986 51.7439 56.2764 52.6284 56.2764 53.7195V57.6707C56.2764 58.7618 55.3986 59.6464 54.3158 59.6464C53.233 59.6464 52.3552 58.7618 52.3552 57.6707V53.7195Z" fill="url(#paint1_radial_10840_559708)"/>
<defs>
<filter id="filter0_b_10840_559708" x="-44" y="-44" width="197.164" height="198" filterUnits="userSpaceOnUse" color-interpolation-filters="sRGB">
<feFlood flood-opacity="0" result="BackgroundImageFix"/>
<feGaussianBlur in="BackgroundImageFix" stdDeviation="22"/>
<feComposite in2="SourceAlpha" operator="in" result="effect1_backgroundBlur_10840_559708"/>
<feBlend mode="normal" in="SourceGraphic" in2="effect1_backgroundBlur_10840_559708" result="shape"/>
</filter>
<radialGradient id="paint0_radial_10840_559708" cx="0" cy="0" r="1" gradientUnits="userSpaceOnUse" gradientTransform="translate(54.5819 55) rotate(90) scale(55 54.5819)">
<stop stop-color="#39CE87"/>
<stop offset="1" stop-color="#39CE87" stop-opacity="0.2"/>
</radialGradient>
<radialGradient id="paint1_radial_10840_559708" cx="0" cy="0" r="1" gradientUnits="userSpaceOnUse" gradientTransform="translate(51.0482 41.8659) rotate(68.5778) scale(45.6279 36.8893)">
<stop stop-color="white"/>
<stop offset="1" stop-color="white" stop-opacity="0.9"/>
</radialGradient>
</defs>
</svg>
