<svg width="110" height="110" viewBox="0 0 110 110" fill="none" xmlns="http://www.w3.org/2000/svg">
<g filter="url(#filter0_b_10840_559822)">
<ellipse cx="54.5819" cy="55" rx="54.5819" ry="55" fill="url(#paint0_radial_10840_559822)"/>
<path d="M108.664 55C108.664 85.1031 84.4469 109.5 54.5819 109.5C24.7169 109.5 0.5 85.1031 0.5 55C0.5 24.8969 24.7169 0.5 54.5819 0.5C84.4469 0.5 108.664 24.8969 108.664 55Z" stroke="black" stroke-opacity="0.1"/>
</g>
<path fill-rule="evenodd" clip-rule="evenodd" d="M30.7578 40C30.2055 40 29.7578 40.4477 29.7578 41V52.5508C29.7578 53.103 30.2055 53.5508 30.7578 53.5508H37.5259C38.0782 53.5508 38.5259 53.103 38.5259 52.5508V41C38.5259 40.4477 38.0782 40 37.5259 40H30.7578ZM41.3771 41C41.3771 40.4477 41.8249 40 42.3771 40H69.0729C69.6251 40 70.0729 40.4477 70.0729 41V52.5508C70.0729 53.103 69.6251 53.5508 69.0729 53.5508H42.3771C41.8249 53.5508 41.3771 53.103 41.3771 52.5508V41ZM72.5255 41C72.5255 40.4477 72.9732 40 73.5255 40H79.1286C79.6809 40 80.1286 40.4477 80.1286 41V52.3055C80.1286 52.8578 79.6809 53.3055 79.1286 53.3055H73.5255C72.9732 53.3055 72.5255 52.8578 72.5255 52.3055V41ZM29.7578 57.4019C29.7578 56.8496 30.2055 56.4019 30.7578 56.4019H52.6709C53.2232 56.4019 53.6709 56.8496 53.6709 57.4019V68.9527C53.6709 69.505 53.2232 69.9527 52.6709 69.9527H30.7578C30.2055 69.9527 29.7578 69.505 29.7578 68.9527V57.4019ZM57.5221 56.4019C56.9698 56.4019 56.5221 56.8496 56.5221 57.4019V68.9527C56.5221 69.505 56.9698 69.9527 57.5221 69.9527H79.4352C79.9875 69.9527 80.4352 69.505 80.4352 68.9527V57.4019C80.4352 56.8496 79.9875 56.4019 79.4352 56.4019H57.5221Z" fill="white"/>
<defs>
<filter id="filter0_b_10840_559822" x="-4" y="-4" width="117.164" height="118" filterUnits="userSpaceOnUse" color-interpolation-filters="sRGB">
<feFlood flood-opacity="0" result="BackgroundImageFix"/>
<feGaussianBlur in="BackgroundImageFix" stdDeviation="2"/>
<feComposite in2="SourceAlpha" operator="in" result="effect1_backgroundBlur_10840_559822"/>
<feBlend mode="normal" in="SourceGraphic" in2="effect1_backgroundBlur_10840_559822" result="shape"/>
</filter>
<radialGradient id="paint0_radial_10840_559822" cx="0" cy="0" r="1" gradientUnits="userSpaceOnUse" gradientTransform="translate(7.93918 46.5) rotate(43.2217) scale(178.148 157.766)">
<stop stop-color="#EE9E8C"/>
<stop offset="0.943718" stop-color="#FFB198" stop-opacity="0"/>
</radialGradient>
</defs>
</svg>
