<svg width="121" height="122" viewBox="0 0 121 122" fill="none" xmlns="http://www.w3.org/2000/svg">
<g filter="url(#filter0_b_10724_317513)">
<ellipse cx="65.4979" cy="55" rx="54.5819" ry="55" fill="url(#paint0_radial_10724_317513)"/>
<path d="M120.004 52.0663C120.037 52.7141 120.06 53.3648 120.071 54.0183L119.571 54.0269C119.577 54.3506 119.58 54.675 119.58 55C119.58 55.325 119.577 55.6494 119.571 55.9731L120.071 55.9818C120.06 56.6353 120.037 57.286 120.004 57.9337L119.504 57.9077C119.47 58.5562 119.425 59.2016 119.369 59.8439L119.867 59.8874C119.81 60.5394 119.742 61.1881 119.663 61.8333L119.166 61.7722C119.087 62.4151 118.997 63.0545 118.896 63.6901L119.39 63.7686C119.287 64.4145 119.173 65.0567 119.049 65.6948L118.558 65.5988C118.433 66.2351 118.298 66.8673 118.152 67.4953L118.639 67.6087C118.491 68.2452 118.332 68.8774 118.162 69.5052L117.679 69.3746C117.51 69.9992 117.33 70.6193 117.14 71.2347L117.618 71.3824C117.424 72.0071 117.22 72.6271 117.006 73.242L116.534 73.0773C116.321 73.6886 116.097 74.295 115.863 74.8961L116.329 75.0774C116.092 75.6859 115.845 76.2891 115.587 76.8868L115.128 76.6889C114.872 77.2831 114.606 77.8717 114.329 78.4547L114.781 78.6688C114.502 79.259 114.212 79.8435 113.912 80.422L113.468 80.1919C113.17 80.7663 112.863 81.3346 112.546 81.8968L112.981 82.1424C112.661 82.7108 112.33 83.2729 111.99 83.8284L111.564 83.5674C111.226 84.119 110.879 84.6642 110.523 85.2025L110.94 85.4785C110.579 86.0228 110.21 86.5602 109.831 87.0906L109.424 86.8C109.048 87.3261 108.664 87.8453 108.27 88.3571L108.666 88.662C108.269 89.1791 107.862 89.6888 107.447 90.191L107.061 89.8723C106.649 90.3705 106.229 90.8611 105.799 91.3439L106.173 91.6761C105.74 92.1637 105.298 92.6434 104.848 93.1151L104.486 92.7699C104.04 93.2375 103.586 93.697 103.124 94.1483L103.473 94.5061C103.006 94.9616 102.532 95.4089 102.049 95.8475L101.713 95.4775C101.235 95.9122 100.749 96.3383 100.256 96.7558L100.579 97.1375C100.081 97.5586 99.5757 97.9709 99.0631 98.3742L98.7539 97.9813C98.2463 98.3807 97.7314 98.7712 97.2095 99.1525L97.5045 99.5563C96.9782 99.9408 96.4447 100.316 95.9045 100.682L95.6241 100.268C95.0895 100.63 94.5481 100.983 94.0002 101.326L94.2656 101.75C93.7134 102.095 93.1546 102.431 92.5895 102.758L92.3395 102.325C91.7805 102.647 91.2151 102.96 90.6438 103.263L90.878 103.705C90.3022 104.01 89.7205 104.305 89.1328 104.59L88.9147 104.14C88.3343 104.422 87.7481 104.693 87.1565 104.954L87.3582 105.411C86.7625 105.674 86.1613 105.926 85.5547 106.168L85.3697 105.703C84.7704 105.942 84.1658 106.17 83.5563 106.388L83.7243 106.859C83.111 107.078 82.4927 107.286 81.8695 107.483L81.7187 107.006C81.1044 107.201 80.4855 107.384 79.862 107.557L79.9954 108.039C79.3685 108.212 78.7371 108.375 78.1014 108.526L77.9855 108.04C77.3583 108.189 76.7268 108.328 76.0913 108.455L76.1894 108.945C75.5519 109.073 74.9103 109.189 74.265 109.294L74.1847 108.801C73.5494 108.904 72.9104 108.996 72.2679 109.077L72.3303 109.573C71.6853 109.654 71.0367 109.724 70.3849 109.783L70.3404 109.285C69.6984 109.342 69.0532 109.388 68.405 109.423L68.4316 109.922C67.7839 109.956 67.1332 109.98 66.4796 109.991L66.4707 109.491C66.1472 109.497 65.8229 109.5 65.4979 109.5C65.173 109.5 64.8487 109.497 64.5251 109.491L64.5162 109.991C63.8626 109.98 63.2119 109.956 62.5642 109.922L62.5908 109.423C61.9426 109.388 61.2974 109.342 60.6555 109.285L60.6109 109.783C59.9591 109.724 59.3105 109.654 58.6655 109.573L58.7279 109.077C58.0854 108.996 57.4464 108.904 56.8111 108.801L56.7308 109.294C56.0855 109.189 55.444 109.073 54.8064 108.945L54.9045 108.455C54.269 108.328 53.6375 108.189 53.0103 108.04L52.8944 108.526C52.2587 108.375 51.6273 108.212 51.0004 108.039L51.1338 107.557C50.5104 107.384 49.8914 107.201 49.2771 107.006L49.1263 107.483C48.5031 107.286 47.8848 107.078 47.2715 106.859L47.4396 106.388C46.83 106.17 46.2254 105.942 45.6261 105.703L45.4411 106.168C44.8345 105.926 44.2333 105.674 43.6376 105.411L43.8394 104.954C43.2477 104.693 42.6615 104.422 42.0811 104.14L41.863 104.59C41.2754 104.305 40.6936 104.01 40.1179 103.705L40.3521 103.263C39.7807 102.96 39.2154 102.647 38.6563 102.325L38.4063 102.758C37.8412 102.431 37.2825 102.095 36.7303 101.75L36.9956 101.326C36.4477 100.983 35.9063 100.63 35.3717 100.268L35.0914 100.682C34.5511 100.316 34.0177 99.9408 33.4913 99.5562L33.7863 99.1525C33.2644 98.7712 32.7495 98.3807 32.2419 97.9813L31.9327 98.3742C31.4202 97.9709 30.915 97.5586 30.4173 97.1375L30.7403 96.7558C30.247 96.3383 29.7612 95.9122 29.2831 95.4775L28.9468 95.8475C28.4643 95.4088 27.9896 94.9616 27.523 94.5061L27.8723 94.1483C27.41 93.697 26.9556 93.2375 26.5095 92.7699L26.1478 93.1151C25.6977 92.6434 25.2559 92.1637 24.8226 91.6761L25.1964 91.3439C24.7673 90.8611 24.3466 90.3704 23.9346 89.8723L23.5493 90.191C23.1339 89.6888 22.7273 89.179 22.3296 88.662L22.726 88.3571C22.3323 87.8453 21.9474 87.3261 21.5717 86.8L21.1648 87.0905C20.786 86.5602 20.4164 86.0228 20.0562 85.4785L20.4731 85.2025C20.1168 84.6641 19.7697 84.119 19.4321 83.5674L19.0057 83.8284C18.6657 83.2729 18.3353 82.7108 18.0146 82.1424L18.4501 81.8967C18.1329 81.3346 17.8254 80.7663 17.5278 80.1919L17.0839 80.4219C16.7841 79.8435 16.4943 79.259 16.2146 78.6687L16.6664 78.4546C16.3902 77.8717 16.124 77.2831 15.8679 76.6889L15.4088 76.8868C15.1512 76.2891 14.9039 75.6859 14.667 75.0774L15.1329 74.896C14.8989 74.2949 14.6752 73.6886 14.462 73.0773L13.9899 73.242C13.7754 72.627 13.5715 72.0071 13.3783 71.3824L13.856 71.2347C13.6656 70.6193 13.4859 69.9991 13.3168 69.3745L12.8342 69.5051C12.6643 68.8774 12.5052 68.2451 12.357 67.6087L12.844 67.4953C12.6978 66.8673 12.5624 66.235 12.438 65.5988L11.9473 65.6948C11.8225 65.0566 11.7086 64.4145 11.6059 63.7686L12.0997 63.6901C11.9986 63.0544 11.9085 62.4151 11.8294 61.7722L11.3331 61.8332C11.2538 61.188 11.1855 60.5393 11.1286 59.8874L11.6267 59.8438C11.5705 59.2016 11.5255 58.5561 11.4917 57.9076L10.9923 57.9337C10.9585 57.2859 10.9359 56.6352 10.9245 55.9817L11.4245 55.9731C11.4188 55.6494 11.416 55.325 11.416 55C11.416 54.675 11.4188 54.3506 11.4245 54.0269L10.9245 54.0182C10.9359 53.3647 10.9586 52.714 10.9923 52.0663L11.4917 52.0923C11.5255 51.4439 11.5706 50.7984 11.6267 50.1561L11.1286 50.1126C11.1855 49.4606 11.2538 48.812 11.3332 48.1667L11.8294 48.2278C11.9085 47.5849 11.9986 46.9456 12.0997 46.3099L11.6059 46.2314C11.7086 45.5855 11.8225 44.9434 11.9473 44.3052L12.438 44.4012C12.5624 43.765 12.6978 43.1327 12.844 42.5047L12.357 42.3913C12.5052 41.7548 12.6643 41.1226 12.8342 40.4948L13.3168 40.6255C13.4859 40.0009 13.6657 39.3807 13.856 38.7653L13.3783 38.6176C13.5715 37.9929 13.7754 37.3729 13.9899 36.758L14.462 36.9227C14.6752 36.3114 14.8989 35.7051 15.1329 35.1039L14.667 34.9226C14.9039 34.3141 15.1512 33.7109 15.4088 33.1132L15.8679 33.3111C16.124 32.7169 16.3902 32.1283 16.6664 31.5453L16.2146 31.3312C16.4943 30.741 16.7841 30.1565 17.0839 29.5781L17.5278 29.8081C17.8254 29.2337 18.1329 28.6654 18.4501 28.1032L18.0146 27.8576C18.3353 27.2892 18.6657 26.7271 19.0057 26.1716L19.4321 26.4326C19.7697 25.881 20.1168 25.3358 20.4731 24.7975L20.0562 24.5215C20.4164 23.9772 20.786 23.4398 21.1648 22.9095L21.5717 23.2C21.9474 22.6739 22.3323 22.1547 22.726 21.6429L22.3296 21.338C22.7273 20.8209 23.134 20.3112 23.5493 19.809L23.9346 20.1277C24.3466 19.6296 24.7673 19.1389 25.1964 18.6561L24.8226 18.3239C25.2559 17.8363 25.6977 17.3566 26.1478 16.8849L26.5095 17.2301C26.9556 16.7625 27.41 16.303 27.8723 15.8517L27.523 15.4939C27.9896 15.0384 28.4643 14.5912 28.9468 14.1525L29.2831 14.5225C29.7612 14.0878 30.247 13.6617 30.7403 13.2442L30.4173 12.8625C30.915 12.4414 31.4202 12.0291 31.9327 11.6258L32.2419 12.0187C32.7495 11.6193 33.2644 11.2288 33.7863 10.8475L33.4913 10.4438C34.0177 10.0592 34.5511 9.68383 35.0914 9.31796L35.3717 9.73196C35.9064 9.36993 36.4477 9.01726 36.9956 8.6742L36.7303 8.25042C37.2825 7.90467 37.8412 7.56857 38.4063 7.24237L38.6563 7.67541C39.2154 7.35269 39.7807 7.03974 40.3521 6.7368L40.1179 6.29505C40.6936 5.9898 41.2754 5.69461 41.863 5.40971L42.0812 5.85962C42.6616 5.57824 43.2477 5.30699 43.8394 5.0461L43.6376 4.5886C44.2333 4.32595 44.8345 4.07371 45.4411 3.8321L45.6261 4.2966C46.2254 4.05787 46.83 3.82962 47.4396 3.61207L47.2715 3.14116C47.8848 2.92229 48.5032 2.71416 49.1263 2.51698L49.2771 2.99368C49.8914 2.79932 50.5104 2.6157 51.1339 2.44305L51.0004 1.96118C51.6273 1.78758 52.2587 1.62497 52.8944 1.47355L53.0103 1.95995C53.6376 1.81054 54.2691 1.67215 54.9046 1.54497L54.8064 1.05469C55.444 0.927114 56.0855 0.810722 56.7308 0.705731L56.8111 1.19924C57.4464 1.09588 58.0854 1.00367 58.7279 0.922823L58.6655 0.426735C59.3106 0.345564 59.9591 0.275736 60.611 0.217454L60.6555 0.715468C61.2974 0.658071 61.9426 0.611975 62.5909 0.57738L62.5642 0.0780902C63.2119 0.0435216 63.8627 0.0203324 64.5162 0.00871746L64.5251 0.508639C64.8487 0.502888 65.173 0.5 65.4979 0.5C65.8229 0.5 66.1472 0.502888 66.4708 0.508639L66.4797 0.00871797C67.1332 0.0203333 67.7839 0.0435227 68.4317 0.0780916L68.405 0.577381C69.0532 0.611976 69.6984 0.658072 70.3404 0.71547L70.3849 0.217456C71.0367 0.275738 71.6853 0.345567 72.3303 0.426738L72.2679 0.922825C72.9104 1.00368 73.5494 1.09589 74.1847 1.19925L74.265 0.705734C74.9104 0.810726 75.5519 0.927118 76.1894 1.0547L76.0913 1.54498C76.7268 1.67215 77.3583 1.81055 77.9856 1.95995L78.1014 1.47356C78.7371 1.62497 79.3685 1.78759 79.9954 1.96119L79.862 2.44305C80.4855 2.61571 81.1045 2.79932 81.7187 2.99369L81.8696 2.51699C82.4927 2.71416 83.111 2.9223 83.7243 3.14117L83.5563 3.61208C84.1658 3.82962 84.7704 4.05788 85.3697 4.29661L85.5548 3.8321C86.1613 4.07371 86.7625 4.32596 87.3582 4.58861L87.1565 5.04611C87.7482 5.307 88.3343 5.57825 88.9147 5.85963L89.1328 5.40972C89.7205 5.69461 90.3023 5.9898 90.878 6.29505L90.6438 6.7368C91.2151 7.03975 91.7805 7.35269 92.3396 7.67541L92.5895 7.24238C93.1546 7.56858 93.7134 7.90467 94.2656 8.25042L94.0002 8.6742C94.5481 9.01727 95.0895 9.36994 95.6241 9.73197L95.9045 9.31797C96.4447 9.68383 96.9782 10.0592 97.5045 10.4438L97.2095 10.8475C97.7314 11.2288 98.2463 11.6193 98.7539 12.0187L99.0631 11.6258C99.5757 12.0291 100.081 12.4414 100.579 12.8625L100.256 13.2442C100.749 13.6617 101.235 14.0878 101.713 14.5225L102.049 14.1525C102.532 14.5912 103.006 15.0384 103.473 15.4939L103.124 15.8517C103.586 16.303 104.04 16.7625 104.486 17.2301L104.848 16.8849C105.298 17.3566 105.74 17.8363 106.173 18.3239L105.799 18.6561C106.229 19.1389 106.649 19.6296 107.061 20.1277L107.447 19.809C107.862 20.3112 108.269 20.821 108.666 21.338L108.27 21.6429C108.664 22.1547 109.048 22.6739 109.424 23.2L109.831 22.9095C110.21 23.4398 110.579 23.9772 110.94 24.5215L110.523 24.7975C110.879 25.3359 111.226 25.881 111.564 26.4326L111.99 26.1716C112.33 26.7271 112.661 27.2892 112.981 27.8576L112.546 28.1033C112.863 28.6654 113.17 29.2337 113.468 29.8081L113.912 29.5781C114.212 30.1565 114.502 30.741 114.781 31.3313L114.329 31.5454C114.606 32.1283 114.872 32.717 115.128 33.3111L115.587 33.1132C115.845 33.7109 116.092 34.3141 116.329 34.9226L115.863 35.104C116.097 35.7051 116.321 36.3114 116.534 36.9227L117.006 36.758C117.22 37.373 117.424 37.9929 117.618 38.6176L117.14 38.7653C117.33 39.3807 117.51 40.0009 117.679 40.6255L118.162 40.4949C118.332 41.1226 118.491 41.7549 118.639 42.3913L118.152 42.5047C118.298 43.1327 118.433 43.765 118.558 44.4012L119.049 44.3052C119.173 44.9434 119.287 45.5855 119.39 46.2314L118.896 46.3099C118.997 46.9456 119.087 47.5849 119.166 48.2278L119.663 48.1668C119.742 48.812 119.81 49.4607 119.867 50.1126L119.369 50.1562C119.425 50.7984 119.47 51.4439 119.504 52.0924L120.004 52.0663Z" stroke="#131217" stroke-opacity="0.32" stroke-dasharray="2 2"/>
<ellipse cx="54.5819" cy="67" rx="54.5819" ry="55" fill="url(#paint1_radial_10724_317513)"/>
<path d="M108.664 67C108.664 97.1031 84.4469 121.5 54.5819 121.5C24.7169 121.5 0.5 97.1031 0.5 67C0.5 36.8969 24.7169 12.5 54.5819 12.5C84.4469 12.5 108.664 36.8969 108.664 67Z" stroke="#131217" stroke-opacity="0.32"/>
</g>
<defs>
<filter id="filter0_b_10724_317513" x="-4" y="-4" width="128.08" height="130" filterUnits="userSpaceOnUse" color-interpolation-filters="sRGB">
<feFlood flood-opacity="0" result="BackgroundImageFix"/>
<feGaussianBlur in="BackgroundImageFix" stdDeviation="2"/>
<feComposite in2="SourceAlpha" operator="in" result="effect1_backgroundBlur_10724_317513"/>
<feBlend mode="normal" in="SourceGraphic" in2="effect1_backgroundBlur_10724_317513" result="shape"/>
</filter>
<radialGradient id="paint0_radial_10724_317513" cx="0" cy="0" r="1" gradientUnits="userSpaceOnUse" gradientTransform="translate(46.1462 39) rotate(-13.5646) scale(72.4821 64.7704)">
<stop stop-color="#FF74BF"/>
<stop offset="0.943718" stop-color="#FF74BF" stop-opacity="0"/>
</radialGradient>
<radialGradient id="paint1_radial_10724_317513" cx="0" cy="0" r="1" gradientUnits="userSpaceOnUse" gradientTransform="translate(7.93919 58.5) rotate(53.5349) scale(116.884 103.511)">
<stop stop-color="#E08CEE"/>
<stop offset="0.943718" stop-color="#E08CEE" stop-opacity="0"/>
</radialGradient>
</defs>
</svg>
