<svg width="110" height="38" viewBox="0 0 145 38" fill="none" xmlns="http://www.w3.org/2000/svg">
    <g clip-path="url(#clip0_1248_14)">
        <rect width="145" height="38" fill="transparent" />
        <path
            d="M14.336 38V24.272L16.112 28.976L1.328 4.4H9.584L20.912 23.264H16.16L27.536 4.4H35.168L20.384 28.976L22.112 24.272V38H14.336ZM32.6248 38V12.176H40.1128V38H32.6248ZM36.3688 8.576C34.9928 8.576 33.8728 8.176 33.0088 7.376C32.1448 6.576 31.7128 5.584 31.7128 4.4C31.7128 3.216 32.1448 2.224 33.0088 1.424C33.8728 0.623998 34.9928 0.223997 36.3688 0.223997C37.7448 0.223997 38.8648 0.607998 39.7288 1.376C40.5928 2.112 41.0248 3.072 41.0248 4.256C41.0248 5.504 40.5928 6.544 39.7288 7.376C38.8968 8.176 37.7768 8.576 36.3688 8.576ZM55.0783 38.384C52.1343 38.384 49.5423 37.808 47.3023 36.656C45.0943 35.504 43.3823 33.936 42.1663 31.952C40.9503 29.936 40.3423 27.648 40.3423 25.088C40.3423 22.496 40.9343 20.208 42.1183 18.224C43.3343 16.208 44.9823 14.64 47.0623 13.52C49.1423 12.368 51.4943 11.792 54.1183 11.792C56.6463 11.792 58.9183 12.336 60.9343 13.424C62.9823 14.48 64.5983 16.016 65.7823 18.032C66.9663 20.016 67.5583 22.4 67.5583 25.184C67.5583 25.472 67.5423 25.808 67.5103 26.192C67.4783 26.544 67.4463 26.88 67.4143 27.2H46.4383V22.832H63.4783L60.5983 24.128C60.5983 22.784 60.3263 21.616 59.7823 20.624C59.2383 19.632 58.4863 18.864 57.5263 18.32C56.5663 17.744 55.4463 17.456 54.1663 17.456C52.8863 17.456 51.7503 17.744 50.7583 18.32C49.7983 18.864 49.0463 19.648 48.5023 20.672C47.9583 21.664 47.6863 22.848 47.6863 24.224V25.376C47.6863 26.784 47.9903 28.032 48.5983 29.12C49.2383 30.176 50.1183 30.992 51.2383 31.568C52.3903 32.112 53.7343 32.384 55.2703 32.384C56.6463 32.384 57.8463 32.176 58.8703 31.76C59.9263 31.344 60.8863 30.72 61.7503 29.888L65.7343 34.208C64.5503 35.552 63.0623 36.592 61.2703 37.328C59.4783 38.032 57.4143 38.384 55.0783 38.384ZM67.7435 38V2.384H75.2315V38H67.7435ZM88.469 38.384C86.037 38.384 83.845 37.84 81.893 36.752C79.941 35.632 78.389 34.08 77.237 32.096C76.117 30.112 75.557 27.776 75.557 25.088C75.557 22.368 76.117 20.016 77.237 18.032C78.389 16.048 79.941 14.512 81.893 13.424C83.845 12.336 86.037 11.792 88.469 11.792C90.645 11.792 92.549 12.272 94.181 13.232C95.813 14.192 97.077 15.648 97.973 17.6C98.869 19.552 99.317 22.048 99.317 25.088C99.317 28.096 98.885 30.592 98.021 32.576C97.157 34.528 95.909 35.984 94.277 36.944C92.677 37.904 90.741 38.384 88.469 38.384ZM89.765 32.24C90.981 32.24 92.085 31.952 93.077 31.376C94.069 30.8 94.853 29.984 95.429 28.928C96.037 27.84 96.341 26.56 96.341 25.088C96.341 23.584 96.037 22.304 95.429 21.248C94.853 20.192 94.069 19.376 93.077 18.8C92.085 18.224 90.981 17.936 89.765 17.936C88.517 17.936 87.397 18.224 86.405 18.8C85.413 19.376 84.613 20.192 84.005 21.248C83.429 22.304 83.141 23.584 83.141 25.088C83.141 26.56 83.429 27.84 84.005 28.928C84.613 29.984 85.413 30.8 86.405 31.376C87.397 31.952 88.517 32.24 89.765 32.24ZM96.533 38V32.72L96.677 25.04L96.197 17.408V2.384H103.685V38H96.533ZM113.543 19.52H129.671V25.76H113.543V19.52ZM114.119 38H106.343V4.4H131.735V10.64H114.119V38ZM131.672 38V12.176H139.16V38H131.672ZM135.416 8.576C134.04 8.576 132.92 8.176 132.056 7.376C131.192 6.576 130.76 5.584 130.76 4.4C130.76 3.216 131.192 2.224 132.056 1.424C132.92 0.623998 134.04 0.223997 135.416 0.223997C136.792 0.223997 137.912 0.607998 138.776 1.376C139.64 2.112 140.072 3.072 140.072 4.256C140.072 5.504 139.64 6.544 138.776 7.376C137.944 8.176 136.824 8.576 135.416 8.576Z"
            fill="black" />
    </g>
    <defs>
        <clipPath id="clip0_1248_14">
            <rect width="145" height="38" fill="white" />
        </clipPath>
    </defs>
</svg>