<svg width="572" height="572" viewBox="0 0 572 572" fill="none" xmlns="http://www.w3.org/2000/svg">
<g clip-path="url(#clip0_10755_377848)">
<g filter="url(#filter0_f_10755_377848)">
<path d="M276.353 521.701C360.111 521.701 428.01 454.2 428.01 370.934C428.01 338.981 418.011 309.349 400.954 284.963L275.338 360.14L149.722 287.941C133.904 311.745 124.696 340.27 124.696 370.934C124.696 454.2 192.595 521.701 276.353 521.701Z" fill="url(#paint0_radial_10755_377848)"/>
<path d="M277.378 416.766V520.611C300.493 475.305 324.47 430.707 348.7 385.95C367.012 352.123 383.692 319.239 400.883 284.856C354.096 316.808 317.543 297.343 305.336 291.239C278.861 278.002 276.807 246.163 277.948 231.899V98.384L176.85 248.956C173.548 253.874 175.22 260.567 180.446 263.354L239.149 294.662C262.543 295.994 277.378 324.903 277.378 340.879V416.766Z" fill="url(#paint1_radial_10755_377848)"/>
<path d="M277.378 416.766V520.611C300.493 475.305 324.47 430.707 348.7 385.95C367.012 352.123 383.692 319.239 400.883 284.856C354.096 316.808 317.543 297.343 305.336 291.239C278.861 278.002 276.807 246.163 277.948 231.899V98.384L176.85 248.956C173.548 253.874 175.22 260.567 180.446 263.354L239.149 294.662C262.543 295.994 277.378 324.903 277.378 340.879V416.766Z" fill="url(#paint2_radial_10755_377848)"/>
<path d="M277.378 416.766V520.611C300.493 475.305 324.47 430.707 348.7 385.95C367.012 352.123 383.692 319.239 400.883 284.856C354.096 316.808 317.543 297.343 305.336 291.239C278.861 278.002 276.807 246.163 277.948 231.899V98.384L176.85 248.956C173.548 253.874 175.22 260.567 180.446 263.354L239.149 294.662C262.543 295.994 277.378 324.903 277.378 340.879V416.766Z" fill="url(#paint3_radial_10755_377848)" fill-opacity="0.7"/>
<path d="M277.378 416.766V520.611C254.263 475.305 228.573 430.707 204.344 385.95C187.878 355.534 171.56 327.351 155.939 296.981C154.523 294.23 157.857 291.243 160.576 292.721C202.784 315.669 236.371 296.907 247.708 291.239C274.182 278.002 278.519 246.163 277.378 231.899V98.384L376.405 249.078C379.615 253.962 377.971 260.545 372.842 263.346L314.465 295.233C293.016 306.074 281.034 315.203 277.378 342.02V416.766Z" fill="url(#paint4_radial_10755_377848)"/>
<path d="M277.378 416.766V520.611C254.263 475.305 228.573 430.707 204.344 385.95C187.878 355.534 171.56 327.351 155.939 296.981C154.523 294.23 157.857 291.243 160.576 292.721C202.784 315.669 236.371 296.907 247.708 291.239C274.182 278.002 278.519 246.163 277.378 231.899V98.384L376.405 249.078C379.615 253.962 377.971 260.545 372.842 263.346L314.465 295.233C293.016 306.074 281.034 315.203 277.378 342.02V416.766Z" fill="url(#paint5_radial_10755_377848)"/>
<path d="M277.378 416.766V520.611C254.263 475.305 228.573 430.707 204.344 385.95C187.878 355.534 171.56 327.351 155.939 296.981C154.523 294.23 157.857 291.243 160.576 292.721C202.784 315.669 236.371 296.907 247.708 291.239C274.182 278.002 278.519 246.163 277.378 231.899V98.384L376.405 249.078C379.615 253.962 377.971 260.545 372.842 263.346L314.465 295.233C293.016 306.074 281.034 315.203 277.378 342.02V416.766Z" fill="url(#paint6_linear_10755_377848)" fill-opacity="0.8"/>
<path d="M277.378 416.766V520.611C254.263 475.305 228.573 430.707 204.344 385.95C187.878 355.534 171.56 327.351 155.939 296.981C154.523 294.23 157.857 291.243 160.576 292.721C202.784 315.669 236.371 296.907 247.708 291.239C274.182 278.002 278.519 246.163 277.378 231.899V98.384L376.405 249.078C379.615 253.962 377.971 260.545 372.842 263.346L314.465 295.233C293.016 306.074 281.034 315.203 277.378 342.02V416.766Z" fill="url(#paint7_radial_10755_377848)" fill-opacity="0.7"/>
<path d="M277.378 416.766V520.611C254.263 475.305 228.573 430.707 204.344 385.95C187.878 355.534 171.56 327.351 155.939 296.981C154.523 294.23 157.857 291.243 160.576 292.721C202.784 315.669 236.371 296.907 247.708 291.239C274.182 278.002 278.519 246.163 277.378 231.899V98.384L376.405 249.078C379.615 253.962 377.971 260.545 372.842 263.346L314.465 295.233C293.016 306.074 281.034 315.203 277.378 342.02V416.766Z" fill="url(#paint8_radial_10755_377848)" fill-opacity="0.8"/>
<path d="M277.04 359.137L150.943 287.815L278.181 521.181L277.04 359.137Z" fill="url(#paint9_linear_10755_377848)"/>
<path d="M277.04 359.138L400.883 284.856L276.469 521.181L277.04 359.138Z" fill="url(#paint10_linear_10755_377848)"/>
</g>
<path d="M286.166 497.677C369.923 497.677 437.822 430.176 437.822 346.91C437.822 314.957 427.823 285.325 410.766 260.939L285.15 336.116L159.534 263.917C143.717 287.721 134.509 316.247 134.509 346.91C134.509 430.176 202.408 497.677 286.166 497.677Z" fill="url(#paint11_radial_10755_377848)"/>
<path d="M287.19 392.742V496.587C310.305 451.281 334.283 406.683 358.512 361.926C376.825 328.099 393.504 295.215 410.696 260.832C363.909 292.784 327.356 273.319 315.148 267.215C288.674 253.978 286.619 222.139 287.761 207.875V74.3601L186.662 224.932C183.36 229.85 185.032 236.543 190.258 239.33L248.961 270.638C272.355 271.97 287.19 300.879 287.19 316.855V392.742Z" fill="url(#paint12_radial_10755_377848)"/>
<path d="M287.19 392.742V496.587C310.305 451.281 334.283 406.683 358.512 361.926C376.825 328.099 393.504 295.215 410.696 260.832C363.909 292.784 327.356 273.319 315.148 267.215C288.674 253.978 286.619 222.139 287.761 207.875V74.3601L186.662 224.932C183.36 229.85 185.032 236.543 190.258 239.33L248.961 270.638C272.355 271.97 287.19 300.879 287.19 316.855V392.742Z" fill="url(#paint13_radial_10755_377848)"/>
<path d="M287.19 392.742V496.587C310.305 451.281 334.283 406.683 358.512 361.926C376.825 328.099 393.504 295.215 410.696 260.832C363.909 292.784 327.356 273.319 315.148 267.215C288.674 253.978 286.619 222.139 287.761 207.875V74.3601L186.662 224.932C183.36 229.85 185.032 236.543 190.258 239.33L248.961 270.638C272.355 271.97 287.19 300.879 287.19 316.855V392.742Z" fill="url(#paint14_radial_10755_377848)" fill-opacity="0.7"/>
<path d="M287.19 392.742V496.587C264.075 451.281 238.386 406.683 214.156 361.926C197.691 331.51 181.372 303.327 165.751 272.957C164.336 270.206 167.67 267.219 170.388 268.697C212.597 291.645 246.183 272.884 257.52 267.215C283.995 253.978 288.331 222.139 287.19 207.875V74.3601L386.218 225.055C389.427 229.938 387.783 236.521 382.655 239.322L324.278 271.209C302.829 282.05 290.847 291.179 287.19 317.996V392.742Z" fill="url(#paint15_radial_10755_377848)"/>
<path d="M287.19 392.742V496.587C264.075 451.281 238.386 406.683 214.156 361.926C197.691 331.51 181.372 303.327 165.751 272.957C164.336 270.206 167.67 267.219 170.388 268.697C212.597 291.645 246.183 272.884 257.52 267.215C283.995 253.978 288.331 222.139 287.19 207.875V74.3601L386.218 225.055C389.427 229.938 387.783 236.521 382.655 239.322L324.278 271.209C302.829 282.05 290.847 291.179 287.19 317.996V392.742Z" fill="url(#paint16_radial_10755_377848)"/>
<path d="M287.19 392.742V496.587C264.075 451.281 238.386 406.683 214.156 361.926C197.691 331.51 181.372 303.327 165.751 272.957C164.336 270.206 167.67 267.219 170.388 268.697C212.597 291.645 246.183 272.884 257.52 267.215C283.995 253.978 288.331 222.139 287.19 207.875V74.3601L386.218 225.055C389.427 229.938 387.783 236.521 382.655 239.322L324.278 271.209C302.829 282.05 290.847 291.179 287.19 317.996V392.742Z" fill="url(#paint17_linear_10755_377848)" fill-opacity="0.8"/>
<path d="M287.19 392.742V496.587C264.075 451.281 238.386 406.683 214.156 361.926C197.691 331.51 181.372 303.327 165.751 272.957C164.336 270.206 167.67 267.219 170.388 268.697C212.597 291.645 246.183 272.884 257.52 267.215C283.995 253.978 288.331 222.139 287.19 207.875V74.3601L386.218 225.055C389.427 229.938 387.783 236.521 382.655 239.322L324.278 271.209C302.829 282.05 290.847 291.179 287.19 317.996V392.742Z" fill="url(#paint18_radial_10755_377848)" fill-opacity="0.7"/>
<path d="M287.19 392.742V496.587C264.075 451.281 238.386 406.683 214.156 361.926C197.691 331.51 181.372 303.327 165.751 272.957C164.336 270.206 167.67 267.219 170.388 268.697C212.597 291.645 246.183 272.884 257.52 267.215C283.995 253.978 288.331 222.139 287.19 207.875V74.3601L386.218 225.055C389.427 229.938 387.783 236.521 382.655 239.322L324.278 271.209C302.829 282.05 290.847 291.179 287.19 317.996V392.742Z" fill="url(#paint19_radial_10755_377848)" fill-opacity="0.8"/>
<path d="M286.853 335.113L160.755 263.791L287.994 497.157L286.853 335.113Z" fill="url(#paint20_linear_10755_377848)"/>
<path d="M286.853 335.114L410.696 260.832L286.282 497.157L286.853 335.114Z" fill="url(#paint21_linear_10755_377848)"/>
</g>
<defs>
<filter id="filter0_f_10755_377848" x="70.6963" y="44.384" width="411.313" height="531.317" filterUnits="userSpaceOnUse" color-interpolation-filters="sRGB">
<feFlood flood-opacity="0" result="BackgroundImageFix"/>
<feBlend mode="normal" in="SourceGraphic" in2="BackgroundImageFix" result="shape"/>
<feGaussianBlur stdDeviation="27" result="effect1_foregroundBlur_10755_377848"/>
</filter>
<radialGradient id="paint0_radial_10755_377848" cx="0" cy="0" r="1" gradientUnits="userSpaceOnUse" gradientTransform="translate(253.984 423.317) rotate(-131.346) scale(138.378 185.068)">
<stop stop-color="#5CEAB7" stop-opacity="0"/>
<stop offset="0.671495" stop-color="#5CF1D6" stop-opacity="0.52"/>
<stop offset="1" stop-color="#108DE8" stop-opacity="0.92"/>
</radialGradient>
<radialGradient id="paint1_radial_10755_377848" cx="0" cy="0" r="1" gradientUnits="userSpaceOnUse" gradientTransform="translate(496.142 748.841) rotate(-119.878) scale(702.124 1585.38)">
<stop offset="0.16888" stop-color="#584AF6"/>
<stop offset="0.943718" stop-color="#A5FFDF" stop-opacity="0.2"/>
</radialGradient>
<radialGradient id="paint2_radial_10755_377848" cx="0" cy="0" r="1" gradientUnits="userSpaceOnUse" gradientTransform="translate(150.943 257.004) rotate(-22.9058) scale(219.894 283.491)">
<stop stop-color="#2512FF"/>
<stop offset="0.592017" stop-color="#00FFC2" stop-opacity="0"/>
</radialGradient>
<radialGradient id="paint3_radial_10755_377848" cx="0" cy="0" r="1" gradientUnits="userSpaceOnUse" gradientTransform="translate(170.342 200.517) rotate(36.9509) scale(80.6796 243.827)">
<stop offset="0.191568" stop-color="#491CFF"/>
<stop offset="1" stop-color="#1CFFD6" stop-opacity="0"/>
</radialGradient>
<radialGradient id="paint4_radial_10755_377848" cx="0" cy="0" r="1" gradientUnits="userSpaceOnUse" gradientTransform="translate(299.06 137.754) rotate(96.6363) scale(284.341 179.748)">
<stop stop-color="#82FFBB"/>
<stop offset="0.364808" stop-color="#61E2EA" stop-opacity="0.87"/>
<stop offset="0.86649" stop-color="#6BD3FF" stop-opacity="0"/>
</radialGradient>
<radialGradient id="paint5_radial_10755_377848" cx="0" cy="0" r="1" gradientUnits="userSpaceOnUse" gradientTransform="translate(266.199 300.368) rotate(3.10886) scale(178.854 88.7476)">
<stop stop-color="#3B4CE4"/>
<stop offset="0.413266" stop-color="#2F4DEA" stop-opacity="0.68659"/>
<stop offset="1" stop-color="#0047FF" stop-opacity="0"/>
</radialGradient>
<linearGradient id="paint6_linear_10755_377848" x1="283.083" y1="500.641" x2="206.899" y2="330.308" gradientUnits="userSpaceOnUse">
<stop stop-color="#2965FE"/>
<stop offset="1" stop-color="#27EEFF" stop-opacity="0.01"/>
</linearGradient>
<radialGradient id="paint7_radial_10755_377848" cx="0" cy="0" r="1" gradientUnits="userSpaceOnUse" gradientTransform="translate(213.706 421.901) rotate(-32.3271) scale(226.202 302.857)">
<stop offset="0.0225404" stop-color="#7DFFD8"/>
<stop offset="0.27388" stop-color="#2DFF9A" stop-opacity="0.7"/>
<stop offset="0.620665" stop-color="#2D4FFF" stop-opacity="0"/>
</radialGradient>
<radialGradient id="paint8_radial_10755_377848" cx="0" cy="0" r="1" gradientUnits="userSpaceOnUse" gradientTransform="translate(234.247 185.112) rotate(16.6309) scale(91.705 221.373)">
<stop offset="0.0950085" stop-color="#5446FF"/>
<stop offset="0.880008" stop-color="#4737FF" stop-opacity="0"/>
</radialGradient>
<linearGradient id="paint9_linear_10755_377848" x1="229.112" y1="327.756" x2="193.166" y2="404.783" gradientUnits="userSpaceOnUse">
<stop stop-color="#3840FF"/>
<stop offset="1" stop-color="#25FFFF" stop-opacity="0"/>
</linearGradient>
<linearGradient id="paint10_linear_10755_377848" x1="276.469" y1="371.69" x2="361.485" y2="404.784" gradientUnits="userSpaceOnUse">
<stop stop-color="#1464FF"/>
<stop offset="1" stop-color="#7BE6BF" stop-opacity="0"/>
</linearGradient>
<radialGradient id="paint11_radial_10755_377848" cx="0" cy="0" r="1" gradientUnits="userSpaceOnUse" gradientTransform="translate(263.796 399.293) rotate(-131.346) scale(138.378 185.068)">
<stop stop-color="#5CEAB7" stop-opacity="0"/>
<stop offset="0.671495" stop-color="#5CF1D6" stop-opacity="0.52"/>
<stop offset="1" stop-color="#108DE8" stop-opacity="0.92"/>
</radialGradient>
<radialGradient id="paint12_radial_10755_377848" cx="0" cy="0" r="1" gradientUnits="userSpaceOnUse" gradientTransform="translate(505.954 724.817) rotate(-119.878) scale(702.124 1585.38)">
<stop offset="0.16888" stop-color="#584AF6"/>
<stop offset="0.943718" stop-color="#A5FFDF" stop-opacity="0.5"/>
</radialGradient>
<radialGradient id="paint13_radial_10755_377848" cx="0" cy="0" r="1" gradientUnits="userSpaceOnUse" gradientTransform="translate(160.755 232.98) rotate(-22.9058) scale(219.894 283.491)">
<stop stop-color="#2512FF"/>
<stop offset="0.592017" stop-color="#00FFC2" stop-opacity="0"/>
</radialGradient>
<radialGradient id="paint14_radial_10755_377848" cx="0" cy="0" r="1" gradientUnits="userSpaceOnUse" gradientTransform="translate(180.155 176.493) rotate(36.9509) scale(80.6796 243.827)">
<stop offset="0.191568" stop-color="#491CFF"/>
<stop offset="1" stop-color="#1CFFD6" stop-opacity="0.4"/>
</radialGradient>
<radialGradient id="paint15_radial_10755_377848" cx="0" cy="0" r="1" gradientUnits="userSpaceOnUse" gradientTransform="translate(308.872 113.73) rotate(96.6363) scale(284.341 179.748)">
<stop stop-color="#82FFBB"/>
<stop offset="0.364808" stop-color="#61E2EA" stop-opacity="0.87"/>
<stop offset="0.86649" stop-color="#6BD3FF" stop-opacity="0"/>
</radialGradient>
<radialGradient id="paint16_radial_10755_377848" cx="0" cy="0" r="1" gradientUnits="userSpaceOnUse" gradientTransform="translate(276.012 276.344) rotate(3.10886) scale(178.854 88.7476)">
<stop stop-color="#3B4CE4"/>
<stop offset="0.413266" stop-color="#2F4DEA" stop-opacity="0.68659"/>
<stop offset="1" stop-color="#0047FF" stop-opacity="0"/>
</radialGradient>
<linearGradient id="paint17_linear_10755_377848" x1="292.896" y1="476.617" x2="216.712" y2="306.284" gradientUnits="userSpaceOnUse">
<stop stop-color="#2965FE"/>
<stop offset="1" stop-color="#27EEFF" stop-opacity="0.01"/>
</linearGradient>
<radialGradient id="paint18_radial_10755_377848" cx="0" cy="0" r="1" gradientUnits="userSpaceOnUse" gradientTransform="translate(223.519 397.877) rotate(-32.3271) scale(226.202 302.857)">
<stop offset="0.0225404" stop-color="#7DFFD8"/>
<stop offset="0.27388" stop-color="#2DFF9A" stop-opacity="0.7"/>
<stop offset="0.620665" stop-color="#2D4FFF" stop-opacity="0"/>
</radialGradient>
<radialGradient id="paint19_radial_10755_377848" cx="0" cy="0" r="1" gradientUnits="userSpaceOnUse" gradientTransform="translate(244.06 161.088) rotate(16.6309) scale(91.705 221.373)">
<stop offset="0.0950085" stop-color="#5446FF"/>
<stop offset="0.880008" stop-color="#4737FF" stop-opacity="0"/>
</radialGradient>
<linearGradient id="paint20_linear_10755_377848" x1="238.924" y1="303.732" x2="202.978" y2="380.759" gradientUnits="userSpaceOnUse">
<stop stop-color="#3840FF"/>
<stop offset="1" stop-color="#25FFFF" stop-opacity="0"/>
</linearGradient>
<linearGradient id="paint21_linear_10755_377848" x1="286.282" y1="347.666" x2="371.298" y2="380.76" gradientUnits="userSpaceOnUse">
<stop stop-color="#1464FF"/>
<stop offset="1" stop-color="#71FFF6" stop-opacity="0"/>
</linearGradient>
<clipPath id="clip0_10755_377848">
<rect width="572" height="572" fill="white"/>
</clipPath>
</defs>
</svg>
