<svg width="199" height="42" viewBox="0 0 199 42" fill="none" xmlns="http://www.w3.org/2000/svg">
<g clip-path="url(#clip0_10840_559483)">
<path d="M109.322 8.83606H108.422V33.8581H109.322V8.83606Z" fill="black"/>
<path d="M155.765 25.7885H154.201V33.0177H155.765V25.7885Z" fill="black"/>
<path d="M155.765 23.0153H154.201V24.5791H155.765V23.0153Z" fill="black"/>
<path d="M125.815 25.5376C123.69 25.5376 122.038 27.249 122.038 29.4325C122.038 31.5866 123.794 33.3275 125.933 33.3275C127.143 33.3275 128.264 32.7816 129.002 31.8374L127.615 31.0849C127.172 31.5423 126.567 31.7931 125.933 31.7931C124.959 31.7931 124.074 31.1882 123.735 30.2735L123.705 30.2145H129.592V29.4473C129.592 27.249 127.94 25.5376 125.815 25.5376ZM123.69 28.6654L123.705 28.6063C124.015 27.6769 124.841 27.0867 125.8 27.0867C126.759 27.0867 127.585 27.6769 127.895 28.6063L127.91 28.6654H123.69Z" fill="black"/>
<path d="M118.025 28.6949C116.624 28.4736 116.358 28.1637 116.358 27.7211C116.358 27.1752 116.83 26.8507 117.627 26.8507C118.379 26.8507 118.896 27.2048 119.073 27.8687H120.696C120.519 26.3933 119.427 25.5376 117.627 25.5376C115.901 25.5376 114.706 26.4671 114.706 27.7801C114.706 29.049 115.488 29.6981 117.406 30.0227C118.881 30.303 119.161 30.5686 119.161 31.0702C119.161 31.6456 118.63 31.9997 117.76 31.9997C117.111 31.9997 116.314 31.8226 116.063 30.8194H114.47C114.647 32.398 115.812 33.3127 117.745 33.3127C119.589 33.3127 120.843 32.339 120.843 30.9079C120.829 29.6686 120.002 28.9899 118.025 28.6949Z" fill="black"/>
<path d="M144.773 29.7131C144.773 30.8933 143.947 31.7195 142.752 31.7195C141.557 31.7195 140.73 30.8933 140.73 29.7131V25.8181H139.107V29.7131C139.107 30.7311 139.476 31.69 140.184 32.3392C140.863 32.9884 141.778 33.3424 142.752 33.3424C143.725 33.3424 144.655 32.9884 145.319 32.3392C146.012 31.69 146.396 30.7458 146.396 29.7131V25.8181H144.773V29.7131Z" fill="black"/>
<path d="M134.711 27.0871C135.434 27.0871 136.113 27.4117 136.556 27.9871L137.957 27.2937C137.234 26.2019 136.024 25.5527 134.711 25.5527C132.557 25.5527 130.816 27.2937 130.816 29.4477C130.816 31.6017 132.572 33.3426 134.711 33.3426C136.024 33.3426 137.234 32.6935 137.957 31.6017L136.556 30.9083C136.113 31.4837 135.434 31.8083 134.711 31.8083C133.413 31.8083 132.366 30.746 132.366 29.4477C132.351 28.1346 133.413 27.0871 134.711 27.0871Z" fill="black"/>
<path d="M159.601 23.9148H157.979V25.8328V27.3819V29.6982C157.979 30.7162 158.347 31.6752 159.056 32.3243C159.203 32.4719 159.351 32.6047 159.528 32.6932C160.133 33.0915 160.855 33.3128 161.623 33.3128H162.287V31.6899H161.623C160.428 31.6899 159.601 30.8637 159.601 29.6834V27.3671H162.287V25.818H159.601V23.9148Z" fill="black"/>
<path d="M149.996 25.8032H148.373V33.0473H149.996V29.9785C149.996 28.5179 151.176 27.3376 152.637 27.3376V25.7147C151.634 25.7147 150.719 26.0836 149.996 26.659V25.8032Z" fill="black"/>
<path d="M168.527 25.848L167.184 31.4839H166.933C166.771 31.4839 166.609 31.3216 166.55 31.1298L165.207 25.8333H163.525L164.986 31.5429C165.222 32.4134 165.974 33.0182 166.815 33.0773L166.137 35.9395H167.715L168.394 33.1068H168.409V33.0478L170.135 25.848H168.527Z" fill="black"/>
<path d="M129.799 13.6614C127.645 13.6614 125.904 15.4171 125.904 17.5563C125.904 19.6956 127.66 21.4513 129.799 21.4513C131.953 21.4513 133.694 19.6956 133.694 17.5563C133.694 15.4171 131.939 13.6614 129.799 13.6614ZM129.799 19.8431C128.545 19.8431 127.512 18.8251 127.512 17.5563C127.512 16.2875 128.53 15.2695 129.799 15.2695C131.053 15.2695 132.086 16.2875 132.086 17.5563C132.086 18.8251 131.053 19.8431 129.799 19.8431Z" fill="black"/>
<path d="M186.379 14.6353C185.715 14.0009 184.801 13.6469 183.812 13.6469C183.075 13.6469 182.366 13.8534 181.776 14.2222V13.9419H180.153V17.2762V18.0877V21.1859H181.776V17.2615C181.776 16.0812 182.617 15.2697 183.812 15.2697C185.007 15.2697 185.848 16.0959 185.848 17.2615V21.1564H187.471V17.2615C187.471 16.2287 187.088 15.2993 186.379 14.6353Z" fill="black"/>
<path d="M161.681 13.6613C160.944 13.6613 160.235 13.8679 159.645 14.2367V11.0647H158.022V17.276V18.0874V21.1857H159.645V17.276C159.645 16.0957 160.486 15.2842 161.681 15.2842C162.876 15.2842 163.717 16.1104 163.717 17.276V21.1709H165.34V17.276C165.34 16.2432 164.957 15.3137 164.248 14.6498C163.585 14.0007 162.67 13.6613 161.681 13.6613Z" fill="black"/>
<path d="M118.35 13.6612C117.494 13.6612 116.712 13.9415 116.063 14.3989V11.0646H114.44V21.1708H116.063V20.7134C116.712 21.1708 117.494 21.4511 118.35 21.4511C120.504 21.4511 122.245 19.6954 122.245 17.5562C122.245 15.4169 120.504 13.6612 118.35 13.6612ZM118.35 19.843C117.096 19.843 116.063 18.825 116.063 17.5562C116.063 16.2873 117.081 15.2693 118.35 15.2693C119.619 15.2693 120.637 16.2873 120.637 17.5562C120.637 18.825 119.619 19.843 118.35 19.843Z" fill="black"/>
<path d="M172.894 14.4581L172.82 14.3991C172.156 13.9122 171.36 13.6614 170.548 13.6614C168.394 13.6614 166.653 15.4171 166.653 17.5563C166.653 19.6956 168.409 21.4513 170.548 21.4513C171.374 21.4513 172.156 21.2005 172.82 20.7136L172.894 20.6546V21.1562H174.443V13.9417H172.894V14.4581ZM170.548 19.9169C169.25 19.9169 168.188 18.8546 168.188 17.5563C168.188 16.258 169.25 15.1958 170.548 15.1958C171.847 15.1958 172.894 16.258 172.894 17.5563C172.894 18.8546 171.832 19.9169 170.548 19.9169Z" fill="black"/>
<path d="M138.297 15.1958C139.02 15.1958 139.699 15.5203 140.141 16.0957L141.543 15.4023C140.82 14.3105 139.61 13.6614 138.297 13.6614C136.143 13.6614 134.402 15.4023 134.402 17.5563C134.402 19.7103 136.158 21.4513 138.297 21.4513C139.61 21.4513 140.82 20.8021 141.543 19.7103L140.141 19.0169C139.699 19.5923 139.02 19.9169 138.297 19.9169C136.999 19.9169 135.937 18.8546 135.937 17.5563C135.951 16.258 136.999 15.1958 138.297 15.1958Z" fill="black"/>
<path d="M153.449 15.1958C154.172 15.1958 154.85 15.5203 155.293 16.0957L156.694 15.4023C155.972 14.3105 154.762 13.6614 153.449 13.6614C151.295 13.6614 149.554 15.4023 149.554 17.5563C149.554 19.7103 151.309 21.4513 153.449 21.4513C154.762 21.4513 155.972 20.8021 156.694 19.7103L155.293 19.0169C154.85 19.5923 154.172 19.9169 153.449 19.9169C152.15 19.9169 151.103 18.8546 151.088 17.5563C151.088 16.258 152.15 15.1958 153.449 15.1958Z" fill="black"/>
<path d="M149.495 13.9564H147.488L145.172 16.7301H144.272V11.0647H142.723V21.1709H144.272V18.3972H145.172L147.488 21.1709H149.495L146.5 17.571L149.495 13.9564Z" fill="black"/>
<path d="M124.9 11.0647H123.336V21.1709H124.9V11.0647Z" fill="black"/>
<path d="M178.204 13.9413H176.641V21.1705H178.204V13.9413Z" fill="black"/>
<path d="M178.204 11.1681H176.641V12.732H178.204V11.1681Z" fill="black"/>
<path d="M104.114 23.1624C104.114 17.6446 99.9236 13.3218 94.568 13.3218C89.2125 13.3218 85.0225 17.6446 85.0225 23.1624C85.0225 28.5917 89.4338 33.0031 94.8631 33.0031C97.9171 33.0031 100.735 31.631 102.609 29.2261L99.1121 27.3082C97.9909 28.459 96.486 29.0934 94.8631 29.0934C92.414 29.0934 90.1862 27.559 89.301 25.2574L89.242 25.0951H104.114V23.1624ZM89.1977 21.2149L89.2567 21.0527C90.0534 18.7216 92.1337 17.2167 94.568 17.2167C97.0024 17.2167 99.0826 18.7216 99.8793 21.0527L99.9383 21.2149H89.1977Z" fill="black"/>
<path d="M82.0413 23.1624C82.0413 17.6446 77.8513 13.3218 72.4958 13.3218C67.1402 13.3218 62.9502 17.6446 62.9502 23.1624C62.9502 28.5917 67.3615 33.0031 72.7908 33.0031C75.8448 33.0031 78.6628 31.631 80.5365 29.2261L77.0399 27.3082C75.9186 28.459 74.4137 29.0934 72.7908 29.0934C70.3417 29.0934 68.114 27.559 67.2287 25.2574L67.1697 25.0951H82.0413V23.1624ZM67.1255 21.2149L67.1845 21.0527C67.9812 18.7216 70.0614 17.2167 72.4958 17.2167C74.9301 17.2167 77.0104 18.7216 77.8071 21.0527L77.8661 21.2149H67.1255Z" fill="black"/>
<path d="M33.7977 33.0031C28.3684 33.0031 23.957 28.5917 23.957 23.1624C23.957 17.7331 28.3684 13.3218 33.7977 13.3218C37.1025 13.3218 40.1565 14.9594 42.0007 17.7183L38.4598 19.474C37.3238 18.0429 35.6271 17.2167 33.7977 17.2167C30.5224 17.2167 27.852 19.8871 27.852 23.1624C27.852 26.4377 30.5224 29.1081 33.7977 29.1081C35.6271 29.1081 37.3238 28.2819 38.4598 26.8508L42.0007 28.6065C40.1712 31.3507 37.1025 33.0031 33.7977 33.0031Z" fill="black"/>
<path d="M16.7277 14.0447V15.3135L16.5359 15.1807C14.854 13.9562 12.8623 13.3218 10.782 13.3218C5.35273 13.3218 0.941406 17.7331 0.941406 23.1624C0.941406 28.5917 5.35273 33.0031 10.782 33.0031C12.8623 33.0031 14.854 32.3539 16.5359 31.1441L16.7277 31.0113V32.2801H20.6227V14.0447H16.7277ZM10.782 29.0934C7.50675 29.0934 4.83635 26.423 4.83635 23.1477C4.83635 19.8724 7.50675 17.202 10.782 17.202C14.0573 17.202 16.7277 19.8871 16.7277 23.1624C16.7277 26.4377 14.0573 29.0934 10.782 29.0934Z" fill="black"/>
<path d="M57.0194 32.2803L51.177 25.2576H48.8754V32.2803H44.9805V6.75659H48.8754V21.0528H51.177L57.0046 14.0449H62.0799L54.4965 23.1626L62.0946 32.2803H57.0194Z" fill="black"/>
</g>
<defs>
<clipPath id="clip0_10840_559483">
<rect width="197.647" height="42" fill="white" transform="translate(0.941406)"/>
</clipPath>
</defs>
</svg>
