<svg width="198" height="42" viewBox="0 0 198 42" fill="none" xmlns="http://www.w3.org/2000/svg">
<g clip-path="url(#clip0_10840_559479)">
<path d="M112.497 27.1117C109.868 27.1117 107.751 24.807 107.751 21.9915C107.751 19.176 109.892 16.8714 112.497 16.8714C115.102 16.8714 117.244 19.176 117.244 21.9915C117.244 24.807 115.128 27.1117 112.497 27.1117ZM117.267 15.5197V17.5681C116.103 16.1491 114.404 15.2634 112.497 15.2634C109.006 15.2634 106.189 18.2663 106.189 21.9675C106.189 25.6687 109.028 28.67 112.497 28.67C114.405 28.67 116.104 27.786 117.267 26.3653V28.4137H118.826V15.5197H117.267Z" fill="black"/>
<path d="M100.14 17.9412V15.5197H98.5801V28.4153H100.14V22.1533C100.14 19.8262 101.744 17.7778 103.98 17.2653C104.538 17.1484 105.144 17.078 105.819 17.078V15.5181C105.051 15.5181 104.306 15.5869 103.656 15.7503C102.237 16.0994 101.027 16.8666 100.143 17.9396H100.141L100.14 17.9412Z" fill="black"/>
<path d="M90.2965 27.1118C87.4575 27.1118 85.1773 24.8073 85.1773 21.9917C85.1773 19.1761 87.4814 16.8715 90.2965 16.8715C93.1114 16.8715 95.4156 19.1761 95.4156 21.9917C95.4156 24.8073 93.1355 27.1118 90.2965 27.1118ZM90.2965 15.2876C86.5976 15.2876 83.5938 18.2905 83.5938 21.99C83.5938 25.6896 86.5959 28.6942 90.2965 28.6942C93.9969 28.6942 96.9976 25.6913 96.9976 21.99C96.9976 18.2889 93.9952 15.2876 90.2965 15.2876Z" fill="black"/>
<path d="M78.4969 17.0813H82.5689V15.5214H78.4969V12.6594H76.9373V15.5214H75.168V17.0813H76.9373V28.417H82.5689V26.857H78.4969V17.0829V17.0813Z" fill="black"/>
<path d="M67.7949 17.9412V15.5197H66.2354V28.4153H67.7949V22.1533C67.7949 19.8262 69.3994 17.7778 71.6348 17.2653C72.1935 17.1484 72.7988 17.078 73.4746 17.078V15.5181C72.7059 15.5181 71.9614 15.5869 71.3114 15.7503C69.891 16.0994 68.6821 16.8666 67.7966 17.9396L67.7949 17.9412Z" fill="black"/>
<path d="M58.09 16.8698C60.5575 16.8698 62.628 18.7564 62.9995 21.1988H53.2031C53.5521 18.7308 55.6241 16.8698 58.09 16.8698ZM58.09 27.0892C55.6226 27.0892 53.5521 25.2027 53.1807 22.7603H64.6071V21.9916C64.6071 18.3144 61.6735 15.3115 58.0916 15.3115C54.5097 15.3115 51.5762 18.3144 51.5762 21.9916C51.5762 25.6687 54.5097 28.6717 58.0916 28.6717C60.6745 28.6717 63.001 27.1117 64.0482 24.6918H62.3029C61.3966 26.1796 59.8146 27.1133 58.0916 27.0892H58.09Z" fill="black"/>
<path d="M44.1268 27.0892C41.4032 27.0892 39.1709 24.7845 39.1709 21.9691C39.1709 19.1536 41.4046 16.849 44.1268 16.849C45.8961 16.849 47.4541 17.8019 48.3381 19.2465H50.0833C49.0602 16.9194 46.7785 15.2891 44.1268 15.2891C40.5416 15.2891 37.6113 18.292 37.6113 21.9691C37.6113 25.6463 40.5449 28.6492 44.1268 28.6492C46.7095 28.6492 49.0361 27.0909 50.0833 24.6918H48.3381C47.4541 26.1811 45.8722 27.0892 44.1268 27.0892Z" fill="black"/>
<path d="M30.2673 13.852V5.49316H0.551758V13.852M30.2673 13.852L15.4121 22.2087L0.551758 13.852M30.2673 13.852L30.2673 30.5666M30.2673 13.852L30.2673 16.7423M30.2673 13.852L15.41 5.49316M0.551758 13.852V30.5667M0.551758 13.852V16.7423M0.551758 13.852L15.41 5.49316M15.41 5.49316L0.551758 30.5667M15.41 5.49316L30.2673 30.5666M15.41 5.49316L15.41 22.2089M0.551758 30.5667L15.41 22.2089M0.551758 30.5667L15.4121 38.9234L30.2673 30.5666M30.2673 30.5666L15.41 22.2089M15.41 22.2089V38.9236" stroke="black" stroke-width="0.830271" stroke-miterlimit="10"/>
<path d="M30.2673 13.852V5.49316H0.551758V13.852M30.2673 13.852L15.4121 22.2087L0.551758 13.852M30.2673 13.852L30.2673 30.5666M30.2673 13.852L30.2673 16.7423M30.2673 13.852L15.41 5.49316M0.551758 13.852V30.5667M0.551758 13.852V16.7423M0.551758 13.852L15.41 5.49316M15.41 5.49316L0.551758 30.5667M15.41 5.49316L30.2673 30.5666M15.41 5.49316L15.41 22.2089M0.551758 30.5667L15.41 22.2089M0.551758 30.5667L15.4121 38.9234L30.2673 30.5666M30.2673 30.5666L15.41 22.2089M15.41 22.2089V38.9236" stroke="black" stroke-width="0.830271" stroke-miterlimit="10"/>
</g>
<defs>
<clipPath id="clip0_10840_559479">
<rect width="118.851" height="34.5882" fill="white" transform="translate(0 4.94116)"/>
</clipPath>
</defs>
</svg>
