<svg width="198" height="42" viewBox="0 0 198 42" fill="none" xmlns="http://www.w3.org/2000/svg">
<g clip-path="url(#clip0_10840_559480)">
<path d="M46.2363 17.0959C46.2489 16.7056 46.4069 16.334 46.6793 16.0541C46.819 15.9242 46.9789 15.8177 47.1525 15.7388C47.334 15.667 47.5256 15.6244 47.7204 15.6125H53.2432C53.5341 15.616 53.8176 15.7046 54.0587 15.8673C54.2998 16.03 54.4881 16.2596 54.6003 16.5281C54.672 16.7095 54.7146 16.9011 54.7265 17.0959V18.4249H53.2749V17.0959H47.7522V24.3863H53.2749V23.0572H54.7272V24.3863C54.7238 24.6772 54.6352 24.9607 54.4725 25.2018C54.3098 25.4429 54.0801 25.6312 53.8116 25.7434C53.6303 25.8151 53.4386 25.8577 53.2439 25.8696H47.7212C47.4302 25.8661 47.1467 25.7776 46.9056 25.6149C46.6645 25.4522 46.4762 25.2224 46.3641 24.954C46.2922 24.7727 46.2495 24.5809 46.2378 24.3863V17.0959" fill="black"/>
<path d="M65.802 15.6439V25.8375H64.3504V21.4812H58.5117V25.8375H57.0283V15.6439H58.5117V20.0304H64.3504V15.6439H65.802Z" fill="black"/>
<path d="M72.9346 15.6439L76.8796 25.8375H75.428L74.5124 23.502H69.9045L68.9889 25.8375H67.5381L71.4831 15.6439H72.9346ZM70.473 22.0505H73.9432L72.2074 17.5378L70.473 22.0505Z" fill="black"/>
<path d="M80.0688 15.6439H78.6172V25.8375H80.0688V15.6439Z" fill="black"/>
<path d="M84.1703 25.8375H82.7188V15.6439H84.1703L90.2926 23.5655V15.6439H91.7442V25.8375H90.2926L84.1703 17.9158V25.8375Z" fill="black"/>
<path d="M95.8482 21.4823C95.5574 21.4789 95.2739 21.3903 95.0327 21.2276C94.7916 21.0649 94.6033 20.8353 94.4913 20.5669C94.4194 20.3854 94.3767 20.1938 94.365 19.999V17.0959C94.3776 16.7056 94.5356 16.334 94.808 16.0541C94.9477 15.9242 95.1075 15.8177 95.2812 15.7388C95.4627 15.667 95.6543 15.6244 95.849 15.6125H100.804C101.095 15.616 101.378 15.7046 101.62 15.8673C101.861 16.03 102.049 16.2596 102.161 16.5281C102.233 16.7095 102.276 16.9011 102.287 17.0959V18.4249H100.836V17.0959H95.88V19.999H100.835C101.126 20.0024 101.409 20.091 101.651 20.2537C101.892 20.4164 102.08 20.6462 102.192 20.9146C102.264 21.0959 102.307 21.2877 102.318 21.4823V24.3855C102.315 24.6764 102.226 24.9599 102.064 25.2011C101.901 25.4422 101.671 25.6304 101.403 25.7426C101.221 25.8144 101.03 25.857 100.835 25.8689H95.7537C95.4629 25.8654 95.1794 25.7768 94.9382 25.6141C94.6971 25.4515 94.5088 25.2217 94.3968 24.9533C94.3249 24.7719 94.2822 24.5802 94.2705 24.3855V23.0565H95.722V24.3855H100.803V21.4823H95.8482Z" fill="black"/>
<path d="M104.874 15.6439H112.322V17.0954H106.326V20.0304H111.439V21.482H106.326V24.3859H112.322V25.8375H104.874V15.6439Z" fill="black"/>
<path d="M114.499 17.0959C114.512 16.7056 114.67 16.334 114.942 16.0541C115.082 15.9242 115.242 15.8177 115.415 15.7388C115.597 15.667 115.788 15.6244 115.983 15.6125H121.506C121.797 15.616 122.08 15.7046 122.321 15.8673C122.563 16.03 122.751 16.2596 122.863 16.5281C122.935 16.7095 122.977 16.9011 122.989 17.0959V18.4249H121.538V17.0959H116.015V24.3863H121.538V23.0572H122.99V24.3863C122.986 24.6772 122.898 24.9607 122.735 25.2018C122.572 25.4429 122.343 25.6312 122.074 25.7434C121.893 25.8151 121.701 25.8577 121.507 25.8696H115.984C115.693 25.8661 115.409 25.7776 115.168 25.6149C114.927 25.4522 114.739 25.2224 114.627 24.954C114.555 24.7727 114.512 24.5809 114.501 24.3863V17.0959" fill="black"/>
<path d="M125.293 15.6439H126.745V24.3859H132.584V15.6439H134.036V24.3859C134.032 24.6767 133.944 24.9602 133.781 25.2014C133.618 25.4426 133.388 25.6308 133.12 25.7429C132.939 25.8148 132.747 25.8574 132.552 25.8692H126.714C126.423 25.8657 126.14 25.7772 125.899 25.6145C125.657 25.4518 125.469 25.2221 125.356 24.9536C125.285 24.7723 125.243 24.5806 125.23 24.3859V15.6439" fill="black"/>
<path d="M144.733 19.2736C144.733 20.6935 144.134 21.5145 142.904 21.7035L144.829 25.8382H143.219L141.325 21.767H138.137V25.8382H136.686V15.6439H142.273C143.913 15.6439 144.733 16.4642 144.733 18.1373V19.2736ZM138.106 20.3154H142.146C142.451 20.3334 142.752 20.2441 142.998 20.0629C143.189 19.8221 143.28 19.5167 143.251 19.2109V18.2C143.268 17.8953 143.179 17.5938 142.998 17.3481C142.757 17.1571 142.452 17.0667 142.146 17.0954H138.106V20.3154Z" fill="black"/>
<path d="M148.616 15.6439H147.164V25.8375H148.616V15.6439Z" fill="black"/>
<path d="M150.352 15.6439H158.526V17.0954H155.18V25.8375H153.729V17.0954H150.352V15.6439Z" fill="black"/>
<path d="M160.955 15.6439L163.923 20.4091L166.89 15.6439H168.593L164.649 21.798V25.8375H163.197V21.798L159.252 15.6439H160.955Z" fill="black"/>
<path d="M29.5084 29.2649L15.1758 4.44421" stroke="black" stroke-width="0.28" stroke-miterlimit="10"/>
<path d="M0.841797 12.7101L29.5071 29.2659" stroke="black" stroke-width="0.28" stroke-miterlimit="10"/>
<path d="M29.5071 12.7101L0.841797 29.2659" stroke="black" stroke-width="0.28" stroke-miterlimit="10"/>
<path d="M15.1758 37.5558V4.44421" stroke="black" stroke-width="0.28" stroke-miterlimit="10"/>
<path d="M29.5071 29.2659H0.841797" stroke="black" stroke-width="0.28" stroke-miterlimit="10"/>
<path d="M15.1745 4.44421L0.841797 29.2649" stroke="black" stroke-width="0.28" stroke-miterlimit="10"/>
<path d="M29.5071 12.7101H0.841797" stroke="black" stroke-width="0.28" stroke-miterlimit="10"/>
<path d="M15.1758 37.5567L29.5084 12.7101" stroke="black" stroke-width="0.28" stroke-miterlimit="10"/>
<path d="M0.841797 12.7101L15.1745 37.5567" stroke="black" stroke-width="0.28" stroke-miterlimit="10"/>
<path d="M29.5071 29.2649V12.7092L15.1745 4.44421L0.841797 12.7092V29.2649L15.1745 37.5558L29.5071 29.2649Z" stroke="black" stroke-width="0.28" stroke-miterlimit="10"/>
<path d="M0.841797 21H29.5071" stroke="black" stroke-width="0.28" stroke-miterlimit="10"/>
<path d="M7.87988 33.3444L22.4481 8.6543" stroke="black" stroke-width="0.28" stroke-miterlimit="10"/>
<path d="M22.1059 33.5549L8.21777 8.4469" stroke="black" stroke-width="0.28" stroke-miterlimit="10"/>
<path d="M22.237 16.8684L19.909 12.8142L10.4936 12.7101L7.9043 16.8684L22.237 25.1334L19.6476 29.2681H10.2847L7.9043 25.1334" stroke="black" stroke-width="3" stroke-miterlimit="10" stroke-linecap="round" stroke-linejoin="round"/>
<path d="M22.342 8.65274L15.071 4.44421L0.738281 12.7092V29.2649L15.071 37.5558L22.0283 33.554" stroke="black" stroke-width="2" stroke-miterlimit="10" stroke-linecap="round" stroke-linejoin="round"/>
</g>
<defs>
<clipPath id="clip0_10840_559480">
<rect width="169.235" height="34.5882" fill="white" transform="translate(0 3.70593)"/>
</clipPath>
</defs>
</svg>
