<svg width="199" height="42" viewBox="0 0 199 42" fill="none" xmlns="http://www.w3.org/2000/svg">
<g clip-path="url(#clip0_10840_559481)">
<path d="M66.7311 9.82779V23.4747H83.4992V19.8173H70.374V16.0508H83.4992V4.91492H71.499L66.7311 9.82779ZM79.8027 8.62686V12.2842H70.3204V11.3562L72.9991 8.62686H79.8027ZM113.767 8.62686H124.16V4.9695H112.267L107.392 9.82779V16.0508H120.517V19.8173H107.392V23.4747H124.16V12.3388H111.089V11.3017L113.767 8.62686ZM87.0885 9.82779V23.4747H90.785V11.3562L93.3564 8.62686H100.16V23.4747H103.857V4.91492H91.8564L87.0885 9.82779ZM25.9628 24.621V38.2679H42.7309V34.6105H29.6593V30.9531H42.7309V19.8719H30.7843L25.9628 24.621ZM39.088 23.4747V27.132H29.6057V26.0949L32.2843 23.3655H39.088V23.4747ZM9.19479 20.9636V8.62686H5.60547V38.3224H9.19479V26.204L11.8734 23.4747H18.677V38.3224H22.3735V19.7627H10.3734L9.19479 20.9636ZM63.0347 30.8985V25.9311L57.6775 21.6733L63.0347 17.4154V12.3388H59.4453V15.5049L54.6774 19.2714L49.9631 15.5049V12.3388H46.3738V17.3609L51.731 21.6187L46.3738 25.8765V30.844H49.9631V27.6779L54.6774 23.9114L59.4453 27.6779V30.844H63.0347V30.8985ZM49.9631 4.91492H44.4987L39.0344 10.4828V16.0508H42.6237V12.0659L45.9452 8.68145H49.8559V4.91492H49.9631ZM66.7311 31.2261L63.3561 34.6651H59.4453V38.3224H64.9097L70.374 32.7545V27.1866H66.7847V31.2261H66.7311Z" fill="black"/>
</g>
<defs>
<clipPath id="clip0_10840_559481">
<rect width="118.588" height="33.3529" fill="white" transform="translate(5.58887 4.94116)"/>
</clipPath>
</defs>
</svg>
