<svg width="199" height="42" viewBox="0 0 199 42" fill="none" xmlns="http://www.w3.org/2000/svg">
<path d="M10.7486 18.5525L10.8771 15.7606H10.7235L7.85611 20.4479H7.24168L4.24585 15.7606H4.11737L4.27098 18.2704V28.1018H0.941406V10.1799H4.5014L7.57403 15.1466H7.67597L10.7235 10.1799H14.2574V28.1018H10.7486V18.5525Z" fill="black"/>
<path d="M16.79 25.2862H21.2977V18.116H16.79V15.3012H24.625V25.2862H29.3626V28.1019H16.79V25.2862ZM20.6819 11.8185C20.6819 11.2902 20.8793 10.8377 21.2731 10.4621C21.665 10.0864 22.2115 9.89746 22.9106 9.89746C23.6275 9.89746 24.2005 10.0864 24.6273 10.4621C25.0546 10.8377 25.2683 11.2902 25.2683 11.8185C25.2683 12.365 25.0546 12.8142 24.6273 13.1642C24.2014 13.5142 23.6284 13.6879 22.9106 13.6879C22.2115 13.6879 21.665 13.5142 21.2731 13.1642C20.8783 12.8142 20.6819 12.365 20.6819 11.8185Z" fill="black"/>
<path d="M36.045 21.4965L31.589 15.3005H35.5581L38.4515 19.5764L41.473 15.3005H45.0828L40.7049 21.4463L45.3369 28.1012H41.473L38.2216 23.391L34.9186 28.1012H31.2822L36.045 21.4965Z" fill="black"/>
<path d="M59.6508 14.3514C59.6508 14.7969 59.5954 15.2387 59.4837 15.6823C59.3738 16.1277 59.1904 16.5304 58.9335 16.8995C58.6789 17.2658 58.3442 17.5921 57.9346 17.8723C57.524 18.1535 57.0311 18.3643 56.4488 18.4998V18.6534C56.9626 18.7381 57.4477 18.8824 57.909 19.09C58.3707 19.2939 58.7715 19.5755 59.1136 19.9339C59.4539 20.2928 59.7229 20.7276 59.9198 21.2405C60.1158 21.753 60.214 22.3582 60.214 23.0564C60.214 23.9776 60.0176 24.7754 59.6233 25.4517C59.2319 26.1244 58.7068 26.6769 58.05 27.1019C57.3928 27.5282 56.6438 27.8443 55.8101 28.0491C54.9709 28.2539 54.1097 28.3563 53.2216 28.3563C52.9311 28.3563 52.5606 28.3563 52.1077 28.3563C51.6557 28.3563 51.1674 28.3452 50.6484 28.32C50.1275 28.2921 49.5974 28.2539 49.0602 28.2027C48.524 28.1525 48.0324 28.0766 47.5879 27.9719V10.3069C47.9114 10.2552 48.2842 10.204 48.7013 10.1524C49.1202 10.1035 49.5685 10.0616 50.0479 10.0262C50.5241 9.99177 51.0166 9.96616 51.5189 9.94708C52.022 9.93265 52.5215 9.92334 53.0182 9.92334C53.8542 9.92334 54.6697 9.98618 55.4624 10.1142C56.2561 10.2422 56.9654 10.468 57.5864 10.7924C58.2097 11.1187 58.7091 11.5697 59.0862 12.1507C59.4627 12.7297 59.6508 13.4652 59.6508 14.3514ZM52.0695 17.7062C52.312 17.7062 52.5951 17.6969 52.9167 17.6824C53.2393 17.6633 53.5055 17.6377 53.715 17.6052C54.3751 17.4013 54.9467 17.0987 55.4256 16.6923C55.9028 16.2869 56.1429 15.7558 56.1429 15.0976C56.1429 14.6577 56.0554 14.2928 55.8809 14.0065C55.7059 13.7193 55.4764 13.4922 55.1901 13.3227C54.9024 13.1547 54.5766 13.0355 54.2107 12.969C53.8453 12.9015 53.4632 12.8661 53.0615 12.8661C52.6086 12.8661 52.192 12.8754 51.8079 12.8926C51.4258 12.9089 51.1297 12.9345 50.9221 12.9671V17.7057L52.0695 17.7062ZM53.1988 25.414C53.6247 25.414 54.0399 25.3624 54.4407 25.2595C54.8415 25.1585 55.1962 25.003 55.5024 24.7931C55.8115 24.5813 56.0568 24.3141 56.2458 23.9929C56.4334 23.6727 56.527 23.291 56.527 22.8511C56.527 22.2939 56.4162 21.8536 56.1932 21.5357C55.9702 21.2131 55.6807 20.9655 55.3214 20.7876C54.963 20.6103 54.5631 20.4967 54.119 20.446C53.6759 20.3962 53.2323 20.3706 52.7887 20.3706H50.9203V25.2618C51.0045 25.2963 51.1409 25.3209 51.329 25.3391C51.5165 25.3545 51.7176 25.3684 51.9308 25.3763C52.1445 25.3861 52.366 25.3936 52.5965 25.4038C52.8278 25.4103 53.028 25.414 53.1988 25.414Z" fill="black"/>
<path d="M69.0731 24.4926H70.0482L72.532 15.3003H75.9622L72.3254 26.8475C72.0019 27.8031 71.6849 28.6796 71.379 29.4704C71.0709 30.2669 70.712 30.9534 70.3033 31.5325C69.8937 32.1144 69.4101 32.5626 68.8566 32.8773C68.3022 33.1929 67.625 33.3525 66.8201 33.3525C66.4287 33.3525 66.0568 33.3018 65.7067 33.1989C65.3576 33.0951 65.0355 32.9736 64.7464 32.8289C64.4555 32.6818 64.2 32.5282 63.9784 32.3671C63.7564 32.2051 63.5771 32.0552 63.4426 31.9198L65.1574 29.6399C65.3804 29.8288 65.6448 30.0025 65.9511 30.1654C66.2578 30.3274 66.5483 30.4079 66.8206 30.4079C67.334 30.4079 67.7395 30.2296 68.0378 29.8707C68.3367 29.5123 68.6225 28.9244 68.8952 28.1033H67.0776L61.7529 15.3026H65.3632L69.0731 24.4926Z" fill="black"/>
<path d="M79.6967 18.1136H77.1641V15.2989H79.6967V12.3789L83.0245 11.4326V15.2994H89.7329V18.1141H83.0245V21.777C83.0245 23.0901 83.2712 24.0411 83.7669 24.6308C84.2617 25.2215 84.9543 25.5157 85.8415 25.5157C86.301 25.5157 86.7199 25.4585 87.0946 25.3491C87.4707 25.2392 87.8059 25.0982 88.1075 24.9264C88.4054 24.756 88.6791 24.5675 88.9263 24.3636C89.173 24.1579 89.4015 23.9708 89.6045 23.8009L91.141 26.1045C90.8501 26.4448 90.4894 26.7557 90.0527 27.0392C89.6175 27.3199 89.1492 27.5699 88.6451 27.7826C88.1419 27.9944 87.6169 28.161 87.0699 28.2802C86.5244 28.3994 85.9872 28.4599 85.4561 28.4599C83.5458 28.4599 82.1079 27.9264 81.1421 26.8595C80.1785 25.7931 79.6958 24.0983 79.6958 21.7774V18.1146L79.6967 18.1136Z" fill="black"/>
<path d="M105.763 26.7442C105.542 26.9494 105.256 27.1496 104.906 27.346C104.557 27.5425 104.146 27.7268 103.677 27.8972C103.205 28.068 102.692 28.2034 102.128 28.3063C101.565 28.4092 100.966 28.4581 100.334 28.4581C99.2408 28.4581 98.2656 28.3063 97.4021 27.9982C96.5405 27.6928 95.8111 27.2436 95.2139 26.6543C94.6167 26.0669 94.1587 25.3589 93.8463 24.5289C93.5275 23.7036 93.3711 22.7606 93.3711 21.7016C93.3711 20.5761 93.5494 19.5897 93.9069 18.7435C94.2657 17.8996 94.7573 17.1972 95.3806 16.6316C96.0025 16.0698 96.7342 15.648 97.5679 15.3632C98.4043 15.083 99.3083 14.9424 100.283 14.9424C100.932 14.9424 101.601 15.028 102.291 15.1989C102.983 15.3688 103.619 15.6643 104.2 16.0823C104.781 16.4994 105.254 17.0589 105.62 17.759C105.987 18.4591 106.172 19.3472 106.172 20.4229C106.172 21.1551 106.086 21.9488 105.915 22.8034H96.6983C96.7151 23.3503 96.8291 23.8116 97.0428 24.1859C97.2565 24.5615 97.5376 24.8697 97.8872 25.1071C98.2363 25.3454 98.6375 25.5223 99.0909 25.6307C99.5438 25.742 100.025 25.7974 100.537 25.7974C101.562 25.7974 102.402 25.6782 103.058 25.4394C103.716 25.1978 104.249 24.9088 104.659 24.5685L105.763 26.7442ZM100.235 17.6035C99.7901 17.6035 99.3716 17.6636 98.9792 17.7865C98.5863 17.9084 98.2326 18.0858 97.9179 18.3218C97.6 18.5564 97.3426 18.8482 97.1364 19.1945C96.9325 19.5427 96.8138 19.9356 96.7775 20.3689H103.077C103.077 19.5171 102.842 18.8426 102.371 18.3478C101.903 17.853 101.19 17.6035 100.235 17.6035Z" fill="black"/>
<path d="M117.745 24.5675C117.745 24.2267 117.537 23.954 117.117 23.7464C116.7 23.5425 116.182 23.3544 115.57 23.1855C114.955 23.0128 114.28 22.8373 113.546 22.6581C112.813 22.4789 112.138 22.2317 111.522 21.9161C110.907 21.5996 110.391 21.1988 109.975 20.7133C109.556 20.226 109.346 19.5971 109.346 18.8314C109.346 18.1988 109.487 17.643 109.768 17.1668C110.049 16.6888 110.434 16.2815 110.92 15.9515C111.407 15.6168 111.987 15.3649 112.661 15.195C113.335 15.0242 114.067 14.9404 114.851 14.9404C115.685 14.9404 116.42 14.9986 117.052 15.1178C117.684 15.2369 118.235 15.3831 118.704 15.5544C119.174 15.7243 119.574 15.9151 119.909 16.1297C120.242 16.3443 120.526 16.5342 120.766 16.7051L119.359 18.9836C119.102 18.8318 118.808 18.6736 118.476 18.5107C118.142 18.3496 117.792 18.1988 117.425 18.0633C117.059 17.926 116.675 17.8162 116.273 17.7277C115.871 17.643 115.474 17.6016 115.082 17.6016C114.364 17.6016 113.785 17.6951 113.341 17.8841C112.898 18.0703 112.675 18.3622 112.675 18.7541C112.675 19.0623 112.883 19.3094 113.303 19.497C113.72 19.6851 114.237 19.8596 114.853 20.0207C115.464 20.1845 116.14 20.36 116.874 20.5481C117.608 20.7333 118.282 20.9791 118.898 21.2756C119.511 21.5749 120.029 21.9645 120.447 22.4412C120.864 22.9201 121.076 23.5341 121.076 24.2859C121.076 25.5832 120.6 26.6026 119.651 27.345C118.704 28.087 117.301 28.4589 115.441 28.4589C113.972 28.4589 112.705 28.2415 111.638 27.8072C110.572 27.3706 109.712 26.8637 109.065 26.2846L110.603 23.8762C110.826 24.0643 111.118 24.2738 111.485 24.5046C111.852 24.7337 112.266 24.9455 112.725 25.133C113.187 25.3202 113.677 25.4775 114.199 25.606C114.718 25.734 115.236 25.7987 115.748 25.7987C116.295 25.7987 116.763 25.7051 117.156 25.5171C117.549 25.3267 117.745 25.0111 117.745 24.5675Z" fill="black"/>
<path d="M134.37 8.64837C133.27 10.6429 132.452 12.5761 131.92 14.4478C131.386 16.3171 131.117 18.187 131.117 20.0573C131.117 21.9099 131.385 23.7802 131.92 25.6603C132.452 27.5431 133.268 29.4879 134.37 31.4904H131.519C130.194 29.561 129.211 27.66 128.568 25.7827C127.926 23.9124 127.606 21.9997 127.606 20.0559C127.606 18.1195 127.929 16.2101 128.575 14.3272C129.223 12.4453 130.203 10.5499 131.519 8.64697H134.37V8.64837Z" fill="black"/>
<path d="M142.095 8.64941H144.945C146.262 10.5532 147.243 12.4477 147.889 14.3297C148.535 16.2125 148.859 18.1215 148.859 20.0583C148.859 22.0022 148.538 23.9148 147.896 25.7851C147.254 27.6615 146.271 29.5634 144.945 31.4919H142.095C143.194 29.4889 144.013 27.5451 144.546 25.6627C145.08 23.7826 145.348 21.9114 145.348 20.0597C145.348 18.1894 145.081 16.3196 144.546 14.4502C144.013 12.5771 143.195 10.644 142.095 8.64941Z" fill="black"/>
</svg>
