<svg width="198" height="42" viewBox="0 0 198 42" fill="none" xmlns="http://www.w3.org/2000/svg">
<g clip-path="url(#clip0_10840_559476)">
<g clip-path="url(#clip1_10840_559476)">
<path d="M81.6931 15.2767L71.5303 21.0697V32.7641L81.8673 26.8822L81.6931 15.2767Z" fill="url(#paint0_linear_10840_559476)"/>
<path d="M71.529 33.2888C71.2021 33.2888 70.8776 33.2042 70.5852 33.0372L61.501 27.8148C60.9196 27.4807 60.5576 26.858 60.5576 26.1876V15.7429C60.5576 15.0747 60.9196 14.4498 61.501 14.1157L70.5852 8.89769C71.1671 8.56356 71.8905 8.56356 72.4724 8.89769L81.5566 14.12C82.1385 14.4541 82.5 15.0768 82.5 15.7473V26.192C82.5 26.8602 82.1385 27.485 81.5566 27.8191L72.4724 33.0415C72.1824 33.2086 71.856 33.2932 71.529 33.2932V33.2888ZM71.529 9.90224C71.422 9.90224 71.313 9.93044 71.2172 9.98468L62.133 15.207C61.9413 15.3177 61.8216 15.5238 61.8216 15.7429V26.1876C61.8216 26.4089 61.9413 26.6128 62.133 26.7235L71.2172 31.9459C71.4089 32.0565 71.6487 32.0565 71.8404 31.9459L80.9246 26.7235C81.1163 26.6128 81.2365 26.4067 81.2365 26.1876V15.7429C81.2365 15.5216 81.1163 15.3177 80.9246 15.207L71.8404 9.98468C71.7446 9.93044 71.638 9.90224 71.529 9.90224Z" fill="black"/>
<path d="M71.5273 27.884C71.3006 27.884 71.0763 27.8255 70.8739 27.7105L65.9884 24.903C65.5855 24.6708 65.335 24.2391 65.335 23.7769V18.1597C65.335 17.6954 65.5855 17.2658 65.9884 17.0337L70.8739 14.2261C71.2768 13.994 71.7779 13.994 72.1812 14.2261L77.0663 17.0337C77.4696 17.2658 77.7202 17.6976 77.7202 18.1597V23.7769C77.7202 24.2391 77.4696 24.6708 77.0663 24.903L72.1812 27.7105C71.9808 27.8255 71.754 27.884 71.5273 27.884ZM71.5273 15.3088C71.5273 15.3088 71.5123 15.3088 71.5054 15.3153L66.6203 18.1228C66.6072 18.1315 66.5984 18.1445 66.5984 18.1597V23.7769C66.5984 23.7921 66.6072 23.8051 66.6203 23.8138L71.5054 26.6213C71.5186 26.63 71.5341 26.6278 71.5468 26.6213L76.4324 23.8138C76.4455 23.8073 76.4543 23.7921 76.4543 23.7769V18.1597C76.4543 18.1445 76.4455 18.1315 76.4324 18.1228L71.5468 15.3153C71.5468 15.3153 71.5341 15.3088 71.5254 15.3088H71.5273Z" fill="#212121"/>
<path d="M70.4678 20.5281V21.4025C70.4678 21.5088 70.5247 21.6065 70.6162 21.6586L71.3766 22.0968C71.468 22.1489 71.5814 22.1489 71.6729 22.0968L72.4333 21.6586C72.5248 21.6065 72.5817 21.5088 72.5817 21.4025V20.5281C72.5817 20.4219 72.5248 20.3242 72.4333 20.2721L71.6729 19.8339C71.5814 19.7818 71.468 19.7818 71.3766 19.8339L70.6162 20.2721C70.5247 20.3242 70.4678 20.4219 70.4678 20.5281Z" fill="#212121"/>
<path d="M81.3834 14.634L71.1826 20.4253L71.8088 21.5184L82.0095 15.7272L81.3834 14.634Z" fill="#212121"/>
<path d="M11.4853 9.87329C5.31435 9.87329 0.293945 14.8721 0.293945 21.0166C0.293945 27.161 5.31435 32.162 11.4853 32.162C17.6561 32.162 22.6787 27.1632 22.6787 21.0166C22.6787 14.87 17.6583 9.87329 11.4853 9.87329ZM11.4853 30.8971C6.01596 30.8971 1.5643 26.4646 1.5643 21.0166C1.5643 15.5686 6.01596 11.1382 11.4853 11.1382C16.9545 11.1382 21.4084 15.5686 21.4084 21.0166C21.4084 26.4646 16.9567 30.8971 11.4853 30.8971Z" fill="#212121"/>
<path d="M123.965 10.15H122.664V31.8855H123.965V10.15Z" fill="#212121"/>
<path d="M147.206 9.87329C141.035 9.87329 136.013 14.8721 136.013 21.0166C136.013 27.161 141.035 32.162 147.206 32.162C153.377 32.162 158.4 27.1632 158.4 21.0166C158.4 14.87 153.379 9.87329 147.206 9.87329ZM147.206 30.8971C141.735 30.8971 137.285 26.4646 137.285 21.0166C137.285 15.5686 141.735 11.1382 147.206 11.1382C152.678 11.1382 157.129 15.5708 157.129 21.0166C157.129 26.4624 152.678 30.8971 147.206 30.8971Z" fill="#212121"/>
<path d="M41.7461 21.0214L51.3009 31.887H49.5928L40.8919 21.9956L32.1912 31.887H30.4807L40.0377 21.0192L30.4785 10.1515H32.1868L40.8919 20.0516L49.5947 10.1515H51.3033L41.7461 21.0214Z" fill="#212121"/>
<path d="M104.642 21.5877C105.891 21.4228 107.057 20.8522 107.959 19.9561C108.573 19.3443 109.046 18.5936 109.327 17.7865L109.399 17.5695C109.423 17.4914 109.445 17.4111 109.466 17.3308C109.506 17.1725 109.541 17.0076 109.566 16.8492C109.575 16.8079 109.582 16.7689 109.586 16.7342C109.6 16.6409 109.61 16.5454 109.619 16.4478C109.63 16.3545 109.637 16.2547 109.641 16.1592C109.645 16.0703 109.647 15.9835 109.647 15.8946C109.647 15.7947 109.645 15.6971 109.641 15.5995C109.575 14.3584 109.124 13.1977 108.34 12.2582C108.322 12.2322 108.303 12.2105 108.296 12.204C107.198 10.9 105.588 10.1515 103.877 10.1515H93.1611V21.3447H93.3791V21.4228H93.1611V31.887H94.464V21.6398H103.147L108.743 31.887H110.229L104.642 21.5877ZM94.464 11.4164H103.847C105.113 11.4164 106.327 11.9501 107.183 12.8917C107.667 13.3691 108.004 13.9484 108.183 14.6058C108.218 14.749 108.275 15.0028 108.285 15.0766C108.314 15.287 108.346 15.5648 108.346 15.8576C108.346 15.9292 108.346 16.003 108.34 16.0768C108.338 16.1332 108.333 16.1918 108.329 16.259C108.329 16.3068 108.322 16.3567 108.316 16.4044L108.312 16.45C108.294 16.604 108.272 16.7472 108.242 16.8882C108.233 16.9294 108.225 16.9685 108.211 17.0141L108.185 17.116C108.176 17.1573 108.166 17.1963 108.15 17.2375C108.133 17.2983 108.113 17.359 108.091 17.422C108.076 17.4697 108.059 17.5196 108.037 17.5695C108.004 17.6498 107.97 17.7301 107.923 17.8234C107.891 17.8928 107.856 17.9557 107.823 18.0186C107.804 18.0533 107.784 18.0859 107.756 18.1293C107.719 18.1944 107.677 18.2616 107.63 18.3267C107.588 18.3875 107.547 18.446 107.494 18.5111C107.359 18.7021 107.202 18.8887 107.026 19.0622C106.176 19.9084 105.047 20.3748 103.847 20.3748H94.464V11.4164Z" fill="#212121"/>
</g>
</g>
<defs>
<linearGradient id="paint0_linear_10840_559476" x1="76.699" y1="30.8852" x2="76.699" y2="14.4393" gradientUnits="userSpaceOnUse">
<stop stop-opacity="0"/>
<stop offset="1"/>
</linearGradient>
<clipPath id="clip0_10840_559476">
<rect width="197.647" height="42" fill="white" transform="translate(0.293945)"/>
</clipPath>
<clipPath id="clip1_10840_559476">
<rect width="158.118" height="24.7059" fill="white" transform="translate(0.293945 8.64709)"/>
</clipPath>
</defs>
</svg>
