<svg width="198" height="42" viewBox="0 0 198 42" fill="none" xmlns="http://www.w3.org/2000/svg">
<g clip-path="url(#clip0_10840_559482)">
<path d="M47.6557 34.6454C46.0251 34.6454 44.7841 34.2679 43.9325 33.5129C43.0991 32.758 42.619 31.7543 42.4922 30.5021H45.4816C45.5541 30.9257 45.7534 31.2848 46.0795 31.5794C46.4056 31.8741 46.8404 32.0213 47.384 32.0213C47.9275 32.0213 48.3532 31.8832 48.6612 31.607C48.9874 31.3124 49.1504 30.9902 49.1504 30.6402C49.1504 30.3456 48.9874 30.1154 48.6612 29.9497C48.3532 29.784 47.9637 29.6367 47.4927 29.5077C47.0216 29.3605 46.5052 29.2131 45.9436 29.0658C45.4001 28.9185 44.8928 28.7067 44.4217 28.4305C43.9506 28.1359 43.5521 27.7675 43.226 27.3256C42.9179 26.8652 42.764 26.2668 42.764 25.5302C42.764 25.0146 42.8636 24.5266 43.0629 24.0662C43.2803 23.5875 43.5883 23.1731 43.9869 22.8232C44.3855 22.4734 44.8565 22.1971 45.4001 21.9945C45.9436 21.7736 46.5596 21.6631 47.2481 21.6631C48.7519 21.6631 49.9023 22.0314 50.6995 22.768C51.5148 23.5046 51.9949 24.4253 52.1398 25.5302H49.1504C49.078 25.2539 48.8787 24.9777 48.5525 24.7015C48.2445 24.4253 47.855 24.2872 47.384 24.2872C46.9129 24.2872 46.5415 24.4069 46.2697 24.6463C46.0161 24.8857 45.8892 25.1803 45.8892 25.5302C45.8892 25.8248 46.0432 26.055 46.3512 26.2207C46.6774 26.3864 47.0759 26.543 47.547 26.6903C48.0181 26.8192 48.5254 26.9665 49.0689 27.1322C49.6305 27.2796 50.1469 27.5006 50.618 27.7952C51.089 28.0898 51.4785 28.4766 51.7865 28.9553C52.1127 29.4157 52.2757 30.0234 52.2757 30.7783C52.2757 31.294 52.167 31.7912 51.9496 32.2699C51.7322 32.7303 51.4242 33.1354 51.0256 33.4853C50.627 33.8352 50.1379 34.1206 49.5581 34.3416C48.9964 34.5442 48.3623 34.6454 47.6557 34.6454Z" fill="black"/>
<path d="M54.5831 21.8012H57.7084V34.5073H54.5831V21.8012ZM56.2137 20.282C55.7427 20.282 55.3259 20.1071 54.9636 19.7572C54.6193 19.389 54.4473 18.9654 54.4473 18.4866C54.4473 18.0079 54.6193 17.5935 54.9636 17.2436C55.3259 16.8754 55.7427 16.6912 56.2137 16.6912C56.6848 16.6912 57.0924 16.8754 57.4367 17.2436C57.799 17.5935 57.9802 18.0079 57.9802 18.4866C57.9802 18.9654 57.799 19.389 57.4367 19.7572C57.0924 20.1071 56.6848 20.282 56.2137 20.282Z" fill="black"/>
<path d="M66.1227 39.203C64.9628 39.203 64.0208 38.9913 63.2963 38.5677C62.5898 38.1442 62.028 37.6654 61.6112 37.1314C61.1401 36.5237 60.7868 35.8332 60.5513 35.0597H63.6768C63.8034 35.2992 63.9758 35.5109 64.1932 35.6951C64.3921 35.8424 64.6459 35.9805 64.9541 36.1094C65.2617 36.2383 65.6514 36.3027 66.1227 36.3027C67.0103 36.3027 67.7076 36.0541 68.2153 35.5569C68.7224 35.0782 68.9762 34.4521 68.9762 33.6786V32.7119C68.7224 32.9697 68.4327 33.1999 68.1066 33.4024C67.8163 33.5866 67.4723 33.7524 67.0739 33.8996C66.6749 34.0286 66.2221 34.093 65.7151 34.093C64.9356 34.093 64.1932 33.9365 63.4866 33.6234C62.7979 33.3104 62.1908 32.8776 61.6656 32.3252C61.1583 31.7727 60.7507 31.119 60.4426 30.364C60.1528 29.6091 60.0078 28.7804 60.0078 27.878C60.0078 26.9757 60.1528 26.1471 60.4426 25.3921C60.7507 24.6371 61.1583 23.9833 61.6656 23.4309C62.1908 22.8785 62.7979 22.4457 63.4866 22.1327C64.1932 21.8197 64.9356 21.6631 65.7151 21.6631C66.2586 21.6631 66.7478 21.7368 67.1826 21.8841C67.6174 22.0314 67.9886 22.1879 68.2968 22.3536C68.6409 22.5562 68.9577 22.7864 69.248 23.0442L69.7915 21.8012H72.1015V33.6786C72.1015 35.336 71.5759 36.6711 70.5253 37.6838C69.4926 38.6967 68.0251 39.203 66.1227 39.203ZM66.1227 31.0546C66.5211 31.0546 66.9016 30.9717 67.2641 30.806C67.6261 30.6402 67.9435 30.4193 68.2153 30.143C68.4871 29.8484 68.7045 29.5077 68.8675 29.121C69.0306 28.7343 69.1121 28.32 69.1121 27.878C69.1121 27.4361 69.0306 27.0217 68.8675 26.635C68.7045 26.2483 68.4871 25.9169 68.2153 25.6407C67.9435 25.346 67.6261 25.1158 67.2641 24.9501C66.9016 24.7844 66.5211 24.7015 66.1227 24.7015C65.7058 24.7015 65.3161 24.7844 64.9541 24.9501C64.5916 25.1158 64.2747 25.346 64.0029 25.6407C63.7312 25.9169 63.5138 26.2483 63.3507 26.635C63.2056 27.0217 63.1333 27.4361 63.1333 27.878C63.1333 28.32 63.2056 28.7343 63.3507 29.121C63.5138 29.5077 63.7312 29.8484 64.0029 30.143C64.2747 30.4193 64.5916 30.6402 64.9541 30.806C65.3161 30.9717 65.7058 31.0546 66.1227 31.0546Z" fill="black"/>
<path d="M75.0986 21.8012H77.4086L77.9522 23.0442C78.2054 22.7864 78.4864 22.5562 78.7946 22.3536C79.0479 22.1879 79.3561 22.0314 79.7186 21.8841C80.0806 21.7368 80.4882 21.6631 80.9416 21.6631C81.5753 21.6631 82.1188 21.7552 82.5722 21.9393C83.0249 22.105 83.3961 22.2892 83.6864 22.4917C84.0125 22.7312 84.275 23.0074 84.4745 23.3204C84.7642 23.0074 85.0996 22.7312 85.48 22.4917C85.8062 22.2892 86.1953 22.105 86.6486 21.9393C87.1014 21.7552 87.5998 21.6631 88.1433 21.6631C89.5022 21.6631 90.5892 22.105 91.4045 22.9889C92.2198 23.8728 92.6275 25.1803 92.6275 26.9113V34.5073H89.5022V27.1875C89.5022 26.4141 89.2934 25.8064 88.8771 25.3644C88.4781 24.9225 88.0075 24.7015 87.4639 24.7015C86.9204 24.7015 86.4399 24.9225 86.0236 25.3644C85.6246 25.8064 85.4257 26.4141 85.4257 27.1875V34.5073H82.3004V27.1875C82.3004 26.4141 82.0916 25.8064 81.6753 25.3644C81.2763 24.9225 80.8057 24.7015 80.2622 24.7015C79.7186 24.7015 79.2381 24.9225 78.8218 25.3644C78.4228 25.8064 78.2239 26.4141 78.2239 27.1875V34.5073H75.0986V21.8012Z" fill="black"/>
<path d="M99.1499 34.6454C97.791 34.6454 96.7491 34.314 96.0246 33.651C95.2994 32.9697 94.9375 32.1042 94.9375 31.0546C94.9375 30.4285 95.0549 29.8576 95.2908 29.342C95.544 28.808 95.9609 28.3568 96.5409 27.9885C97.1203 27.6018 97.8812 27.3072 98.8237 27.1046C99.7836 26.8836 100.979 26.7732 102.411 26.7732C102.411 26.0734 102.221 25.5302 101.84 25.1435C101.478 24.7567 100.989 24.5634 100.373 24.5634C99.9559 24.5634 99.6205 24.6371 99.3673 24.7844C99.1313 24.9317 98.9411 25.0882 98.7966 25.2539C98.6335 25.4565 98.5248 25.6867 98.4704 25.9445H95.3451C95.4174 25.3553 95.5805 24.8028 95.8343 24.2872C96.1061 23.7716 96.468 23.3204 96.9214 22.9337C97.3741 22.547 97.9084 22.2431 98.5248 22.0222C99.1585 21.7828 99.8651 21.6631 100.645 21.6631C101.351 21.6631 102.003 21.792 102.601 22.0498C103.199 22.2892 103.715 22.6299 104.15 23.0718C104.585 23.5138 104.92 24.0386 105.156 24.6463C105.409 25.2539 105.536 25.9169 105.536 26.635V34.5073H103.226L102.683 33.2643C102.393 33.5221 102.076 33.7523 101.732 33.9549C101.423 34.1391 101.052 34.3048 100.617 34.4521C100.183 34.581 99.6934 34.6454 99.1499 34.6454ZM99.6934 32.1594C100.509 32.1594 101.161 31.9201 101.65 31.4413C102.157 30.9441 102.411 30.3088 102.411 29.5354V28.9829C101.487 28.9829 100.744 29.029 100.183 29.121C99.6205 29.1947 99.177 29.3144 98.8509 29.4801C98.5427 29.6274 98.3346 29.8116 98.2259 30.0325C98.1171 30.2535 98.0628 30.5021 98.0628 30.7783C98.0628 31.1283 98.2166 31.4505 98.5248 31.7451C98.8324 32.0213 99.2221 32.1594 99.6934 32.1594Z" fill="black"/>
<path d="M108.65 22.0774H110.145L110.689 23.4585C110.942 23.1823 111.25 22.9337 111.613 22.7127C111.92 22.5102 112.301 22.3353 112.754 22.1879C113.207 22.0222 113.741 21.9393 114.357 21.9393C115.136 21.9393 115.87 22.0959 116.559 22.4089C117.265 22.722 117.872 23.1639 118.38 23.7348C118.905 24.2872 119.312 24.9501 119.603 25.7235C119.91 26.497 120.065 27.3532 120.065 28.2924C120.065 29.2315 119.91 30.0878 119.603 30.8612C119.312 31.6346 118.905 32.3068 118.38 32.8776C117.872 33.4301 117.265 33.8629 116.559 34.1759C115.87 34.4889 115.136 34.6454 114.357 34.6454C113.741 34.6454 113.207 34.5626 112.754 34.3968C112.301 34.2127 111.92 34.0194 111.613 33.8168C111.25 33.5774 110.942 33.3012 110.689 32.9881V38.9269H108.65V22.0774ZM114.222 32.7119C114.729 32.7119 115.209 32.6106 115.662 32.4081C116.133 32.1871 116.54 31.8832 116.885 31.4965C117.229 31.1098 117.501 30.6495 117.7 30.1154C117.918 29.563 118.026 28.9553 118.026 28.2924C118.026 27.6295 117.918 27.031 117.7 26.497C117.501 25.9445 117.229 25.4749 116.885 25.0882C116.54 24.7015 116.133 24.4069 115.662 24.2043C115.209 23.9834 114.729 23.8729 114.222 23.8729C113.714 23.8729 113.225 23.9834 112.754 24.2043C112.301 24.4069 111.902 24.7015 111.558 25.0882C111.214 25.4749 110.933 25.9445 110.716 26.497C110.516 27.031 110.417 27.6295 110.417 28.2924C110.417 28.9553 110.516 29.563 110.716 30.1154C110.933 30.6495 111.214 31.1098 111.558 31.4965C111.902 31.8832 112.301 32.1871 112.754 32.4081C113.225 32.6106 113.714 32.7119 114.222 32.7119Z" fill="black"/>
<path d="M122.77 22.0774H124.264L124.808 23.4585C125.062 23.1823 125.361 22.9337 125.705 22.7127C126.013 22.5102 126.384 22.3353 126.819 22.1879C127.254 22.0222 127.761 21.9393 128.341 21.9393H128.612V24.011H128.069C127.108 24.011 126.32 24.3241 125.705 24.9501C125.107 25.5763 124.808 26.4141 124.808 27.4637V34.5073H122.77V22.0774Z" fill="black"/>
<path d="M130.917 22.0775H132.956V34.5074H130.917V22.0775ZM131.923 19.8677C131.561 19.8677 131.253 19.7481 130.999 19.5087C130.763 19.2509 130.646 18.9378 130.646 18.5695C130.646 18.1828 130.763 17.8698 130.999 17.6304C131.253 17.3726 131.561 17.2437 131.923 17.2437C132.303 17.2437 132.611 17.3726 132.847 17.6304C133.101 17.8698 133.227 18.1828 133.227 18.5695C133.227 18.9378 133.101 19.2509 132.847 19.5087C132.611 19.7481 132.303 19.8677 131.923 19.8677Z" fill="black"/>
<path d="M136.49 22.0774H137.985L138.528 23.4585C138.727 23.1823 138.972 22.9337 139.262 22.7127C139.515 22.5102 139.824 22.3353 140.186 22.1879C140.548 22.0222 140.992 21.9393 141.518 21.9393C142.134 21.9393 142.65 22.059 143.067 22.2984C143.502 22.5194 143.855 22.768 144.127 23.0442C144.453 23.3757 144.715 23.744 144.915 24.1491C145.15 23.744 145.44 23.3757 145.785 23.0442C146.092 22.768 146.473 22.5194 146.926 22.2984C147.379 22.059 147.932 21.9393 148.584 21.9393C149.127 21.9393 149.644 22.059 150.133 22.2984C150.622 22.5194 151.057 22.8509 151.437 23.2928C151.818 23.7348 152.117 24.278 152.334 24.9225C152.552 25.5486 152.66 26.2576 152.66 27.0494V34.5073H150.622V27.0494C150.622 25.9998 150.386 25.208 149.915 24.6739C149.444 24.1399 148.864 23.8729 148.176 23.8729C147.487 23.8729 146.88 24.1583 146.355 24.7292C145.848 25.3 145.594 26.0735 145.594 27.0494V34.5073H143.556V27.0494C143.556 25.9998 143.32 25.208 142.85 24.6739C142.378 24.1399 141.798 23.8729 141.11 23.8729C140.784 23.8729 140.458 23.9557 140.132 24.1215C139.824 24.2688 139.552 24.4898 139.317 24.7844C139.081 25.0606 138.89 25.3921 138.746 25.7788C138.601 26.1655 138.528 26.5891 138.528 27.0494V34.5073H136.49V22.0774Z" fill="black"/>
<path d="M161.078 34.6454C160.263 34.6454 159.502 34.4889 158.795 34.1759C158.089 33.8629 157.464 33.4301 156.92 32.8776C156.395 32.3068 155.978 31.6346 155.67 30.8612C155.38 30.0878 155.235 29.2315 155.235 28.2924C155.235 27.3532 155.389 26.497 155.697 25.7235C156.023 24.9501 156.449 24.2872 156.975 23.7348C157.5 23.1639 158.107 22.722 158.795 22.4089C159.484 22.0959 160.199 21.9393 160.942 21.9393C161.685 21.9393 162.391 22.0867 163.062 22.3813C163.75 22.676 164.348 23.0995 164.856 23.6519C165.363 24.1859 165.761 24.8396 166.052 25.6131C166.359 26.3681 166.514 27.2151 166.514 28.1543C166.514 28.3385 166.504 28.495 166.486 28.6239C166.468 28.7528 166.45 28.8633 166.432 28.9553C166.414 29.0658 166.396 29.1671 166.378 29.2592H157.409C157.445 29.7011 157.563 30.1339 157.763 30.5574C157.98 30.9809 158.252 31.3492 158.578 31.6623C158.904 31.9753 159.285 32.2332 159.719 32.4357C160.154 32.6199 160.607 32.7119 161.078 32.7119C161.477 32.7119 161.839 32.6567 162.165 32.5462C162.491 32.4357 162.772 32.3068 163.008 32.1595C163.261 32.0121 163.47 31.8556 163.633 31.6899C163.814 31.5058 163.959 31.34 164.068 31.1927H166.242C166.042 31.6346 165.788 32.0674 165.481 32.4909C165.173 32.9145 164.801 33.2828 164.367 33.5958C163.95 33.9089 163.461 34.1667 162.899 34.3692C162.356 34.5534 161.748 34.6454 161.078 34.6454ZM164.475 27.4637C164.402 26.9481 164.258 26.4693 164.041 26.0274C163.841 25.5854 163.579 25.208 163.252 24.8949C162.944 24.5819 162.591 24.3333 162.193 24.1491C161.794 23.965 161.377 23.8729 160.942 23.8729C160.508 23.8729 160.091 23.965 159.692 24.1491C159.293 24.3333 158.931 24.5819 158.605 24.8949C158.297 25.208 158.035 25.5854 157.817 26.0274C157.618 26.4693 157.482 26.9481 157.409 27.4637H164.475Z" fill="black"/>
<path fill-rule="evenodd" clip-rule="evenodd" d="M36.7351 1.23535H33.0292V11.9075H36.7351V1.23535ZM6.47042 21.9518C6.47042 18.4848 9.23574 15.6741 12.6469 15.6741H18.8234V23.2074H18.6998C18.1275 26.0729 15.635 28.2296 12.6469 28.2296C9.23574 28.2296 6.47042 25.419 6.47042 21.9518ZM12.6469 34.5073C19.0523 34.5073 24.3191 29.552 24.9388 23.2074H24.9998V15.6741H30.5586V9.39639H20.0586H12.6469C5.82454 9.39639 0.293945 15.0177 0.293945 21.9518C0.293945 28.886 5.82454 34.5073 12.6469 34.5073Z" fill="black"/>
</g>
<defs>
<clipPath id="clip0_10840_559482">
<rect width="166.765" height="38.2941" fill="white" transform="translate(0.293945 1.23535)"/>
</clipPath>
</defs>
</svg>
