<svg width="199" height="42" viewBox="0 0 199 42" fill="none" xmlns="http://www.w3.org/2000/svg">
<g clip-path="url(#clip0_10840_559477)">
<path d="M4.83651 25.5776C4.96142 26.4264 5.39935 27.1962 6.06265 27.733C6.83342 28.2798 7.76348 28.5503 8.70435 28.5013C9.29255 28.512 9.87723 28.4081 10.4265 28.1953C10.8863 28.0204 11.2942 27.7296 11.6113 27.3506C11.8931 27.0118 12.0469 26.5832 12.0452 26.1408C12.0532 25.9008 12.0095 25.6619 11.9174 25.4404C11.8252 25.219 11.6868 25.0204 11.5114 24.858C11.1187 24.5059 10.6627 24.2333 10.1681 24.055C9.63085 23.8534 8.87655 23.6239 7.91563 23.3597C6.73299 23.0655 5.57091 22.6927 4.43699 22.2437C3.51286 21.8586 2.70182 21.2411 2.08116 20.4499C1.42676 19.6341 1.09956 18.5368 1.09956 17.1578C1.09455 16.0503 1.44229 14.9705 2.09149 14.0777C2.78194 13.126 3.71015 12.3763 4.78141 11.905C5.96043 11.3717 7.24025 11.1036 8.53215 11.1193C9.81586 11.0951 11.0903 11.3438 12.2725 11.8493C13.3008 12.2874 14.2042 12.9782 14.9005 13.8587C15.1551 14.1829 15.3767 14.5324 15.5617 14.9016C15.9709 15.7569 16.1716 16.6985 16.1473 17.648H11.9694C11.8501 16.8181 11.4335 16.0611 10.7985 15.5204C10.1139 14.9756 9.25841 14.6968 8.38745 14.7347C7.85026 14.7238 7.3159 14.817 6.81349 15.0094C6.40034 15.1673 6.03649 15.4337 5.75956 15.7811C5.5129 16.1075 5.38083 16.5074 5.38414 16.9179C5.37724 17.1424 5.41897 17.3658 5.50642 17.5723C5.59387 17.7789 5.72492 17.9637 5.89044 18.1138C6.26905 18.4496 6.71227 18.7029 7.19235 18.8577C7.71355 19.0408 8.43568 19.2598 9.35874 19.5148C10.5698 19.8063 11.7569 20.191 12.9097 20.6655C13.8559 21.0802 14.6845 21.7266 15.3206 22.5462C16.0095 23.4014 16.3539 24.5602 16.3539 26.0226C16.3614 27.1447 15.9978 28.2371 15.3206 29.127C14.5938 30.0858 13.634 30.8389 12.5343 31.3137C11.2976 31.862 9.95859 32.1359 8.60788 32.1167C6.43118 32.1167 4.63101 31.6011 3.20741 30.5697C2.48796 30.078 1.8847 29.4323 1.44054 28.6786C0.903353 27.7363 0.629569 26.6646 0.648368 25.5776H4.83651Z" fill="black"/>
<path d="M23.2256 31.5396V15.2234H16.9639V11.5896H33.7176V15.2098H27.4349V31.526L23.2256 31.5396Z" fill="black"/>
<path d="M59.2822 31.5396V15.2122H53.0205V11.5896H69.7741V15.1986H63.4916V31.526L59.2822 31.5396Z" fill="black"/>
<path d="M71.9883 31.5396V11.5896H85.601V15.1986H76.1659V19.7533H85.3084V23.3555H76.1659V27.917H85.601V31.5396H71.9883Z" fill="black"/>
<path d="M92.4346 11.5896H88.2461V31.5396H92.4346V11.5896Z" fill="black"/>
<path d="M96.1809 31.5396L92.4375 11.5896H96.2927L100.006 31.5396H99.61L103.353 11.5896H107.097L103.326 31.5396H96.1809Z" fill="black"/>
<path d="M111.283 11.5896H107.095V31.5396H111.283V11.5896Z" fill="black"/>
<path d="M114.576 31.5396V11.5896H118.765V31.5396H114.576Z" fill="black"/>
<path d="M122.062 31.5396V11.5896H130.447L136.726 31.5396V11.5896H140.91V31.5396H132.555L126.246 11.5896V31.5396H122.062Z" fill="black"/>
<path d="M144.382 31.5387V11.5905H152.621C154.516 11.5672 156.385 12.0194 158.043 12.9024C159.628 13.7437 160.944 14.9847 161.85 16.4917C162.775 18.0325 163.251 19.7842 163.229 21.5629C163.251 23.3428 162.775 25.0957 161.85 26.6375C160.944 28.1445 159.628 29.3855 158.043 30.2268C156.385 31.1098 154.516 31.562 152.621 31.5387H144.382ZM152.264 27.9189C153.459 27.9397 154.639 27.6596 155.686 27.1065C156.673 26.5818 157.484 25.7963 158.022 24.8429C158.586 23.8359 158.873 22.7065 158.853 21.5629C158.872 20.4204 158.586 19.2923 158.022 18.2863C157.487 17.3343 156.68 16.549 155.696 16.0227C154.649 15.4679 153.469 15.1878 152.274 15.2103H148.62V27.9189H152.264Z" fill="black"/>
<path d="M43.5238 11.5896H39.1433L32.4805 23.5633L34.6604 27.4767L43.5238 11.5896Z" fill="black"/>
<path d="M43.4062 11.5896H47.7868L54.4496 23.5633L52.2697 27.4767L43.4062 11.5896Z" fill="black"/>
<path d="M34.6582 27.4753L36.6707 31.5064H43.716H50.2611L52.2737 27.4753H34.6582Z" fill="black"/>
</g>
<defs>
<clipPath id="clip0_10840_559477">
<rect width="163.258" height="21" fill="white" transform="translate(0.647461 11.1177)"/>
</clipPath>
</defs>
</svg>
